<svg width="109" height="98" viewBox="0 0 109 98" fill="none" xmlns="http://www.w3.org/2000/svg">
<g filter="url(#filter0_d_2_11)">
<path d="M104.338 0C88.4931 75.1176 42.327 69.4446 20.4177 61.8155C19.0483 61.3387 14.197 59.0377 5.74626 47.9266C4.18131 50.7631 4.43647 53.6973 4.57255 54.4798C6.6308 66.3147 10.5518 67.529 16.3097 68.8578C17.5812 69.1512 17.19 69.0534 17.679 69.1512C22.1282 70.0411 19.557 73.7091 11.4192 82.1599C19.557 84.6638 29.1553 77.465 32.9373 73.5526C34.5022 73.5526 35.8716 76.3304 28.8293 87.4416C38.219 88.0675 46.1741 78.4431 48.978 73.5526C51.3254 73.4222 54.0641 76.4869 46.2393 89.789C54.2206 90.728 64.0406 76.6173 67.953 69.4446C69.7788 67.9449 72.3349 68.3883 67.953 82.1599C77.3427 79.3429 83.4721 64.815 85.3631 57.9031C86.4716 56.6642 88.0235 57.6684 85.3631 71.5964C94.5571 68.2709 96.2525 51.2521 96.3177 41.8624C97.4262 41.406 99.6432 42.4884 99.6432 50.4696C101.991 46.7529 103.621 29.2124 104.338 20.7356C104.338 16.921 104.632 21.8115 104.338 0Z" fill="#11444D"/>
<path d="M93.2984 58.7423C91.9558 63.7044 89.8529 67.8107 86.7079 69.8219C87.7303 64.0815 87.9614 60.7611 87.7709 58.9572C87.7172 58.4487 87.6253 58.0065 87.4788 57.6441C87.3372 57.2938 87.0968 56.9022 86.6727 56.6776C86.2046 56.4298 85.7305 56.4964 85.3832 56.6512C85.0613 56.7948 84.8055 57.0265 84.6178 57.2363L84.4607 57.412L84.3985 57.6392C83.4728 61.0228 81.5009 66.2937 78.6152 71.0483C76.1315 75.1405 73.061 78.7011 69.5223 80.4624C70.2686 77.9509 70.7567 75.9347 71.0429 74.3276C71.3973 72.3369 71.4579 70.8909 71.2625 69.8848C71.1637 69.3761 70.9858 68.9067 70.6798 68.5385C70.3538 68.1461 69.9219 67.9187 69.446 67.8678C68.5975 67.7768 67.8201 68.2597 67.3183 68.6719L67.1681 68.7952L67.0751 68.9658C65.1457 72.503 61.7571 77.752 57.8843 81.9835C55.9474 84.0999 53.9197 85.9281 51.9226 87.1648C50.5429 88.0191 49.2232 88.5634 47.9865 88.7556C51.2405 82.9508 52.4232 79.1169 52.4232 76.6336C52.4232 75.2598 52.0596 74.1872 51.357 73.4661C50.6501 72.7406 49.7343 72.5091 48.9225 72.5542L48.3805 72.5843L48.1105 73.0552C46.7576 75.415 44.1401 78.9471 40.7316 81.7988C37.7736 84.2736 34.3139 86.1599 30.6299 86.4358C33.4879 81.7208 34.7572 78.5653 35.0978 76.4926C35.2853 75.3511 35.2156 74.3947 34.8224 73.6788C34.3926 72.8963 33.6595 72.5526 32.9373 72.5526H32.5131L32.2183 72.8576C30.3906 74.7483 27.1329 77.4536 23.3588 79.3708C20.1209 81.0155 16.627 82.0188 13.3686 81.5687C16.7471 78.0104 19.0939 75.2882 20.153 73.2882C20.7316 72.1954 21.0891 71.022 20.6415 69.9771C20.1804 68.9006 19.067 68.409 17.8751 68.1706C17.7228 68.1402 17.6539 68.1281 17.5983 68.1184C17.4684 68.0957 17.4116 68.0858 16.5345 67.8834C13.6356 67.2144 11.4897 66.623 9.75938 64.9C8.02241 63.1704 6.57492 60.1571 5.55776 54.3085C5.46419 53.7704 5.29385 51.9143 5.98228 49.8684C13.8652 59.9205 18.5252 62.2154 20.0888 62.7599C31.1404 66.6082 48.4507 70.019 65.0482 62.8559C80.4791 56.1963 95.0424 40.5118 103.435 8.22646C103.512 16.5391 103.441 17.8169 103.387 18.7928C103.361 19.2552 103.339 19.6499 103.338 20.6932C102.979 24.9299 102.396 31.3906 101.611 37.255C101.217 40.1982 100.775 42.9749 100.289 45.2376C100.275 45.3018 100.261 45.3654 100.247 45.4284C100.006 44.1643 99.6675 43.2105 99.2642 42.5054C98.8443 41.7713 98.3213 41.2503 97.7118 40.9789C97.0913 40.7025 96.4601 40.7223 95.937 40.9377L95.3224 41.1908L95.3177 41.8555C95.2854 46.511 94.8477 53.0164 93.2984 58.7423Z" stroke="#008974" stroke-width="2"/>
</g>
<defs>
<filter id="filter0_d_2_11" x="0.468599" y="0" width="108" height="97.8336" filterUnits="userSpaceOnUse" color-interpolation-filters="sRGB">
<feFlood flood-opacity="0" result="BackgroundImageFix"/>
<feColorMatrix in="SourceAlpha" type="matrix" values="0 0 0 0 0 0 0 0 0 0 0 0 0 0 0 0 0 0 127 0" result="hardAlpha"/>
<feOffset dy="4"/>
<feGaussianBlur stdDeviation="2"/>
<feComposite in2="hardAlpha" operator="out"/>
<feColorMatrix type="matrix" values="0 0 0 0 0 0 0 0 0 0 0 0 0 0 0 0 0 0 0.25 0"/>
<feBlend mode="normal" in2="BackgroundImageFix" result="effect1_dropShadow_2_11"/>
<feBlend mode="normal" in="SourceGraphic" in2="effect1_dropShadow_2_11" result="shape"/>
</filter>
</defs>
</svg>
