<?xml version="1.0" encoding="UTF-8" standalone="no"?>
<!-- Created with Inkscape (http://www.inkscape.org/) -->

<svg
   width="41.539566mm"
   height="41.804108mm"
   viewBox="0 0 41.539566 41.804108"
   version="1.1"
   id="svg7313"
   xmlns="http://www.w3.org/2000/svg"
   xmlns:svg="http://www.w3.org/2000/svg">
  <defs
     id="defs7310">
    <linearGradient
       id="paint44_linear_1_6884"
       x1="321.13599"
       y1="319.72101"
       x2="155.19701"
       y2="327.60999"
       gradientUnits="userSpaceOnUse"
       gradientTransform="matrix(0.26458333,0,0,0.26458333,85.584226,28.159682)">
      <stop
         stop-color="#FFD061"
         id="stop2198" />
      <stop
         offset="1"
         stop-color="#CC5327"
         id="stop2200" />
    </linearGradient>
    <linearGradient
       id="paint45_linear_1_6884"
       x1="294.50699"
       y1="338.94699"
       x2="72.720299"
       y2="316.68399"
       gradientUnits="userSpaceOnUse"
       gradientTransform="matrix(0.26458333,0,0,0.26458333,85.584226,28.159682)">
      <stop
         stop-color="#FFD061"
         id="stop2203" />
      <stop
         offset="1"
         stop-color="#CC5327"
         id="stop2205" />
    </linearGradient>
    <linearGradient
       id="paint46_linear_1_6884"
       x1="301.76099"
       y1="308.73001"
       x2="148.922"
       y2="329.69299"
       gradientUnits="userSpaceOnUse"
       gradientTransform="matrix(0.26458333,0,0,0.26458333,85.584226,28.159682)">
      <stop
         stop-color="#BF9A73"
         id="stop2208" />
      <stop
         offset="1"
         stop-color="#CF5224"
         id="stop2210" />
    </linearGradient>
    <linearGradient
       id="paint47_linear_1_6884"
       x1="285.88699"
       y1="379.228"
       x2="140.489"
       y2="361.996"
       gradientUnits="userSpaceOnUse"
       gradientTransform="matrix(0.26458333,0,0,0.26458333,85.584226,28.159682)">
      <stop
         stop-color="#8F3333"
         id="stop2213" />
      <stop
         offset="1"
         stop-color="#5E183D"
         id="stop2215" />
      <stop
         offset="1"
         stop-color="#5E183D"
         id="stop2217" />
    </linearGradient>
    <linearGradient
       id="paint48_linear_1_6884"
       x1="319.569"
       y1="286.75"
       x2="153.63"
       y2="294.63901"
       gradientUnits="userSpaceOnUse"
       gradientTransform="matrix(0.26458333,0,0,0.26458333,85.584226,28.159682)">
      <stop
         stop-color="#FFD061"
         id="stop2220" />
      <stop
         offset="1"
         stop-color="#CC5327"
         id="stop2222" />
    </linearGradient>
    <linearGradient
       id="paint49_linear_1_6884"
       x1="230.328"
       y1="295.84601"
       x2="-52.529202"
       y2="276.41901"
       gradientUnits="userSpaceOnUse"
       gradientTransform="matrix(0.26458333,0,0,0.26458333,85.584226,28.159682)">
      <stop
         stop-color="#FFD061"
         id="stop2225" />
      <stop
         offset="1"
         stop-color="#CC5327"
         id="stop2227" />
    </linearGradient>
    <linearGradient
       id="paint50_linear_1_6884"
       x1="296.755"
       y1="275.99301"
       x2="143.916"
       y2="296.95599"
       gradientUnits="userSpaceOnUse"
       gradientTransform="matrix(0.26458333,0,0,0.26458333,85.584226,28.159682)">
      <stop
         stop-color="#BF9A73"
         id="stop2230" />
      <stop
         offset="1"
         stop-color="#CD532A"
         id="stop2232" />
    </linearGradient>
    <linearGradient
       id="paint51_linear_1_6884"
       x1="253.284"
       y1="354.30701"
       x2="82.090302"
       y2="272.40799"
       gradientUnits="userSpaceOnUse"
       gradientTransform="matrix(0.26458333,0,0,0.26458333,85.584226,28.159682)">
      <stop
         stop-color="#FFD061"
         id="stop2235" />
      <stop
         offset="1"
         stop-color="#CC5327"
         id="stop2237" />
    </linearGradient>
    <linearGradient
       id="paint52_linear_1_6884"
       x1="269.71899"
       y1="319.95099"
       x2="98.525703"
       y2="238.05099"
       gradientUnits="userSpaceOnUse"
       gradientTransform="matrix(0.26458333,0,0,0.26458333,85.584226,28.159682)">
      <stop
         stop-color="#FFD061"
         id="stop2240" />
      <stop
         offset="1"
         stop-color="#CC5327"
         id="stop2242" />
    </linearGradient>
    <linearGradient
       id="paint53_linear_1_6884"
       x1="239.259"
       y1="383.62201"
       x2="68.065498"
       y2="301.72198"
       gradientUnits="userSpaceOnUse"
       gradientTransform="matrix(0.26458333,0,0,0.26458333,85.584226,28.159682)">
      <stop
         stop-color="#FFD061"
         id="stop2245" />
      <stop
         offset="1"
         stop-color="#CC5327"
         id="stop2247" />
    </linearGradient>
    <linearGradient
       id="paint54_linear_1_6884"
       x1="280.97299"
       y1="296.42999"
       x2="109.779"
       y2="214.53"
       gradientUnits="userSpaceOnUse"
       gradientTransform="matrix(0.26458333,0,0,0.26458333,85.584226,28.159682)">
      <stop
         stop-color="#FFD061"
         id="stop2250" />
      <stop
         offset="1"
         stop-color="#CC5327"
         id="stop2252" />
    </linearGradient>
    <linearGradient
       id="paint55_linear_1_6884"
       x1="270.33701"
       y1="318.66"
       x2="99.143402"
       y2="236.75999"
       gradientUnits="userSpaceOnUse"
       gradientTransform="matrix(0.26458333,0,0,0.26458333,85.584226,28.159682)">
      <stop
         stop-color="#FFD061"
         id="stop2255" />
      <stop
         offset="1"
         stop-color="#CC5327"
         id="stop2257" />
    </linearGradient>
    <linearGradient
       id="paint56_linear_1_6884"
       x1="256.642"
       y1="347.289"
       x2="85.448303"
       y2="265.38901"
       gradientUnits="userSpaceOnUse"
       gradientTransform="matrix(0.26458333,0,0,0.26458333,85.584226,28.159682)">
      <stop
         stop-color="#FFD061"
         id="stop2260" />
      <stop
         offset="1"
         stop-color="#CC5327"
         id="stop2262" />
    </linearGradient>
    <linearGradient
       id="paint57_linear_1_6884"
       x1="241.552"
       y1="378.82901"
       x2="70.358704"
       y2="296.92899"
       gradientUnits="userSpaceOnUse"
       gradientTransform="matrix(0.26458333,0,0,0.26458333,85.584226,28.159682)">
      <stop
         stop-color="#FFD061"
         id="stop2265" />
      <stop
         offset="1"
         stop-color="#CC5327"
         id="stop2267" />
    </linearGradient>
    <linearGradient
       id="paint58_linear_1_6884"
       x1="246.144"
       y1="369.23099"
       x2="74.950104"
       y2="287.33099"
       gradientUnits="userSpaceOnUse"
       gradientTransform="matrix(0.26458333,0,0,0.26458333,85.584226,28.159682)">
      <stop
         stop-color="#FFD061"
         id="stop2270" />
      <stop
         offset="1"
         stop-color="#CC5327"
         id="stop2272" />
    </linearGradient>
    <linearGradient
       id="paint59_linear_1_6884"
       x1="261.81601"
       y1="336.47101"
       x2="90.6222"
       y2="254.571"
       gradientUnits="userSpaceOnUse"
       gradientTransform="matrix(0.26458333,0,0,0.26458333,85.584226,28.159682)">
      <stop
         stop-color="#FFD061"
         id="stop2275" />
      <stop
         offset="1"
         stop-color="#CC5327"
         id="stop2277" />
    </linearGradient>
    <linearGradient
       id="paint60_linear_1_6884"
       x1="251.24899"
       y1="358.56"
       x2="80.055199"
       y2="276.66"
       gradientUnits="userSpaceOnUse"
       gradientTransform="matrix(0.26458333,0,0,0.26458333,85.584226,28.159682)">
      <stop
         stop-color="#FFD061"
         id="stop2280" />
      <stop
         offset="1"
         stop-color="#CC5327"
         id="stop2282" />
    </linearGradient>
    <linearGradient
       id="paint61_linear_1_6884"
       x1="251.08701"
       y1="358.89899"
       x2="79.892403"
       y2="276.99899"
       gradientUnits="userSpaceOnUse"
       gradientTransform="matrix(0.26458333,0,0,0.26458333,85.584226,28.159682)">
      <stop
         stop-color="#FFD061"
         id="stop2285" />
      <stop
         offset="1"
         stop-color="#CC5327"
         id="stop2287" />
    </linearGradient>
    <linearGradient
       id="paint62_linear_1_6884"
       x1="267.30099"
       y1="325.00699"
       x2="96.106903"
       y2="243.10699"
       gradientUnits="userSpaceOnUse"
       gradientTransform="matrix(0.26458333,0,0,0.26458333,85.584226,28.159682)">
      <stop
         stop-color="#FFD061"
         id="stop2290" />
      <stop
         offset="1"
         stop-color="#CC5327"
         id="stop2292" />
    </linearGradient>
    <linearGradient
       id="paint63_linear_1_6884"
       x1="279.98599"
       y1="298.492"
       x2="108.793"
       y2="216.592"
       gradientUnits="userSpaceOnUse"
       gradientTransform="matrix(0.26458333,0,0,0.26458333,85.584226,28.159682)">
      <stop
         stop-color="#FFD061"
         id="stop2295" />
      <stop
         offset="1"
         stop-color="#CC5327"
         id="stop2297" />
    </linearGradient>
    <linearGradient
       id="paint64_linear_1_6884"
       x1="265.43799"
       y1="328.90601"
       x2="94.2425"
       y2="247.005"
       gradientUnits="userSpaceOnUse"
       gradientTransform="matrix(0.26458333,0,0,0.26458333,85.584226,28.159682)">
      <stop
         stop-color="#FFD061"
         id="stop2300" />
      <stop
         offset="1"
         stop-color="#CC5327"
         id="stop2302" />
    </linearGradient>
    <linearGradient
       id="paint65_linear_1_6884"
       x1="277.28299"
       y1="304.142"
       x2="106.089"
       y2="222.243"
       gradientUnits="userSpaceOnUse"
       gradientTransform="matrix(0.26458333,0,0,0.26458333,85.584226,28.159682)">
      <stop
         stop-color="#FFD061"
         id="stop2305" />
      <stop
         offset="1"
         stop-color="#CC5327"
         id="stop2307" />
    </linearGradient>
    <linearGradient
       id="paint66_linear_1_6884"
       x1="273.466"
       y1="312.12201"
       x2="102.271"
       y2="230.22099"
       gradientUnits="userSpaceOnUse"
       gradientTransform="matrix(0.26458333,0,0,0.26458333,85.584226,28.159682)">
      <stop
         stop-color="#FFD061"
         id="stop2310" />
      <stop
         offset="1"
         stop-color="#CC5327"
         id="stop2312" />
    </linearGradient>
    <linearGradient
       id="paint67_linear_1_6884"
       x1="214.547"
       y1="234.036"
       x2="214.03"
       y2="233.789"
       gradientUnits="userSpaceOnUse"
       gradientTransform="matrix(0.26458333,0,0,0.26458333,85.584226,28.159682)">
      <stop
         stop-color="#FFD061"
         id="stop2315" />
      <stop
         offset="1"
         stop-color="#CC5327"
         id="stop2317" />
    </linearGradient>
    <linearGradient
       id="paint68_linear_1_6884"
       x1="306.23499"
       y1="414.37701"
       x2="203.319"
       y2="305.901"
       gradientUnits="userSpaceOnUse"
       gradientTransform="matrix(0.26458333,0,0,0.26458333,85.584226,28.159682)">
      <stop
         stop-color="#BF9A73"
         id="stop2320" />
      <stop
         offset="1"
         stop-color="#9C5457"
         id="stop2322" />
    </linearGradient>
    <linearGradient
       id="paint69_linear_1_6884"
       x1="271.76901"
       y1="447.07599"
       x2="168.854"
       y2="338.60101"
       gradientUnits="userSpaceOnUse"
       gradientTransform="matrix(0.26458333,0,0,0.26458333,85.584226,28.159682)">
      <stop
         stop-color="#BF9A73"
         id="stop2325" />
      <stop
         offset="1"
         stop-color="#72203D"
         id="stop2327" />
    </linearGradient>
    <linearGradient
       id="paint70_linear_1_6884"
       x1="237.01601"
       y1="480.048"
       x2="134.101"
       y2="371.573"
       gradientUnits="userSpaceOnUse"
       gradientTransform="matrix(0.26458333,0,0,0.26458333,85.584226,28.159682)">
      <stop
         stop-color="#BF9A73"
         id="stop2330" />
      <stop
         offset="1"
         stop-color="#712A47"
         id="stop2332" />
    </linearGradient>
  </defs>
  <g
     id="layer1"
     transform="translate(-114.42378,-89.807622)">
    <path
       d="m 155.61123,109.46191 c -0.31379,-1.59174 -0.82735,-3.11521 -1.52162,-4.40743 -0.78925,-1.47029 -1.85764,-2.7059 -3.11282,-3.60019 -4.71382,-3.357561 -10.69234,-3.247759 -15.86891,-2.671761 -4.89136,0.545835 -9.83007,2.258751 -13.64668,5.832211 -1.92432,1.80393 -3.72481,4.44526 -4.77415,7.37473 -1.14749,3.21363 -1.06177,6.71539 -0.22198,9.99331 1.34726,5.25992 6.47965,7.56418 10.57831,8.70479 7.03103,1.95924 15.15877,0.80725 21.27038,-3.49408 3.64252,-2.5654 6.75217,-6.80244 7.49088,-11.88429 0.26935,-1.84547 0.18997,-3.89573 -0.19341,-5.84729 z"
       fill="url(#paint44_linear_1_6884)"
       id="path1564"
       style="fill:url(#paint44_linear_1_6884);stroke-width:0.264583" />
    <path
       d="m 155.62076,112.56547 c -0.0127,0.21219 -0.0317,0.42439 -0.0571,0.63659 -0.022,0.18573 -0.0474,0.37147 -0.0759,0.55721 -0.77047,4.97575 -3.90234,9.11013 -7.56047,11.59616 -6.13701,4.17618 -14.27427,5.24483 -21.29578,3.27051 -4.09258,-1.14829 -9.212,-3.44487 -10.52751,-8.61377 -0.41195,-1.61052 -0.44688,-3.2819 -0.19976,-4.92284 0.15531,-1.0496 0.42492,-2.0918 0.78634,-3.09986 1.0459,-2.92947 2.84639,-5.5708 4.77071,-7.37473 3.81661,-3.57346 8.75532,-5.286376 13.64668,-5.832211 2.72626,-0.306917 5.67107,-0.477573 8.53995,-0.09102 0.0159,0.004 0.0317,0.0077 0.0476,0.0077 1.03637,0.147902 2.06348,0.363802 3.06519,0.678392 0.003,0 0.003,0 0.006,0.0037 0.19976,0.06456 0.39953,0.128852 0.59611,0.200819 1.25836,0.44715 2.47571,1.05727 3.61368,1.86822 0.38365,0.27305 0.7448,0.57627 1.08082,0.89826 0.0222,0.0191 0.0444,0.0418 0.0635,0.0646 2.42835,2.36829 3.63908,5.97615 3.52505,9.58003 v 0.004 c -0.006,0.19315 -0.0127,0.38259 -0.0254,0.56833 z"
       fill="url(#paint45_linear_1_6884)"
       id="path1566"
       style="fill:url(#paint45_linear_1_6884);stroke-width:0.264583" />
    <path
       d="m 155.56361,113.20206 c -0.022,0.18573 -0.0474,0.37147 -0.0759,0.55721 -0.77047,4.97575 -3.90234,9.11013 -7.56047,11.59616 -6.13701,4.17618 -14.27427,5.24483 -21.29578,3.27051 -4.09258,-1.14829 -9.212,-3.44487 -10.52751,-8.61377 -0.41195,-1.61079 -0.44688,-3.2819 -0.19976,-4.92284 0.054,1.04219 -0.15213,1.96294 0.0857,3.01281 2.23149,9.7962 14.30602,10.86114 21.22276,10.35314 4.33969,-0.31829 8.5463,-1.86822 12.09992,-4.91119 3.64543,-3.11891 6.38757,-8.92837 5.66473,-14.38169 -0.19024,-1.45151 -0.63394,-2.84242 -1.29646,-4.07776 -0.75142,-1.4097 -1.83859,-2.50481 -3.01149,-3.38799 -1.05568,-0.7919 -2.61223,-2.008452 -3.86106,-2.235729 0.18388,0.03413 0.36777,0.07197 0.55166,0.121179 1.25835,0.44715 2.4757,1.05727 3.61367,1.86822 0.38365,0.27305 0.74481,0.576 1.08083,0.89826 0.0222,0.0191 0.0445,0.0415 0.0635,0.0643 0.4945,0.508 0.94774,1.07632 1.35043,1.69016 1.68963,2.58074 2.45983,5.88539 2.09524,9.09902 z"
       fill="url(#paint46_linear_1_6884)"
       id="path1568"
       style="fill:url(#paint46_linear_1_6884);stroke-width:0.264583" />
    <path
       d="m 154.90109,108.37791 c -0.18389,0.96652 -0.46276,1.69016 -0.43736,2.69822 0,1.01177 0.27887,2.27012 -0.0349,3.22871 -0.37095,1.14088 -1.39488,2.32701 -1.99708,3.3274 -0.45005,0.75036 -0.92233,1.52717 -1.58803,1.99707 -0.006,0.004 -0.01,0.008 -0.0159,0.0114 -0.64982,0.45482 -1.43298,0.57997 -2.07328,1.05357 -0.50403,0.37518 -0.8845,0.9398 -1.2647,1.49305 -0.0635,0.091 -0.127,0.18203 -0.19024,0.27305 -1.47082,2.08041 -3.52504,3.67956 -5.79146,3.95261 -0.62469,0.0757 -1.25545,0.0529 -1.88304,0.0264 -0.0762,-0.004 -0.14896,-0.008 -0.22516,-0.008 -1.08083,-0.0455 -2.16509,-0.087 -3.24591,-0.12885 -0.9353,-0.0341 -2.0447,-0.28787 -2.94508,0.0873 -1.53405,0.64029 -2.85909,1.67878 -4.47596,1.39832 -0.25664,-0.0418 -0.51673,-0.11747 -0.78925,-0.23124 -0.49133,-0.2122 -0.93186,-0.48498 -1.35678,-0.76914 -0.88768,-0.60273 -1.71503,-1.25836 -2.84348,-1.52348 -1.47399,-0.34501 -3.03371,-0.43206 -4.37779,-1.30757 -1.65471,-1.08003 -1.94628,-3.02789 -2.83078,-4.82414 -0.45958,-0.93213 -0.92869,-1.89865 -1.0332,-2.97101 -0.15557,-1.56898 0.49768,-3.10753 1.36287,-4.30133 0.0381,-0.0529 0.0127,0.0114 0.0635,-0.019 5.62345,-3.37635 10.02348,-9.09135 16.24939,-10.20154 1.68618,-0.29951 3.39486,-0.42439 5.09719,-0.54584 4.54263,-0.32967 9.22788,-0.61753 13.77024,-0.9435 1.73726,1.31127 2.84983,3.67982 2.98609,6.12405 0.0413,0.70114 0,1.4134 -0.12991,2.10317 z"
       fill="url(#paint47_linear_1_6884)"
       id="path1570"
       style="fill:url(#paint47_linear_1_6884);stroke-width:0.264583" />
    <path
       d="m 139.40021,126.43175 c -1.08109,-0.0455 -2.16508,-0.087 -3.24617,-0.12885 -0.93504,-0.0341 -2.0447,-0.28787 -2.94481,0.0873 -1.53432,0.64029 -2.85936,1.67878 -4.47596,1.39832 0.97631,-0.21616 1.8796,-1.15966 2.82125,-1.7092 2.40903,-1.40203 5.1353,-0.19315 7.84569,0.35242 z"
       fill="#420b22"
       id="path1572"
       style="stroke-width:0.264583" />
    <path
       d="m 150.8437,119.62931 c -0.006,0.004 -0.01,0.008 -0.0159,0.0114 -0.64982,0.45482 -1.43272,0.57997 -2.07301,1.05357 -0.50403,0.37518 -0.8845,0.9398 -1.26497,1.49305 0.32014,-0.73131 0.63711,-1.47029 1.18877,-1.95157 0.61489,-0.53816 1.38853,-0.64056 2.16508,-0.60643 z"
       fill="#420b22"
       id="path1574"
       style="stroke-width:0.264583" />
    <path
       d="m 155.031,106.27474 c -0.16166,0.74268 -0.35163,1.47796 -0.56727,2.20186 -0.42809,1.44383 -1.05568,2.42914 -1.74678,3.66818 -0.81147,1.45151 -1.3536,2.9636 -2.36458,4.2672 -1.09378,1.4097 -2.41247,2.56937 -3.82931,3.47133 -2.9673,1.8796 -6.30529,2.72468 -9.59247,3.5433 -1.97168,0.49266 -3.98463,0.98902 -5.98805,0.73899 -3.33481,-0.41302 -6.49843,-2.8575 -9.81101,-2.22065 -0.16166,0.87153 0.54821,1.64835 1.2647,1.91002 0.71332,0.26141 1.4994,0.23866 2.17144,0.62521 0.83053,0.47758 1.37266,1.5158 2.0193,2.30797 -0.88768,-0.60273 -1.71503,-1.25836 -2.84348,-1.52348 -1.47399,-0.34501 -3.03371,-0.43206 -4.37779,-1.30757 -1.65471,-1.08003 -1.94628,-3.02789 -2.83078,-4.82414 -0.45958,-0.93213 -0.92869,-1.89865 -1.0332,-2.97101 -0.15557,-1.56898 0.49768,-3.10753 1.36287,-4.30133 0.0381,-0.0529 0.0127,0.0114 0.0635,-0.019 5.62345,-3.37635 10.02348,-9.09135 16.24939,-10.20154 1.68618,-0.29951 3.39486,-0.42439 5.09719,-0.54584 4.54263,-0.32967 9.22788,-0.61753 13.77024,-0.9435 1.73726,1.31127 2.84983,3.67982 2.98609,6.12405 z"
       fill="#420b22"
       id="path1576"
       style="stroke-width:0.264583" />
    <path
       d="m 154.2862,100.79865 c -0.3138,-1.591465 -0.82735,-3.114936 -1.52162,-4.407161 -0.78925,-1.470554 -1.85764,-2.705893 -3.11282,-3.600185 -4.71382,-3.357827 -10.69235,-3.24776 -15.86892,-2.671762 -4.89135,0.54557 -9.83006,2.258483 -13.64668,5.83221 -1.92431,1.803929 -3.7248,4.445268 -4.77414,7.374728 -1.1475,3.21363 -1.06177,6.71513 -0.22172,9.99332 1.34726,5.25991 6.47938,7.5639 10.57804,8.70479 7.03104,1.95924 15.15877,0.80698 21.27065,-3.49409 3.64225,-2.56566 6.7519,-6.80244 7.49062,-11.88429 0.27252,-1.84176 0.19023,-3.89572 -0.19341,-5.84756 z"
       fill="url(#paint48_linear_1_6884)"
       id="path1578"
       style="fill:url(#paint48_linear_1_6884);stroke-width:0.264583" />
    <path
       d="m 154.29572,103.90619 c -0.0127,0.21219 -0.0317,0.42465 -0.0571,0.63685 -0.0222,0.18547 -0.0476,0.37121 -0.0759,0.55695 -0.77047,4.97575 -3.90234,9.11039 -7.56047,11.59642 -6.13701,4.17618 -14.27427,5.24483 -21.29578,3.27025 -4.09258,-1.14803 -9.212,-3.44461 -10.52751,-8.61378 -0.41222,-1.61052 -0.44715,-3.28189 -0.19976,-4.92283 0.15531,-1.04961 0.42466,-2.0918 0.78608,-3.09986 1.04616,-2.9292 2.84665,-5.570805 4.77096,-7.374469 3.81662,-3.573727 8.75533,-5.28664 13.64668,-5.832475 2.726,-0.306917 5.67108,-0.477309 8.53996,-0.09075 0.0156,0.0037 0.0315,0.0074 0.0474,0.0074 1.03664,0.147902 2.06375,0.363802 3.06546,0.678392 0.003,0 0.003,0 0.006,0.0037 0.19976,0.06456 0.39926,0.128852 0.59584,0.201083 1.25863,0.447146 2.47571,1.057275 3.61395,1.868223 0.38338,0.272786 0.7448,0.575998 1.08082,0.897996 0.0222,0.01905 0.0444,0.0418 0.0635,0.06456 2.42808,2.36855 3.63908,5.976144 3.52504,9.5803 v 0.004 c -0.003,0.18944 -0.0127,0.37888 -0.0254,0.56833 z"
       fill="url(#paint49_linear_1_6884)"
       id="path1580"
       style="fill:url(#paint49_linear_1_6884);stroke-width:0.264583" />
    <path
       d="m 154.23857,104.54277 c -0.0222,0.18574 -0.0476,0.37148 -0.0759,0.55722 -0.77047,4.97575 -3.90234,9.11039 -7.56047,11.59615 -6.13701,4.17619 -14.27427,5.2451 -21.29578,3.27052 -4.09258,-1.14829 -9.212,-3.44461 -10.52751,-8.61378 -0.41222,-1.61052 -0.44715,-3.28189 -0.19976,-4.92283 0.054,1.04219 -0.15214,1.9632 0.0855,3.01281 0.48525,2.12989 1.54067,4.06638 2.97683,5.44962 1.29963,1.25809 2.86861,2.04629 4.4442,2.71701 4.77388,2.02379 9.69381,2.52015 14.68014,1.41366 3.1795,-0.70881 6.97707,-1.34911 9.76974,-3.4372 4.95486,-3.70628 9.42129,-12.39229 5.82322,-19.160594 -0.75115,-1.4097 -1.83859,-2.50481 -3.01149,-3.387725 -1.05542,-0.792162 -2.61197,-2.008716 -3.8608,-2.235994 0.18389,0.03413 0.36751,0.07197 0.55139,0.12118 1.25863,0.447145 2.47571,1.057275 3.61395,1.868487 0.38338,0.272786 0.7448,0.575998 1.08082,0.897996 0.0222,0.01905 0.0444,0.0418 0.0635,0.06456 0.49451,0.507736 0.94774,1.076061 1.35043,1.690159 1.68646,2.580745 2.45666,5.885121 2.09206,9.098751 z"
       fill="url(#paint50_linear_1_6884)"
       id="path1582"
       style="fill:url(#paint50_linear_1_6884);stroke-width:0.264583" />
    <path
       d="m 128.78698,104.66792 c 0.41222,-0.0796 1.29646,0.0378 1.05886,0.8337 -0.0889,0.29184 -0.33602,0.45853 -0.56753,0.58367 -0.51991,0.28046 -1.20147,0.70115 -1.67375,0.0683 -0.61172,-0.81492 0.68474,-1.39092 1.18242,-1.48564 z"
       fill="url(#paint51_linear_1_6884)"
       id="path1584"
       style="fill:url(#paint51_linear_1_6884);stroke-width:0.264583" />
    <path
       d="m 139.3682,100.73436 c 0.24712,-0.14023 0.52943,-0.19711 0.8083,-0.23495 0.32332,-0.0415 0.66251,-0.0606 0.96044,0.0683 0.29792,0.13256 0.53578,0.45853 0.4691,0.78449 -0.0442,0.21987 -0.21219,0.39397 -0.40878,0.49636 -0.52308,0.27279 -1.83541,0.65193 -2.26668,0.0341 -0.26935,-0.37888 0.11112,-0.96255 0.43762,-1.14829 z"
       fill="url(#paint52_linear_1_6884)"
       id="path1586"
       style="fill:url(#paint52_linear_1_6884);stroke-width:0.264583" />
    <path
       d="m 120.55447,111.09147 c 0.53578,-0.14419 1.10305,-0.38655 1.39488,-0.95117 0.0251,-0.0495 0.0474,-0.0987 0.0569,-0.15558 0.0159,-0.10213 -0.0127,-0.20452 -0.0601,-0.29554 -0.36142,-0.69717 -1.6137,-0.47757 -2.1082,-0.0984 -0.2757,0.21219 -0.88424,0.84111 -0.70697,1.27714 0.20294,0.50403 1.09696,0.31062 1.42346,0.22357 z"
       fill="url(#paint53_linear_1_6884)"
       id="path1588"
       style="fill:url(#paint53_linear_1_6884);stroke-width:0.264583" />
    <path
       d="m 149.52476,99.260102 c 0.23468,-0.09843 0.49768,-0.306917 0.46937,-0.606425 -0.0286,-0.287867 -0.31089,-0.416719 -0.54531,-0.477308 -0.41857,-0.102394 -0.85275,-0.170657 -1.26815,-0.05318 -0.40243,0.113771 -1.24566,0.719932 -0.75432,1.239309 0.4437,0.465931 1.62613,0.102129 2.09841,-0.102394 z"
       fill="url(#paint54_linear_1_6884)"
       id="path1590"
       style="fill:url(#paint54_linear_1_6884);stroke-width:0.264583" />
    <path
       d="m 143.34965,104.53536 c -0.0222,0.0569 -0.0413,0.12118 -0.0349,0.18574 0.0127,0.11748 0.11404,0.18547 0.20294,0.23098 0.84005,0.42836 1.86716,0.26168 2.58656,-0.41672 0.89086,-0.84137 0.0667,-1.64861 -0.77972,-1.54622 -0.78291,0.10239 -1.64201,0.65564 -1.97485,1.54622 z"
       fill="url(#paint55_linear_1_6884)"
       id="path1592"
       style="fill:url(#paint55_linear_1_6884);stroke-width:0.264583" />
    <path
       d="m 134.13474,108.17735 c -0.0222,0.0452 -0.0444,0.0947 -0.0413,0.14394 0.006,0.091 0.0794,0.14763 0.14579,0.18573 0.44688,0.25374 0.97314,0.29925 1.44542,0.13256 0.37729,-0.13256 0.95117,-0.50403 1.11601,-0.97393 0.29792,-0.84878 -0.57071,-1.02711 -1.03029,-0.86016 -0.62759,0.22728 -1.27741,0.69718 -1.63565,1.37186 z"
       fill="url(#paint56_linear_1_6884)"
       id="path1594"
       style="fill:url(#paint56_linear_1_6884);stroke-width:0.264583" />
    <path
       d="m 125.36962,112.8118 c -0.1016,0.10609 -0.20293,0.23495 -0.20611,0.39793 -0.003,0.16669 0.10451,0.31459 0.23151,0.37888 0.12674,0.0646 0.26935,0.0569 0.40878,0.0418 0.42492,-0.0492 0.84323,-0.19315 1.23005,-0.42069 0.29792,-0.17807 0.57997,-0.40931 0.77655,-0.73131 0.45032,-0.73157 -0.56409,-0.84137 -0.91916,-0.67469 -0.51991,0.23495 -1.09696,0.56859 -1.52162,1.00807 z"
       fill="url(#paint57_linear_1_6884)"
       id="path1596"
       style="fill:url(#paint57_linear_1_6884);stroke-width:0.264583" />
    <path
       d="m 134.10299,112.96711 c 0.66886,0.2995 0.14578,0.89455 -0.26009,1.1938 -0.53234,0.39026 -1.23613,0.84137 -1.8542,0.43576 -0.24103,-0.15531 -0.41539,-0.50403 -0.33284,-0.82232 0.23124,-0.898 1.75604,-1.07236 2.37728,-0.84111 0.0222,0.0111 0.0476,0.0225 0.0699,0.0339 z"
       fill="url(#paint58_linear_1_6884)"
       id="path1598"
       style="fill:url(#paint58_linear_1_6884);stroke-width:0.264583" />
    <path
       d="m 142.6395,108.24165 c 0.38048,-0.14023 0.77973,-0.18971 1.17925,-0.23495 0.0918,-0.0114 0.19024,-0.0228 0.27887,0.0228 0.18706,0.0907 0.24104,0.40905 0.15849,0.63262 -0.0823,0.22384 -0.263,0.37148 -0.43736,0.49265 -0.64664,0.44345 -1.38536,0.68977 -2.13016,0.70115 -1.05251,0.0153 0.63394,-1.49675 0.95091,-1.61422 z"
       fill="url(#paint59_linear_1_6884)"
       id="path1600"
       style="fill:url(#paint59_linear_1_6884);stroke-width:0.264583" />
    <path
       d="m 140.99115,113.91484 c 0.0952,0.0188 0.20611,0.0643 0.22834,0.17807 0.01,0.0569 -0.006,0.11377 -0.0254,0.16669 -0.3519,1.00039 -1.33139,1.60681 -2.20636,1.36816 -0.17754,-0.0492 -0.37069,-0.15928 -0.41196,-0.37148 -0.0508,-0.26538 0.16483,-0.48895 0.35507,-0.63659 0.55774,-0.43973 1.38509,-0.82999 2.06031,-0.70485 z"
       fill="url(#paint60_linear_1_6884)"
       id="path1602"
       style="fill:url(#paint60_linear_1_6884);stroke-width:0.264583" />
    <path
       d="m 124.33933,103.43629 c 0.80831,-0.69348 -0.0222,-0.92843 -0.61171,-0.7919 -0.51991,0.12118 -1.03982,0.48895 -1.38854,0.9398 -0.11086,0.14393 -0.20293,0.32596 -0.19341,0.51911 0.0413,0.99669 1.91479,-0.4281 2.19366,-0.66701 z"
       fill="url(#paint61_linear_1_6884)"
       id="path1604"
       style="fill:url(#paint61_linear_1_6884);stroke-width:0.264583" />
    <path
       d="m 134.87954,98.775121 c 0.13309,-0.147902 0.26617,-0.348721 0.22172,-0.560917 -0.022,-0.102394 -0.0823,-0.185737 -0.15213,-0.246327 -0.34873,-0.31459 -0.83688,-0.140229 -1.24249,0.04551 -0.44714,0.204523 -2.22223,0.810948 -1.06521,1.546225 0.67522,0.428096 1.74043,-0.238918 2.23811,-0.784489 z"
       fill="url(#paint62_linear_1_6884)"
       id="path1606"
       style="fill:url(#paint62_linear_1_6884);stroke-width:0.264583" />
    <path
       d="m 144.37993,96.425356 c 0.11721,-0.04921 0.23469,-0.109802 0.32015,-0.219604 0.0857,-0.110067 0.12673,-0.280458 0.0667,-0.413015 -0.0699,-0.159279 -0.24421,-0.19341 -0.39634,-0.208491 -0.31697,-0.03043 -0.63394,-0.06456 -0.95409,-0.09472 -0.43127,-0.0418 -1.76583,0.208227 -1.06204,0.996685 0.46593,0.519113 1.5248,0.155311 2.02565,-0.06085 z"
       fill="url(#paint63_linear_1_6884)"
       id="path1608"
       style="fill:url(#paint63_linear_1_6884);stroke-width:0.264583" />
    <path
       d="m 129.73472,96.387785 c 0.01,-0.05318 0.006,-0.110066 -0.006,-0.170656 -0.0537,-0.246327 -0.29792,-0.428096 -0.55139,-0.45085 -0.56436,-0.04948 -2.83713,0.788194 -1.601,1.394354 0.57071,0.280459 2.05105,-0.02646 2.15874,-0.772848 z"
       fill="url(#paint64_linear_1_6884)"
       id="path1610"
       style="fill:url(#paint64_linear_1_6884);stroke-width:0.264583" />
    <path
       d="m 138.44903,93.844875 c 0.0474,-0.04921 0.095,-0.110067 0.095,-0.185738 0,-0.136525 -0.14579,-0.19341 -0.25665,-0.200818 -0.68156,-0.05318 -1.49939,0.140229 -2.0447,0.663046 0.40243,0.761735 1.77509,0.182033 2.20636,-0.27649 z"
       fill="url(#paint65_linear_1_6884)"
       id="path1612"
       style="fill:url(#paint65_linear_1_6884);stroke-width:0.264583" />
    <path
       d="m 133.23436,92.802681 c 0.0601,0.01138 0.12674,0.03016 0.16801,0.07567 0.0664,0.07197 0.0569,0.197115 0.003,0.280458 -0.054,0.08334 -0.14288,0.136525 -0.22834,0.185738 -0.47228,0.253735 -1.00489,0.393964 -1.53749,0.401637 -0.0855,0 -0.17754,-0.0037 -0.24395,-0.05688 -0.56435,-0.454819 1.54358,-0.947473 1.83859,-0.886619 z"
       fill="url(#paint66_linear_1_6884)"
       id="path1614"
       style="fill:url(#paint66_linear_1_6884);stroke-width:0.264583" />
    <path
       d="m 142.37042,90.039902 h -0.16801 c 0.041,0 0.0791,-0.0037 0.12039,-0.0074 0.0159,0.0037 0.0317,0.0074 0.0476,0.0074 z"
       fill="url(#paint67_linear_1_6884)"
       id="path1616"
       style="fill:url(#paint67_linear_1_6884);stroke-width:0.264583" />
    <path
       d="m 152.9011,113.80478 c -0.16166,0.57229 -0.12038,1.48537 -0.41222,1.94416 -0.45323,0.71622 -1.17289,0.89032 -1.72111,1.44753 -0.44397,0.45085 -0.65617,1.20518 -0.53578,1.88727 0.01,0.0492 0.96679,-0.54186 1.04616,-0.60642 0.3138,-0.25003 0.48498,-0.48895 0.67522,-0.85646 0.43418,-0.84137 0.98266,-1.63697 1.54675,-2.36855 0.71014,-0.92075 0.75142,-1.7772 0.18389,-2.87999 -0.3646,0.35984 -0.6149,0.86784 -0.77656,1.39833 0,0.0114 -0.003,0.0228 -0.006,0.0341 z"
       fill="url(#paint68_linear_1_6884)"
       id="path1618"
       style="fill:url(#paint68_linear_1_6884);stroke-width:0.264583" />
    <path
       d="m 141.08005,125.511 c 0.27279,0.0341 0.54531,0.0569 0.79878,0.0646 0.6342,0.0188 1.2872,-0.11748 1.82906,-0.508 0.25056,-0.18177 0.47255,-0.41301 0.69109,-0.64029 0.6657,-0.69347 1.99708,-2.30029 0.3519,-2.42544 -0.83688,-0.0606 -1.7055,0.15928 -2.52016,0.36751 -0.79877,0.20479 -1.58485,0.46619 -2.35849,0.78078 -0.51964,0.2122 -1.29964,0.33338 -1.01098,1.18984 0.31698,0.93239 1.51183,1.08002 2.2188,1.17104 z"
       fill="url(#paint69_linear_1_6884)"
       id="path1620"
       style="fill:url(#paint69_linear_1_6884);stroke-width:0.264583" />
    <path
       d="m 129.96305,126.47752 c 0.27252,-0.18203 0.51038,-0.5117 0.48816,-0.88317 -0.0286,-0.48128 -0.45006,-0.77312 -0.82735,-0.95489 -0.61807,-0.2995 -3.41419,-1.04589 -2.92921,0.75804 0.16802,0.6215 0.77682,1.11416 1.22688,1.4097 0.66569,0.43206 1.40123,0.0947 2.04152,-0.32968 z"
       fill="url(#paint70_linear_1_6884)"
       id="path1622"
       style="fill:url(#paint70_linear_1_6884);stroke-width:0.264583" />
  </g>
</svg>
