<?xml version="1.0" encoding="UTF-8" standalone="no"?>
<!-- Created with Inkscape (http://www.inkscape.org/) -->

<svg
   width="41.539707mm"
   height="41.804108mm"
   viewBox="0 0 41.539707 41.804108"
   version="1.1"
   id="svg2679"
   xmlns="http://www.w3.org/2000/svg"
   xmlns:svg="http://www.w3.org/2000/svg">
  <defs
     id="defs2676">
    <linearGradient
       id="paint71_linear_1_6884"
       x1="361.03699"
       y1="153.776"
       x2="550.14502"
       y2="366.04901"
       gradientUnits="userSpaceOnUse"
       gradientTransform="matrix(0.26458333,0,0,0.26458333,19.460614,64.908293)">
      <stop
         stop-color="#FFD061"
         id="stop2335" />
      <stop
         offset="1"
         stop-color="#CC5327"
         id="stop2337" />
    </linearGradient>
    <linearGradient
       id="paint72_linear_1_6884"
       x1="343.50601"
       y1="148.81799"
       x2="442.017"
       y2="272.00601"
       gradientUnits="userSpaceOnUse"
       gradientTransform="matrix(0.26458333,0,0,0.26458333,19.460614,64.908293)">
      <stop
         stop-color="#611111"
         id="stop2340" />
      <stop
         offset="1"
         stop-color="#310736"
         id="stop2342" />
    </linearGradient>
    <linearGradient
       id="paint73_linear_1_6884"
       x1="380.091"
       y1="119.561"
       x2="478.60199"
       y2="242.74899"
       gradientUnits="userSpaceOnUse"
       gradientTransform="matrix(0.26458333,0,0,0.26458333,19.460614,64.908293)">
      <stop
         stop-color="#611111"
         id="stop2345" />
      <stop
         offset="1"
         stop-color="#310736"
         id="stop2347" />
    </linearGradient>
    <linearGradient
       id="paint74_linear_1_6884"
       x1="386.63"
       y1="114.332"
       x2="485.142"
       y2="237.52"
       gradientUnits="userSpaceOnUse"
       gradientTransform="matrix(0.26458333,0,0,0.26458333,19.460614,64.908293)">
      <stop
         stop-color="#611111"
         id="stop2350" />
      <stop
         offset="1"
         stop-color="#310736"
         id="stop2352" />
    </linearGradient>
    <linearGradient
       id="paint75_linear_1_6884"
       x1="334.84299"
       y1="155.746"
       x2="433.354"
       y2="278.93301"
       gradientUnits="userSpaceOnUse"
       gradientTransform="matrix(0.26458333,0,0,0.26458333,19.460614,64.908293)">
      <stop
         stop-color="#611111"
         id="stop2355" />
      <stop
         offset="1"
         stop-color="#310736"
         id="stop2357" />
    </linearGradient>
    <linearGradient
       id="paint76_linear_1_6884"
       x1="360.25601"
       y1="147.272"
       x2="491.17401"
       y2="305.44601"
       gradientUnits="userSpaceOnUse"
       gradientTransform="matrix(0.26458333,0,0,0.26458333,19.460614,64.908293)">
      <stop
         stop-color="#FFD061"
         id="stop2360" />
      <stop
         offset="1"
         stop-color="#CC5327"
         id="stop2362" />
    </linearGradient>
  </defs>
  <g
     id="layer1"
     transform="translate(-103.06886,-100.09795)">
    <path
       d="m 130.9518,105.04347 c -0.73925,-0.42228 -1.92352,0.0836 -2.65986,0.30347 -1.3245,0.39767 -2.65721,0.80249 -3.89493,1.51421 -0.98266,0.56859 -2.19498,1.4478 -2.76913,2.64452 -0.42545,0.88265 -0.25188,2.22567 -0.0222,3.18505 1.56501,-0.61039 3.25068,-0.80222 4.77097,-0.62442 0.0251,0.003 0.0532,0.007 0.0786,0.0106 -0.0672,-0.83397 0.18177,-1.8632 0.46752,-2.35162 0.17648,-0.30004 0.40878,-0.54081 0.64109,-0.77788 0.77575,-0.79904 1.5568,-1.60125 2.40797,-2.27462 0.26326,-0.20584 1.87034,-1.12342 0.98002,-1.6293 z m -11.61151,19.97657 c 0.0757,0.13255 0.15955,0.25823 0.27173,0.34184 -1.05833,-0.25109 -1.2573,0.35586 -1.55416,1.51765 -0.31353,1.21417 -0.54028,2.45613 -0.76703,3.69808 -0.14288,0.7956 -0.2241,1.59438 0.19606,2.28521 0.14816,0.24421 0.37226,0.43259 0.61859,0.44291 0.24659,0.0106 0.4789,-0.16034 0.644,-0.38365 0.24077,-0.32781 0.381,-0.77099 0.56859,-1.14776 0.57097,-1.13374 1.00224,-2.35505 1.47267,-3.55494 0.322,-0.82709 0.7448,-1.5875 1.04722,-2.41776 0.0421,-0.1151 0.0839,-0.22331 0.12885,-0.32465 -0.89323,-0.007 -1.78091,-0.15345 -2.62652,-0.45693 z m 11.61151,-19.97657 c -0.73925,-0.42228 -1.92352,0.0836 -2.65986,0.30347 -1.3245,0.39767 -2.65721,0.80249 -3.89493,1.51421 -0.98266,0.56859 -2.19498,1.4478 -2.76913,2.64452 -0.42545,0.88265 -0.25188,2.22567 -0.0222,3.18505 1.56501,-0.61039 3.25068,-0.80222 4.77097,-0.62442 0.0251,0.003 0.0532,0.007 0.0786,0.0106 -0.0672,-0.83397 0.18177,-1.8632 0.46752,-2.35162 0.17648,-0.30004 0.40878,-0.54081 0.64109,-0.77788 0.77575,-0.79904 1.5568,-1.60125 2.40797,-2.27462 0.26326,-0.20584 1.87034,-1.12342 0.98002,-1.6293 z m -11.61151,19.97657 c 0.0757,0.13255 0.15955,0.25823 0.27173,0.34184 -1.05833,-0.25109 -1.2573,0.35586 -1.55416,1.51765 -0.31353,1.21417 -0.54028,2.45613 -0.76703,3.69808 -0.14288,0.7956 -0.2241,1.59438 0.19606,2.28521 0.14816,0.24421 0.37226,0.43259 0.61859,0.44291 0.24659,0.0106 0.4789,-0.16034 0.644,-0.38365 0.24077,-0.32781 0.381,-0.77099 0.56859,-1.14776 0.57097,-1.13374 1.00224,-2.35505 1.47267,-3.55494 0.322,-0.82709 0.7448,-1.5875 1.04722,-2.41776 0.0421,-0.1151 0.0839,-0.22331 0.12885,-0.32465 -0.89323,-0.007 -1.78091,-0.15345 -2.62652,-0.45693 z m 24.8666,-9.83827 c -0.36671,-1.66423 -0.92683,-3.26549 -1.63803,-4.75879 -1.13665,-2.38972 -2.66833,-4.5003 -4.44342,-6.15051 -3.87535,-3.60045 -9.46388,-4.50744 -14.16526,-4.07485 -4.97813,0.46038 -9.79964,2.63737 -13.98852,5.99017 -2.50322,2.00607 -4.29233,4.81806 -5.42078,8.0346 -1.11152,3.16786 -1.58195,6.72624 -1.46447,10.28145 0.12065,3.57584 1.45044,6.7646 3.37397,9.34614 1.67454,2.25398 3.80523,4.04362 5.98355,5.22631 0.33893,0.18495 0.68051,0.35931 1.02764,0.52679 8.95985,4.30159 20.48192,2.86438 26.85732,-6.84848 3.06044,-4.66434 5.20806,-11.53027 3.878,-17.57283 z m -28.20961,4.48998 c 0.13706,-1.04299 0.50668,-2.09682 1.01918,-3.0353 0.812,-1.48616 1.99072,-2.59212 3.32898,-3.3491 0.40614,-0.23362 0.82894,-0.43259 1.26021,-0.59663 1.56501,-0.61039 3.25068,-0.80222 4.77097,-0.62442 0.0251,0.003 0.0532,0.007 0.0786,0.0106 0.35825,0.0452 0.7194,0.13255 1.06945,0.2614 1.24883,0.44318 2.38839,1.38166 2.98212,2.77019 0.0614,0.13944 0.11747,0.28258 0.1651,0.4326 0.0561,0.17092 0.10345,0.34184 0.14287,0.51646 0.1315,0.57891 0.17066,1.15808 0.1315,1.72694 -0.1569,2.30584 -1.5793,4.44447 -3.12208,5.6552 -1.1983,0.94192 -2.60377,1.58036 -4.05712,1.86637 -0.59638,0.1188 -1.20121,0.17807 -1.80023,0.17092 -0.89323,-0.007 -1.78091,-0.15345 -2.62652,-0.45693 -0.45905,-0.1569 -0.90699,-0.36619 -1.33561,-0.62098 -0.0532,-0.0315 -0.10637,-0.0664 -0.15955,-0.10107 -0.49265,-0.3175 -0.87921,-0.70485 -1.17025,-1.13744 -0.39767,-0.58606 -0.61886,-1.25942 -0.70009,-1.97115 -0.0561,-0.49186 -0.0447,-1.00462 0.0225,-1.51765 z m 3.34301,5.34829 c 0.0757,0.13255 0.15955,0.25823 0.27173,0.34184 -1.05833,-0.25109 -1.2573,0.35586 -1.55416,1.51765 -0.31353,1.21417 -0.54028,2.45613 -0.76703,3.69808 -0.14288,0.7956 -0.2241,1.59438 0.19606,2.28521 0.14816,0.24421 0.37226,0.43259 0.61859,0.44291 0.24659,0.0106 0.4789,-0.16034 0.644,-0.38365 0.24077,-0.32781 0.381,-0.77099 0.56859,-1.14776 0.57097,-1.13374 1.00224,-2.35505 1.47267,-3.55494 0.322,-0.82709 0.7448,-1.5875 1.04722,-2.41776 0.0421,-0.1151 0.0839,-0.22331 0.12885,-0.32465 -0.89323,-0.007 -1.78091,-0.15345 -2.62652,-0.45693 z m 11.61151,-19.97657 c -0.73925,-0.42228 -1.92352,0.0836 -2.65986,0.30347 -1.3245,0.39767 -2.65721,0.80249 -3.89493,1.51421 -0.98266,0.56859 -2.19498,1.4478 -2.76913,2.64452 -0.42545,0.88265 -0.25188,2.22567 -0.0222,3.18505 1.56501,-0.61039 3.25068,-0.80222 4.77097,-0.62442 0.0251,0.003 0.0532,0.007 0.0786,0.0106 -0.0672,-0.83397 0.18177,-1.8632 0.46752,-2.35162 0.17648,-0.30004 0.40878,-0.54081 0.64109,-0.77788 0.77575,-0.79904 1.5568,-1.60125 2.40797,-2.27462 0.26326,-0.20584 1.87034,-1.12342 0.98002,-1.6293 z m -11.61151,19.97657 c 0.0757,0.13255 0.15955,0.25823 0.27173,0.34184 -1.05833,-0.25109 -1.2573,0.35586 -1.55416,1.51765 -0.31353,1.21417 -0.54028,2.45613 -0.76703,3.69808 -0.14288,0.7956 -0.2241,1.59438 0.19606,2.28521 0.14816,0.24421 0.37226,0.43259 0.61859,0.44291 0.24659,0.0106 0.4789,-0.16034 0.644,-0.38365 0.24077,-0.32781 0.381,-0.77099 0.56859,-1.14776 0.57097,-1.13374 1.00224,-2.35505 1.47267,-3.55494 0.322,-0.82709 0.7448,-1.5875 1.04722,-2.41776 0.0421,-0.1151 0.0839,-0.22331 0.12885,-0.32465 -0.89323,-0.007 -1.78091,-0.15345 -2.62652,-0.45693 z m 11.61151,-19.97657 c -0.73925,-0.42228 -1.92352,0.0836 -2.65986,0.30347 -1.3245,0.39767 -2.65721,0.80249 -3.89493,1.51421 -0.98266,0.56859 -2.19498,1.4478 -2.76913,2.64452 -0.42545,0.88265 -0.25188,2.22567 -0.0222,3.18505 1.56501,-0.61039 3.25068,-0.80222 4.77097,-0.62442 0.0251,0.003 0.0532,0.007 0.0786,0.0106 -0.0672,-0.83397 0.18177,-1.8632 0.46752,-2.35162 0.17648,-0.30004 0.40878,-0.54081 0.64109,-0.77788 0.77575,-0.79904 1.5568,-1.60125 2.40797,-2.27462 0.26326,-0.20584 1.87034,-1.12342 0.98002,-1.6293 z"
       fill="url(#paint71_linear_1_6884)"
       id="path1628"
       style="fill:url(#paint71_linear_1_6884);stroke-width:0.264583" />
    <path
       d="m 121.58872,103.20832 c -0.84005,1.92934 -2.34077,2.99349 -3.65389,4.368 -1.41394,1.48273 -2.69346,3.1713 -3.78831,5.02365 -1.13956,1.92934 -2.09444,4.03675 -2.81966,6.25554 -0.33602,1.02923 -0.66913,2.06878 -0.90435,3.14325 -0.11192,0.49901 -0.73925,2.47703 0.16801,2.28521 0.24633,-0.0558 0.44238,-0.28258 0.60484,-0.51647 0.29395,-0.43259 0.56832,-0.86863 0.86228,-1.30122 0.6551,-0.96626 1.30201,-2.26774 2.1029,-3.04218 0.6522,-0.63156 1.3634,-0.41169 1.83674,0.24765 -0.0672,0.51303 -0.0783,1.02579 -0.0225,1.51765 -0.42545,-0.003 -1.03584,-0.19182 -1.37186,-0.0106 -0.43974,0.24447 -0.78132,0.68738 -1.11178,1.12342 -0.62442,0.82338 -1.25148,1.64333 -1.8759,2.46671 -0.36671,0.48128 -1.03584,1.76874 -1.6547,1.74096 -1.04722,-0.049 -0.78132,-3.28666 -0.68316,-4.13438 0.38074,-3.28983 1.76398,-6.35291 3.17791,-9.11596 1.00516,-1.96426 2.18943,-3.79597 3.52505,-5.42157 1.01097,-1.2282 2.86993,-2.27833 3.54753,-3.76449 -0.56832,0.30347 -1.17025,0.50244 -1.73037,0.81994 -0.69983,0.39423 -1.37742,0.85116 -2.06058,1.29778 -1.82853,1.18957 -3.55044,3.18188 -4.77414,5.24007 -0.4535,0.76068 -0.89297,1.55602 -1.28217,2.37252 -0.1569,0.32782 -0.63024,1.95368 -0.93821,0.86863 -0.1651,-0.57917 0.4482,-1.905 0.65802,-2.39686 0.34448,-0.7919 0.78131,-1.52453 1.25438,-2.20477 0.87657,-1.27 1.9013,-2.37596 2.95408,-3.41551 2.22038,-2.18414 4.59184,-4.16216 7.46178,-4.57385 0.47889,-0.0662 0.71411,0.6768 0.51805,1.12686 z"
       fill="#470927"
       id="path1630"
       style="stroke-width:0.264583" />
    <path
       d="m 132.41335,105.58772 c -0.37226,1.04325 -1.60443,1.73381 -2.34632,2.25716 -0.77285,0.54424 -1.68566,1.25253 -2.13916,2.2434 -0.21854,0.4744 -0.51514,1.58379 -0.40322,2.25028 -0.35005,-0.12912 -0.7112,-0.21643 -1.06971,-0.26167 -0.0672,-0.83397 0.18203,-1.8632 0.46778,-2.35162 0.17621,-0.30004 0.40878,-0.54054 0.64109,-0.77788 0.77575,-0.79904 1.5568,-1.60125 2.40797,-2.27462 0.26326,-0.20584 1.87034,-1.12342 0.98002,-1.6293 -0.73925,-0.42228 -1.92352,0.0836 -2.65986,0.30347 -1.3245,0.39767 -2.65721,0.80249 -3.89493,1.51421 -0.98266,0.56859 -2.19498,1.4478 -2.76913,2.64452 -0.42545,0.88265 -0.25188,2.22567 -0.0225,3.18505 -0.43101,0.16404 -0.85381,0.36301 -1.25995,0.59663 -0.84825,-2.06533 0.39476,-4.63655 1.74731,-5.85417 1.94046,-1.75127 4.65905,-2.91994 6.99717,-3.44672 0.87075,-0.19897 4.19153,-0.82683 3.32343,1.60126 z"
       fill="#470927"
       id="path1632"
       style="stroke-width:0.264583" />
    <path
       d="m 141.70367,118.66713 c -0.57124,0.50932 -1.25439,0.68712 -1.8677,1.1094 -0.63817,0.43603 -1.21496,1.00462 -1.76106,1.60125 -1.06971,1.16867 -2.02168,2.48418 -3.0017,3.76794 -1.11151,1.45467 -2.18387,3.00037 -3.35703,4.37832 -0.7448,0.87577 -1.57083,1.52453 -2.6125,1.5457 -0.28839,0.007 -0.5879,-0.32809 -0.56541,-0.70141 0.37782,-6.06346 3.76026,-10.9093 6.61352,-15.50062 0.86519,-1.39197 1.78911,-2.735 2.45825,-4.29101 0.44529,-1.03611 1.31339,-3.30041 -0.40588,-2.12117 -1.28243,0.87921 -2.36325,2.12805 -3.51128,3.24459 -0.69718,0.68024 -1.41102,1.38853 -1.91797,2.30611 -0.25188,0.45693 -0.44793,0.96282 -0.54583,1.50362 -0.10663,0.58262 -0.0505,1.19645 -0.31644,1.72324 0.0447,-0.40799 -0.008,-0.78132 -0.0953,-1.17555 -0.0392,-0.17436 -0.0868,-0.34554 -0.14288,-0.51646 -0.0476,-0.15002 -0.10345,-0.2929 -0.1651,-0.4326 0.20162,-0.79878 0.52917,-1.54887 0.96309,-2.18731 0.99139,-1.47584 2.08597,-2.99349 3.35729,-4.07485 0.94351,-0.79904 2.48365,-2.51195 3.69597,-2.37252 2.30981,0.26512 0.0839,4.77626 -0.51806,5.80549 -1.50627,2.57122 -3.17526,4.98872 -4.66751,7.57053 -1.49251,2.58524 -2.81675,5.36575 -3.52795,8.42539 -0.15955,0.68712 -0.0868,1.37107 0.53763,1.14432 0.46461,-0.16748 0.93795,-0.83397 1.27106,-1.24566 0.72813,-0.90011 1.31312,-1.95024 2.0103,-2.88502 0.97182,-1.30836 1.95739,-2.59926 2.9038,-3.93541 1.21788,-1.72349 2.97339,-4.40637 5.02867,-4.0296 0.55431,0.10133 0.49848,1.02579 0.13997,1.34329 z"
       fill="#470927"
       id="path1634"
       style="stroke-width:0.264583" />
    <path
       d="m 123.92658,125.55741 c -0.51779,0.17436 -0.98822,0.56515 -1.31868,1.09193 -0.18759,0.30348 -0.33047,0.64188 -0.47043,0.98028 -0.55986,1.35017 -1.05834,2.75617 -1.66026,4.07141 -0.52652,1.14776 -1.49516,3.39805 -2.80009,3.19564 -1.42504,-0.21617 -1.51474,-2.58154 -1.3245,-3.94573 0.22145,-1.59782 0.39211,-3.23056 0.84296,-4.76224 0.12038,-0.41169 0.3556,-1.36736 0.64955,-1.89071 0.0757,-0.1397 0.15399,-0.24791 0.23813,-0.30718 0.30797,-0.22331 0.6215,0.063 0.83423,0.3384 0.0728,0.0942 0.40878,0.89667 0.54319,0.81651 -0.32756,0.19182 -0.70565,0.15345 -0.96044,0.50932 -0.23786,0.33152 -0.33602,0.8128 -0.44238,1.22449 -0.31353,1.21417 -0.54028,2.45613 -0.76703,3.69808 -0.14288,0.7956 -0.2241,1.59438 0.19579,2.28521 0.14843,0.24421 0.37253,0.43259 0.61886,0.44317 0.24633,0.0103 0.4789,-0.1606 0.644,-0.38391 0.24077,-0.32781 0.38073,-0.77099 0.56832,-1.14776 0.57124,-1.13374 1.00251,-2.35505 1.47294,-3.55494 0.322,-0.82682 0.7448,-1.5875 1.04722,-2.41776 0.0421,-0.1151 0.0839,-0.22331 0.12885,-0.32465 0.12859,-0.30003 0.28258,-0.52308 0.55986,-0.61383 0.0979,-0.0349 0.21008,-0.0524 0.34449,-0.0524 0.33602,0.003 0.66622,0.18839 0.89588,0.4953 0.0616,0.0767 0.11482,0.1606 0.15954,0.25136 z"
       fill="#470927"
       id="path1636"
       style="stroke-width:0.264583" />
    <path
       d="m 116.2325,120.31733 c -0.0169,-0.0979 -0.0505,-0.20955 -0.0982,-0.3384 -0.40879,-1.10966 -1.34118,-1.69227 -2.17541,-0.88635 -0.79798,0.77099 -1.4478,2.07592 -2.10291,3.04218 -0.29395,0.43259 -0.56568,0.86889 -0.86227,1.29804 -0.16246,0.23707 -0.35851,0.46382 -0.60484,0.5162 -0.90726,0.19527 -0.27993,-1.78276 -0.16801,-2.2852 0.23786,-1.07447 0.57123,-2.11402 0.90725,-3.14325 0.72232,-2.2188 1.67984,-4.3262 2.8194,-6.25184 1.09485,-1.85605 2.37438,-3.54118 3.78857,-5.02391 1.31313,-1.37451 2.81094,-2.43866 3.6539,-4.36801 0.19606,-0.45005 -0.0421,-1.19644 -0.51806,-1.12686 -2.86993,0.4117 -5.24166,2.38999 -7.46204,4.57386 -1.05278,1.0361 -2.0746,2.1455 -2.95381,3.41206 -0.47334,0.68369 -0.9099,1.41288 -1.25174,2.20822 -0.21273,0.49212 -0.82312,1.81768 -0.66067,2.39342 0.30798,1.08505 0.78132,-0.54081 0.93795,-0.86863 0.3892,-0.81651 0.82894,-1.61184 1.28244,-2.37252 1.2237,-2.05475 2.9456,-4.0468 4.77387,-5.24007 0.68051,-0.44292 1.35811,-0.90012 2.06084,-1.29778 0.56277,-0.3175 1.16205,-0.51621 1.73038,-0.81995 -0.6776,1.48643 -2.53683,2.5363 -3.54489,3.76449 -1.33535,1.6256 -2.51989,3.46075 -3.52504,5.42158 -1.41394,2.76648 -2.79718,5.82613 -3.17791,9.11596 -0.0982,0.84772 -0.36407,4.08543 0.68315,4.13067 0.61886,0.0281 1.28799,-1.25942 1.65471,-1.74069 0.62441,-0.82339 1.24883,-1.64333 1.87616,-2.46671 0.3302,-0.43604 0.67177,-0.87921 1.11151,-1.12342 0.58235,-0.3138 2.01877,0.50958 1.82563,-0.52309 z"
       fill="url(#paint72_linear_1_6884)"
       id="path1638"
       style="fill:url(#paint72_linear_1_6884);stroke-width:0.264583" />
    <path
       d="m 129.86542,107.50991 c 0.74215,-0.52334 1.97405,-1.21047 2.34632,-2.25372 0.8681,-2.42808 -2.45269,-1.80022 -3.32343,-1.60126 -2.33786,0.52679 -5.05407,1.69545 -6.99717,3.447 -1.38324,1.24539 -2.6543,3.9108 -1.68566,6.00392 0.37253,0.80963 1.45045,0.2757 1.2237,-0.64188 -0.23813,-0.96626 -0.43948,-2.37225 0,-3.28639 0.57388,-1.19671 1.78646,-2.07565 2.76913,-2.64451 1.23772,-0.71517 2.57042,-1.11628 3.89493,-1.51394 0.73342,-0.21987 1.92061,-0.72576 2.65694,-0.30719 0.89059,0.50589 -0.71384,1.42346 -0.98001,1.62931 -0.85381,0.66992 -1.63222,1.47584 -2.41062,2.27462 -0.22966,0.23733 -0.46487,0.4781 -0.64135,0.77814 -0.52917,0.90011 -0.92657,3.61765 0.53499,3.61421 0.0868,0 0.18203,-0.0209 0.24341,-0.10107 0.1233,-0.16404 0.0196,-0.42572 -0.0839,-0.61066 -0.30533,-0.56171 0.0561,-1.9849 0.31088,-2.54317 0.45641,-0.99087 1.36896,-1.69916 2.14181,-2.24341 z"
       fill="url(#paint73_linear_1_6884)"
       id="path1640"
       style="fill:url(#paint73_linear_1_6884);stroke-width:0.264583" />
    <path
       d="m 141.36236,116.98888 c -2.05529,-0.37307 -3.81371,2.3061 -5.03158,4.0296 -0.94351,1.33615 -1.93199,2.62705 -2.90354,3.93541 -0.69453,0.93478 -1.28244,1.98861 -2.01031,2.88872 -0.33046,0.40799 -0.80645,1.07792 -1.27132,1.2454 -0.62442,0.22674 -0.69718,-0.46064 -0.53472,-1.14777 0.7112,-3.0562 2.03544,-5.84014 3.52795,-8.42195 1.49225,-2.58154 3.16124,-4.9993 4.66752,-7.57052 0.60192,-1.02923 2.82786,-5.54011 0.51805,-5.80522 -1.21258,-0.1397 -2.75246,1.57321 -3.69596,2.37225 -1.27397,1.08162 -2.36617,2.599 -3.3573,4.07141 -0.45085,0.66992 -0.78952,1.45124 -0.98822,2.28864 -0.11483,0.48128 -0.18494,0.99431 -0.10927,1.48617 0.0757,0.49186 0.31908,0.96626 0.68871,1.16866 0.1905,-0.61409 0.0476,-1.30836 0.11192,-1.96056 0.18785,-1.88039 1.40864,-3.11891 2.52015,-4.20052 1.14512,-1.11655 2.22885,-2.36538 3.51102,-3.24459 1.71926,-1.17925 0.85117,1.08506 0.40614,2.12117 -0.66913,1.55601 -1.59332,2.8993 -2.45851,4.29127 -2.853,4.59105 -6.23544,9.4369 -6.61353,15.50035 -0.0222,0.37333 0.27729,0.70829 0.56568,0.70485 1.04167,-0.0243 1.8677,-0.66992 2.61515,-1.54543 1.17316,-1.37821 2.24287,-2.92364 3.35729,-4.37859 0.97976,-1.28032 1.93199,-2.599 3.00144,-3.76766 0.5461,-0.59664 1.12289,-1.16523 1.76133,-1.60153 0.61595,-0.42201 1.29619,-0.60007 1.86743,-1.10569 0.35295,-0.32808 0.40878,-1.25254 -0.14552,-1.35387 z"
       fill="url(#paint74_linear_1_6884)"
       id="path1642"
       style="fill:url(#paint74_linear_1_6884);stroke-width:0.264583" />
    <path
       d="m 122.32506,124.52818 c -0.36672,0.12567 -0.51806,0.47096 -0.68871,0.93847 -0.30242,0.83397 -0.72523,1.59094 -1.04722,2.41777 -0.47043,1.20015 -0.9017,2.42464 -1.47003,3.55864 -0.18759,0.37677 -0.33046,0.81624 -0.57124,1.14433 -0.1651,0.22674 -0.39766,0.39423 -0.64399,0.38364 -0.24633,-0.0106 -0.47043,-0.19896 -0.61886,-0.44318 -0.4199,-0.69426 -0.34158,-1.49304 -0.19579,-2.28494 0.22674,-1.24222 0.45349,-2.48417 0.76438,-3.69808 0.29951,-1.16178 0.49556,-1.769 1.5539,-1.52109 -0.17648,-0.13255 -0.28549,-0.36301 -0.40323,-0.57229 -0.2577,-0.46408 -0.69427,-1.11284 -1.12845,-0.79878 -0.3974,0.28946 -0.73342,1.67799 -0.88741,2.1979 -0.45085,1.5314 -0.61886,3.16071 -0.84296,4.76197 -0.19024,1.36419 -0.10081,3.72956 1.3245,3.94599 1.30466,0.1987 2.27357,-2.05158 2.79982,-3.19934 0.60219,-1.31524 1.10041,-2.72124 1.66053,-4.06797 0.13996,-0.3384 0.28284,-0.68024 0.47043,-0.98028 0.3302,-0.52679 0.80063,-0.91757 1.31868,-1.09537 -0.21828,-0.45006 -0.63288,-0.74322 -1.05569,-0.74322 -0.12594,0.007 -0.24077,0.0243 -0.33866,0.0558 z"
       fill="url(#paint75_linear_1_6884)"
       id="path1644"
       style="fill:url(#paint75_linear_1_6884);stroke-width:0.264583" />
    <path
       d="m 130.81448,116.05754 c -0.0392,-0.17462 -0.0868,-0.34554 -0.14261,-0.51646 -0.6776,-2.07222 -2.50614,-3.26893 -4.29525,-3.47478 -3.31523,-0.38735 -7.40039,0.98372 -9.36016,4.57015 -1.13136,2.06904 -1.56528,4.70985 -0.34158,6.5241 -0.0421,-0.0278 -0.0812,-0.0558 -0.12065,-0.0836 -1.20941,-0.86889 -1.86478,-3.3319 -1.719,-5.04481 0.0979,-1.13745 0.49821,-2.19446 0.98557,-3.13981 2.00475,-3.89017 5.656,-6.18226 9.20063,-5.774 1.55389,0.1778 3.11917,0.87577 4.26428,2.2815 0.966,1.18983 1.58221,2.93423 1.52877,4.65772 z"
       fill="#470927"
       id="path1646"
       style="stroke-width:0.264583" />
    <path
       d="m 110.20688,110.13352 c -0.16802,0.23019 -0.34158,0.48498 -0.45641,0.76068 -0.0923,0.2196 -0.15399,0.3347 -0.10081,0.57203 0.008,0.0349 0.1233,-0.0558 0.13177,-0.0661 0.30797,-0.36989 0.64955,-0.82709 0.68871,-1.38853 0.006,-0.0804 -0.24078,0.0905 -0.26326,0.12197 z"
       fill="#ffefde"
       id="path1648"
       style="stroke-width:0.264583" />
    <path
       d="m 118.85875,102.7617 c -0.17092,-0.0384 -0.40058,0.0839 -0.55457,0.15002 -0.30215,0.13256 -0.60748,0.26511 -0.90143,0.42571 -0.0225,0.0138 -0.39767,0.28602 -0.29951,0.30692 0.28257,0.0699 0.62151,-0.11853 0.88186,-0.23019 0.29686,-0.12911 0.64399,-0.3175 0.87365,-0.59319 0.008,-0.0103 0.0307,-0.0524 0,-0.0593 z"
       fill="#ffefde"
       id="path1650"
       style="stroke-width:0.264583" />
    <path
       d="m 111.28479,115.18521 c -0.2548,0.39767 -0.43683,0.78132 -0.61595,1.23852 -0.16246,0.41857 -0.24633,0.83026 -0.35825,1.26973 -0.008,0.0349 0.19024,-0.0558 0.21537,-0.10795 0.36963,-0.80248 0.88212,-1.61184 1.04167,-2.52942 0.0114,-0.0733 -0.25744,0.0873 -0.28284,0.12912 z"
       fill="#ffefde"
       id="path1652"
       style="stroke-width:0.264583" />
    <path
       d="m 122.16287,106.89264 c -0.0786,0.0312 -0.15981,0.0802 -0.22411,0.14631 -0.2323,0.23734 -0.50112,0.47467 -0.60192,0.84085 -0.0225,0.0767 0.12859,0.0175 0.13996,0.014 0.0979,-0.0384 0.20161,-0.10107 0.28284,-0.18494 0.13706,-0.14314 0.26035,-0.28601 0.37783,-0.4535 0.0421,-0.0593 0.0812,-0.11509 0.10371,-0.18838 0.014,-0.0524 0.0225,-0.11165 0.0336,-0.16404 0.0111,-0.0593 -0.0982,-0.014 -0.11192,-0.0103 z"
       fill="#ffefde"
       id="path1654"
       style="stroke-width:0.264583" />
    <path
       d="m 114.27246,119.06136 c -0.0561,0.0243 -0.10927,0.0593 -0.16245,0.0942 0.028,-0.0246 0.0561,-0.049 0.0868,-0.0733 -0.0196,0.0138 -0.0392,0.0243 -0.0587,0.0384 -0.0365,0.0278 -0.0728,0.0558 -0.10636,0.0908 -0.003,0.003 -0.006,0.003 -0.008,0.007 -0.0392,0.0315 -0.0783,0.0627 -0.10346,0.10452 0.008,-0.007 0.0138,-0.0103 0.0222,-0.0172 -0.0222,0.0243 -0.0418,0.0521 -0.0616,0.0836 -0.0278,0.0452 -0.0643,0.0907 -0.0839,0.14314 -0.0169,0.0418 -0.008,0.0767 0,0.11853 0.0111,0.0593 0.17356,-0.0209 0.18468,-0.0243 0.0561,-0.0246 0.11774,-0.063 0.17383,-0.10134 0.006,-0.003 0.0196,-0.0138 0.0532,-0.0418 0.008,-0.007 0.0138,-0.014 0.0222,-0.0243 0.008,-0.007 0.0169,-0.014 0.0251,-0.0209 -0.008,0.007 -0.0138,0.0103 -0.0222,0.0175 0.0196,-0.0175 0.0362,-0.0349 0.0532,-0.0558 0.0336,-0.0384 0.0728,-0.077 0.10345,-0.1188 0.045,-0.0627 0.0672,-0.14287 0.0953,-0.2196 0.0365,-0.10134 -0.20161,-0.004 -0.21273,0 z"
       fill="#ffefde"
       id="path1656"
       style="stroke-width:0.264583" />
    <path
       d="m 117.91525,124.27709 c -0.0114,-0.0839 -0.31645,0.13943 -0.33894,0.17436 -0.27437,0.38735 -0.40878,0.75009 -0.3556,1.26629 0.008,0.0698 0.29131,-0.12541 0.31354,-0.17436 0.15689,-0.37676 0.44238,-0.81994 0.381,-1.26629 z"
       fill="#ffefde"
       id="path1658"
       style="stroke-width:0.264583" />
    <path
       d="m 121.71202,126.29692 c -0.0701,0.0349 -0.17648,0.0907 -0.21564,0.1778 -0.0868,0.19896 -0.21008,0.40137 -0.23521,0.62812 -0.008,0.0661 0.20717,-0.0767 0.22674,-0.10478 0.15399,-0.21987 0.26327,-0.46408 0.38074,-0.71173 0.031,-0.0627 -0.15108,0.007 -0.15663,0.0106 z"
       fill="#ffefde"
       id="path1660"
       style="stroke-width:0.264583" />
    <path
       d="m 129.83473,106.52619 c -0.322,0.21987 -0.56859,0.50933 -0.81201,0.84429 -0.0421,0.0593 0.0222,0.0524 0.0532,0.049 0.0728,-0.014 0.15954,-0.0664 0.21828,-0.12224 0.17092,-0.1569 0.3556,-0.30348 0.51806,-0.47784 0.0728,-0.0802 0.2323,-0.22331 0.22965,-0.36301 -0.006,-0.0487 -0.20452,0.0664 -0.20716,0.0699 z"
       fill="#ffefde"
       id="path1662"
       style="stroke-width:0.264583" />
    <path
       d="m 133.79369,109.56123 c 0.008,-0.007 0.0114,-0.007 0,0 z"
       fill="#ffefde"
       id="path1664"
       style="stroke-width:0.264583" />
    <path
       d="m 133.74077,109.60674 c 0.0278,-0.0243 0.0418,-0.0384 0.0503,-0.0452 -0.0307,0.0278 -0.1233,0.10795 -0.12885,0.11139 -0.0614,0.0558 -0.12303,0.10822 -0.18468,0.16748 -0.1233,0.1188 -0.24077,0.24421 -0.35005,0.38391 -0.0757,0.0976 -0.17065,0.19871 -0.2241,0.3175 -0.0418,0.0976 -0.0643,0.19871 -0.11192,0.2966 -0.0421,0.0836 0.16537,0.0138 0.16246,0.0172 0.11483,-0.0452 0.23521,-0.11853 0.32755,-0.21617 0.21564,-0.2233 0.4453,-0.41513 0.64109,-0.66992 0.11774,-0.15346 0.24368,-0.30692 0.27172,-0.51964 0.0251,-0.15002 -0.41433,0.12541 -0.45349,0.1569 z"
       fill="#ffefde"
       id="path1666"
       style="stroke-width:0.264583" />
    <path
       d="m 130.11201,123.32432 c -0.24924,0.47123 -0.51515,1.05728 -0.49848,1.64333 0,0.0489 0.22675,-0.0942 0.24633,-0.12568 0.27437,-0.49186 0.53499,-1.07447 0.5461,-1.68142 0.003,-0.0593 -0.27173,0.11853 -0.29395,0.16377 z"
       fill="#ffefde"
       id="path1668"
       style="stroke-width:0.264583" />
    <path
       d="m 139.55869,117.74241 c -0.23786,0.16404 -0.49265,0.3384 -0.64664,0.62468 -0.0225,0.0418 0.0617,0.0243 0.0643,0.0243 0.0617,-0.014 0.12621,-0.0524 0.17648,-0.0907 0.21273,-0.1569 0.4789,-0.32438 0.59373,-0.61039 0.0222,-0.0524 -0.17648,0.0452 -0.18786,0.0521 z"
       fill="#ffefde"
       id="path1670"
       style="stroke-width:0.264583" />
    <path
       d="m 140.32889,132.7546 c -6.3754,9.71286 -17.89747,11.15007 -26.85732,6.84848 -0.34713,-0.16748 -0.68871,-0.34184 -1.02764,-0.52679 -2.17832,-1.18269 -4.30901,-2.97233 -5.98355,-5.22631 1.92934,1.29434 4.28413,2.07592 5.99201,2.62361 7.81183,2.50163 16.03825,4.19708 22.8981,-2.44211 1.90395,-1.83859 3.52796,-4.25265 4.77679,-6.97045 2.1336,-4.6437 3.16971,-10.18381 2.61805,-15.30164 -0.0476,-0.42916 -0.10636,-0.87577 -0.17647,-1.33641 0.7112,1.4933 1.27132,3.09456 1.63803,4.75879 1.33006,6.04256 -0.81756,12.90849 -3.878,17.57283 z"
       fill="url(#paint76_linear_1_6884)"
       id="path1672"
       style="fill:url(#paint76_linear_1_6884);stroke-width:0.264583" />
  </g>
</svg>
