<?xml version="1.0" encoding="UTF-8" standalone="no"?>
<!-- Created with Inkscape (http://www.inkscape.org/) -->

<svg
   width="41.539997mm"
   height="41.804588mm"
   viewBox="0 0 41.539997 41.804588"
   version="1.1"
   id="svg6095"
   xmlns="http://www.w3.org/2000/svg"
   xmlns:svg="http://www.w3.org/2000/svg">
  <defs
     id="defs6092">
    <linearGradient
       id="paint105_linear_1_1020"
       x1="764.30402"
       y1="250.40601"
       x2="871.53802"
       y2="417.716"
       gradientUnits="userSpaceOnUse"
       gradientTransform="matrix(0.26458333,0,0,0.26458333,-87.225852,46.178541)">
      <stop
         stop-color="#FFEAAD"
         id="stop5848" />
      <stop
         offset="0.5342"
         stop-color="#FBB481"
         id="stop5850" />
      <stop
         offset="1"
         stop-color="#F78157"
         id="stop5852" />
    </linearGradient>
    <linearGradient
       id="paint104_linear_1_1020"
       x1="766.99298"
       y1="248.75"
       x2="874.16199"
       y2="415.95801"
       gradientUnits="userSpaceOnUse"
       gradientTransform="matrix(0.26458333,0,0,0.26458333,-87.225852,46.178541)">
      <stop
         stop-color="#FFEAAD"
         id="stop5841" />
      <stop
         offset="0.5342"
         stop-color="#FBB481"
         id="stop5843" />
      <stop
         offset="1"
         stop-color="#F78157"
         id="stop5845" />
    </linearGradient>
    <linearGradient
       id="paint103_linear_1_1020"
       x1="819.29999"
       y1="215.22501"
       x2="926.46802"
       y2="382.43301"
       gradientUnits="userSpaceOnUse"
       gradientTransform="matrix(0.26458333,0,0,0.26458333,-87.225852,46.178541)">
      <stop
         stop-color="#FFEAAD"
         id="stop5834" />
      <stop
         offset="0.5342"
         stop-color="#FBB481"
         id="stop5836" />
      <stop
         offset="1"
         stop-color="#F78157"
         id="stop5838" />
    </linearGradient>
    <linearGradient
       id="paint102_linear_1_1020"
       x1="794.67401"
       y1="231.008"
       x2="901.84198"
       y2="398.216"
       gradientUnits="userSpaceOnUse"
       gradientTransform="matrix(0.26458333,0,0,0.26458333,-87.225852,46.178541)">
      <stop
         stop-color="#FFEAAD"
         id="stop5827" />
      <stop
         offset="0.5342"
         stop-color="#FBB481"
         id="stop5829" />
      <stop
         offset="1"
         stop-color="#F78157"
         id="stop5831" />
    </linearGradient>
    <linearGradient
       id="paint101_linear_1_1020"
       x1="795.75702"
       y1="230.314"
       x2="902.92603"
       y2="397.522"
       gradientUnits="userSpaceOnUse"
       gradientTransform="matrix(0.26458333,0,0,0.26458333,-87.225852,46.178541)">
      <stop
         stop-color="#FFEAAD"
         id="stop5820" />
      <stop
         offset="0.5342"
         stop-color="#FBB481"
         id="stop5822" />
      <stop
         offset="1"
         stop-color="#F78157"
         id="stop5824" />
    </linearGradient>
    <linearGradient
       id="paint100_linear_1_1020"
       x1="724.83502"
       y1="196.403"
       x2="887.81403"
       y2="296.37701"
       gradientUnits="userSpaceOnUse"
       gradientTransform="matrix(0.26458333,0,0,0.26458333,-87.225852,46.178541)">
      <stop
         stop-color="#99553C"
         id="stop5815" />
      <stop
         offset="1"
         id="stop5817" />
    </linearGradient>
    <linearGradient
       id="paint99_linear_1_1020"
       x1="802.328"
       y1="258.46201"
       x2="874.06201"
       y2="478.73401"
       gradientUnits="userSpaceOnUse"
       gradientTransform="matrix(0.26458333,0,0,0.26458333,-87.225852,46.178541)">
      <stop
         stop-color="#8F3333"
         id="stop5810" />
      <stop
         offset="1"
         stop-color="#4C0D43"
         id="stop5812" />
    </linearGradient>
  </defs>
  <g
     id="layer1"
     transform="translate(-108.03627,-109.67863)">
    <path
       d="m 148.70072,137.72543 c -1.77032,1.8632 -4.27222,1.77588 -6.3836,2.10608 -1.2872,0.19738 -2.58022,0.35666 -3.87588,0.4744 -0.0839,0.007 -0.24897,0.007 -0.46302,0.004 -0.26591,-0.004 -0.61304,-0.0114 -0.97764,-0.0151 -0.99483,-0.0114 -2.14312,0.0114 -2.26748,0.254 -0.42518,0.83502 -0.86201,1.6584 -1.31339,2.47041 l -0.003,0.004 c -0.15346,0.2847 -0.31539,0.56542 -0.47731,0.84614 -0.13309,0.23919 -0.26908,0.4707 -0.40799,0.70591 -0.16192,0.28072 -0.32676,0.55774 -0.49742,0.83476 -0.49741,0.82735 -1.00647,1.64306 -1.53008,2.44369 -0.76941,1.17634 -1.62269,2.36405 -2.68711,3.08875 -1.27265,0.86915 -2.08836,0.68315 -3.16733,-0.50456 -2.23573,-2.47042 -3.90472,-5.82084 -5.32209,-9.25883 -0.13309,-0.31882 -0.26326,-0.64506 -0.39053,-0.96758 -0.23415,-0.5805 -0.45693,-1.16496 -0.67971,-1.74175 -1.79335,-0.34158 -3.57214,-0.79296 -5.33056,-1.3507 -1.5793,-0.50112 -3.27739,-0.77814 -4.43706,-2.37173 -0.20558,-0.28072 -0.40217,-0.60325 -0.44556,-0.99033 -0.0318,-0.31115 0.0405,-0.6223 0.11562,-0.91837 0.0405,-0.15558 0.0839,-0.31486 0.13018,-0.47043 0.15637,-0.54266 0.34131,-1.07765 0.54689,-1.59756 1.7526,-4.45478 5.12233,-8.04068 8.26373,-10.85241 0.008,-0.008 0.0201,-0.019 0.0259,-0.0267 0.023,-0.26168 0.0492,-0.52732 0.081,-0.79296 0.29792,-2.60694 0.9951,-5.36548 1.80208,-7.71816 0.16775,-0.48948 0.35851,-0.9943 0.68845,-1.31286 0.49741,-0.47837 1.17713,-0.41751 1.79043,-0.30745 3.11203,0.56912 6.13754,1.92379 8.86513,3.96902 2.87232,-1.54438 6.07721,-2.04153 9.16331,-2.39819 1.21788,-0.14023 2.44423,-0.27701 3.65919,-0.10239 0.22834,0.0341 0.47123,0.0836 0.64479,0.28072 0.003,0.004 0.009,0.008 0.0116,0.0114 0.0638,0.0722 0.10981,0.15187 0.15055,0.24686 0.0693,0.1516 0.11271,0.32252 0.15028,0.48948 0.95171,4.0714 0.3355,8.4619 -0.50905,12.58279 -0.0288,0.14419 -0.0638,0.2958 -0.0926,0.44 0.0492,0.0495 0.0984,0.0987 0.15055,0.14816 0.0982,0.0987 0.19659,0.20109 0.29792,0.30718 1.23508,1.30175 2.64081,3.08505 3.57214,4.59529 0.57547,0.93742 1.32186,2.17805 1.72667,3.44567 0.44847,1.40017 0.48313,2.83818 -0.57838,3.94996 z"
       fill="url(#paint99_linear_1_1020)"
       id="path4469"
       style="fill:url(#paint99_linear_1_1020);stroke-width:0.264583" />
    <path
       d="m 148.70072,137.7257 c -1.77032,1.86293 -4.27222,1.77561 -6.3836,2.10581 -1.2872,0.19738 -2.58022,0.35666 -3.87588,0.4744 -0.48022,0.0455 -3.49991,-0.16325 -3.70814,0.24659 -1.29593,2.54239 -2.70748,4.98237 -4.22301,7.30092 -0.76941,1.17607 -1.62269,2.36378 -2.68711,3.08874 -1.27265,0.86889 -2.08836,0.68289 -3.16733,-0.50482 -2.82575,-3.11521 -4.74054,-7.63852 -6.39233,-11.96816 -1.79335,-0.34132 -3.57214,-0.79296 -5.33082,-1.3507 -1.57904,-0.50086 -3.27713,-0.77788 -4.4368,-2.37173 -0.20558,-0.28072 -0.40217,-0.60325 -0.44556,-0.99033 -0.0318,-0.31115 0.0405,-0.6223 0.11562,-0.91837 0.0405,-0.15558 0.0839,-0.31486 0.13018,-0.47043 0.15637,0.31882 0.39343,0.58049 0.65087,0.75882 0.40773,0.27702 0.86784,0.37571 1.31895,0.46302 2.2561,0.42493 4.54395,0.59188 6.82043,0.47811 1.39409,-0.0683 2.41221,-0.21246 3.03424,1.61263 1.28429,3.78328 2.50481,8.17351 4.9575,10.84871 2.20424,2.40215 4.47463,-0.812 5.93831,-2.95592 0.76649,-1.12316 1.4896,-2.35638 2.14339,-3.60098 0.68553,-1.29778 1.55892,-2.42491 2.42675,-3.50996 0.56119,-0.70221 1.57639,-0.49345 2.30823,-0.53499 0.97764,-0.0532 1.96374,-0.0685 2.94428,-0.0685 1.96401,0 3.92801,0.0685 5.89492,0.0646 0.48022,0 0.97472,-0.0114 1.42028,-0.2503 0.59293,-0.31882 1.00939,-1.07024 1.13083,-1.88991 0.44265,1.39276 0.47731,2.83077 -0.5842,3.94282 z"
       fill="#490828"
       id="path4471"
       style="stroke-width:0.264583" />
    <path
       d="m 143.53764,125.28314 c 0.0492,0.0495 0.0984,0.0987 0.15029,0.14816 -0.66517,-0.28098 -1.22053,-1.04748 -1.39118,-1.93146 -0.17939,-0.92207 0.0175,-1.89362 0.2024,-2.81172 0.61331,-3.01308 1.16285,-6.0751 1.32768,-9.17919 0.003,0.004 0.009,0.008 0.0116,0.0114 0.16193,0.18601 0.23707,0.46673 0.30084,0.73608 0.98927,4.21957 0.2921,8.77702 -0.60167,13.02676 z"
       fill="#490828"
       id="path4473"
       style="stroke-width:0.264583" />
    <path
       d="m 143.98902,111.7669 c -1.77615,0.0304 -3.54621,0.16324 -5.31071,0.39475 -2.33416,0.30719 -5.22076,0.42863 -7.39299,1.58592 -0.20532,0.11006 -0.41646,0.21643 -0.63632,0.24288 -0.39635,0.0381 -0.77232,-0.19737 -1.13401,-0.41354 -2.81993,-1.69995 -5.86581,-2.75114 -8.95482,-3.08874 -0.16219,-0.019 -0.34131,-0.0304 -0.47731,0.091 -0.11853,0.1024 -0.1823,0.28072 -0.23733,0.45165 -0.84455,2.57651 -1.45759,5.27817 -1.82219,8.03671 -0.0521,0.39847 -0.10398,0.81228 -0.27172,1.15359 -0.16219,0.3302 -0.42254,0.558 -0.67125,0.78184 -2.20689,1.98067 -4.23148,4.31059 -6.01901,6.92124 -0.68844,1.00171 -1.35096,2.0566 -2.19551,2.8194 -0.006,0.008 -0.0145,0.0114 -0.0201,0.0191 1.75842,-4.46643 5.1398,-8.06371 8.28966,-10.87544 0.23707,-2.83077 0.9951,-5.91555 1.88304,-8.51111 0.16775,-0.48948 0.35851,-0.99431 0.68845,-1.31287 0.49741,-0.4781 1.17713,-0.41751 1.79043,-0.30744 3.1123,0.56912 6.13781,1.92378 8.8654,3.96901 2.87205,-1.54437 6.07695,-2.04152 9.16305,-2.39818 1.21787,-0.14023 2.44422,-0.27702 3.65918,-0.10239 0.22834,0.0341 0.47123,0.0836 0.64479,0.28072 0.003,0.004 0.009,0.008 0.0116,0.0114 0.0609,0.0759 0.11007,0.15954 0.14764,0.25056 z"
       fill="url(#paint100_linear_1_1020)"
       id="path4475"
       style="fill:url(#paint100_linear_1_1020);stroke-width:0.264583" />
    <path
       d="m 137.63717,123.58319 c -0.3212,2.75854 -1.40864,7.85098 -4.17671,7.11094 -2.97339,-0.79693 -5.65468,-3.3999 -8.14229,-5.52873 -1.22925,-1.05093 -2.46433,-2.09445 -3.77455,-2.96731 -1.40573,-0.93345 -2.92735,-1.36234 -4.34181,-2.2045 -0.0376,-0.0228 -0.0664,-0.0495 -0.0952,-0.0799 0.009,-0.007 0.0201,-0.0188 0.0259,-0.0265 0.0233,-0.26193 0.0492,-0.52731 0.081,-0.79295 0.058,-0.0532 0.12145,-0.0873 0.19103,-0.095 2.2098,-0.30744 4.68286,1.62401 6.50214,3.05462 2.12884,1.67719 4.13041,3.63511 6.32301,5.17578 1.16549,0.81967 3.30015,2.55005 4.59317,1.38879 0.41645,-0.37174 0.75194,-1.62401 0.95435,-2.23123 0.28945,-0.86889 0.5035,-1.7645 0.65087,-2.69399 0.5842,-3.71501 -0.081,-7.20592 -1.61395,-10.36293 -0.40482,-0.83106 0.56409,-1.52559 0.98636,-0.75909 1.70657,3.10409 2.27357,7.27816 1.83674,11.01196 z"
       fill="#490828"
       id="path4477"
       style="stroke-width:0.264583" />
    <path
       d="m 118.20829,115.62981 c 0.79851,0.76253 1.92061,0.7665 2.87813,0.95224 1.22053,0.23918 2.43258,0.45932 3.64146,0.8046 2.33151,0.6641 4.62519,1.4306 6.85245,2.56143 0.20823,0.1061 0.45984,-0.0722 0.56965,-0.30374 0.87656,-1.84785 1.17739,-3.94626 0.76067,-6.06743 -0.13864,-0.69823 -0.89376,-0.39079 -0.80989,0.2921 0.2286,1.8632 -0.0201,3.53272 -0.82126,5.10752 0.22833,-0.0796 0.45984,-0.15928 0.68818,-0.23522 -2.29367,-1.32821 -4.64238,-2.531 -7.10089,-3.22924 -1.81345,-0.51223 -4.95194,-1.7645 -6.6585,-0.45905 -0.17622,0.13653 -0.15029,0.4326 0,0.57679 z"
       fill="#490828"
       id="path4479"
       style="stroke-width:0.264583" />
    <path
       d="m 143.98611,125.73848 c -0.0204,0.23892 -0.10715,0.46673 -0.28072,0.6186 -1.93199,1.71132 -3.29168,3.34671 -4.22011,6.24205 -0.4945,1.533 -0.8128,3.14933 -1.06441,4.77732 -0.15029,0.96758 -0.18204,2.01109 -0.44239,2.92946 -0.26617,-0.004 -0.6133,-0.0114 -0.97763,-0.0153 -0.13309,-1.3888 0.23124,-2.97868 0.43365,-4.27646 0.26326,-1.69625 0.63368,-3.36577 1.19168,-4.94057 0.89112,-2.52333 2.49635,-5.3504 4.59343,-6.24575 0.15902,-0.0683 0.30084,-0.0569 0.41646,0.0114 -0.0288,0.14419 -0.0638,0.2958 -0.0926,0.44 0.0492,0.0495 0.0984,0.0987 0.15029,0.14816 0.0926,0.1061 0.19103,0.20876 0.29236,0.31115 z"
       fill="#490828"
       id="path4481"
       style="stroke-width:0.264583" />
    <path
       d="m 133.41707,143.01921 c -0.15611,0.28814 -0.3183,0.56912 -0.48022,0.84985 -0.13309,0.23918 -0.26882,0.47043 -0.40773,0.7059 -0.0146,-0.0495 -0.0116,-0.10636 0.006,-0.16324 0.0405,-0.15187 0.0722,-0.31115 0.0952,-0.4744 0.34713,-2.33363 -1.08453,-5.46418 -1.96956,-7.28186 -1.19169,-2.4437 -2.85486,-4.4585 -4.72334,-5.9952 -1.92935,-1.59385 -4.064,-2.70192 -6.25952,-3.49117 -2.18651,-0.77788 -4.45717,-1.03585 -6.64395,-1.79097 -0.49742,-0.17065 -0.32385,-1.00938 0.11007,-1.08135 2.64954,-0.43259 5.5073,0.50826 8.02084,1.56316 2.42385,1.01706 4.76382,2.45903 6.79424,4.49289 2.63498,2.6371 6.07986,7.87373 5.45809,12.66639 z"
       fill="#490828"
       id="path4483"
       style="stroke-width:0.264583" />
    <path
       d="m 132.93685,143.86906 c -0.13309,0.23918 -0.26908,0.47043 -0.40773,0.7059 -0.16219,0.28073 -0.32702,0.55775 -0.49768,0.83477 -0.19367,-0.0683 -0.39052,-0.19738 -0.5842,-0.37942 -1.27555,-1.17633 -2.17805,-2.40585 -3.70231,-3.10779 -1.53591,-0.70962 -3.17315,-0.93345 -4.79293,-0.93345 -1.20597,0.004 -2.42094,0.24288 -3.62135,0.1897 -0.13309,-0.31882 -0.26326,-0.64505 -0.39053,-0.96758 1.5158,-0.53895 3.24829,-0.5199 4.7842,-0.45931 1.44621,0.0608 2.9128,0.31882 4.28387,0.93741 1.27847,0.5805 2.45851,1.43801 3.46498,2.62573 0.37042,0.44027 0.56118,0.60325 1.08188,0.64135 0.023,0.004 0.0521,-0.004 0.0781,-0.019 0.0926,-0.0341 0.19367,-0.13282 0.29501,-0.0759 0,0.004 0.006,0.004 0.009,0.008 z"
       fill="#490828"
       id="path4485"
       style="stroke-width:0.264583" />
    <path
       d="m 117.09175,119.15486 c 1.41155,0.84243 2.93899,1.27132 4.34181,2.20477 1.31021,0.86889 2.54529,1.91638 3.77454,2.9673 2.48762,2.12884 5.1689,4.73181 8.14229,5.52873 2.76807,0.74004 3.85842,-4.34842 4.17962,-7.11094 0.43392,-3.7338 -0.13017,-7.90786 -1.83673,-11.00825 -0.42228,-0.7665 -1.39118,-0.072 -0.98637,0.75909 1.533,3.1533 2.19816,6.64792 1.61396,10.36293 -0.14446,0.92578 -0.36142,1.8251 -0.65088,2.69029 -0.2024,0.60722 -0.53498,1.85949 -0.95144,2.23123 -1.29593,1.16125 -3.42768,-0.56912 -4.59317,-1.3888 -2.1926,-1.54067 -4.19417,-3.49858 -6.32301,-5.17578 -1.81636,-1.4306 -4.28942,-3.36206 -6.49922,-3.05832 -0.35587,0.0529 -0.61913,0.75512 -0.2114,0.99775 z"
       fill="url(#paint101_linear_1_1020)"
       id="path4487"
       style="fill:url(#paint101_linear_1_1020);stroke-width:0.264583" />
    <path
       d="m 118.1014,114.78738 c 0.79824,0.76279 1.92061,0.7665 2.87787,0.9525 1.22052,0.23918 2.43258,0.45905 3.64172,0.80433 2.33125,0.66411 4.62492,1.43061 6.85218,2.56143 0.20823,0.10637 0.45985,-0.072 0.56965,-0.30347 0.87656,-1.84812 1.1774,-3.94653 0.76094,-6.06769 -0.1389,-0.69797 -0.89376,-0.39079 -0.80989,0.29236 0.22834,1.86293 -0.0204,3.53272 -0.82153,5.10752 0.22834,-0.0799 0.45985,-0.15954 0.68845,-0.23548 -2.29368,-1.32794 -4.64238,-2.53074 -7.10116,-3.22898 -1.81345,-0.51223 -4.95167,-1.7645 -6.65823,-0.45931 -0.17648,0.13679 -0.15055,0.43259 0,0.57679 z"
       fill="url(#paint102_linear_1_1020)"
       id="path4489"
       style="fill:url(#paint102_linear_1_1020);stroke-width:0.264583" />
    <path
       d="m 137.51837,140.34004 c 0.60166,-1.08902 0.59293,-2.51565 0.79243,-3.80206 0.25162,-1.62798 0.57573,-3.24432 1.06733,-4.77732 0.93133,-2.89533 2.28812,-4.53072 4.2201,-6.24231 0.567,-0.50086 0.23151,-1.83277 -0.48868,-1.52532 -2.09709,0.89561 -3.69941,3.72242 -4.59317,6.24602 -0.55827,1.57453 -0.92869,3.24035 -1.19168,4.9403 -0.24315,1.55601 -0.71755,3.53668 -0.29237,5.07735 0.0783,0.29977 0.34714,0.3339 0.48604,0.0833 z"
       fill="url(#paint103_linear_1_1020)"
       id="path4491"
       style="fill:url(#paint103_linear_1_1020);stroke-width:0.264583" />
    <path
       d="m 112.92667,124.53569 c 2.18679,0.75909 4.45453,1.01335 6.64105,1.79493 2.19551,0.78555 4.33017,1.89336 6.26215,3.48721 1.86585,1.54067 3.52902,3.55177 4.72361,5.99916 0.94853,1.94284 2.5191,5.38454 1.87695,7.75626 -0.10107,0.36804 0.36169,0.62971 0.48895,0.26935 1.83092,-5.19113 -2.1201,-11.38 -5.06465,-14.33222 -2.03041,-2.03385 -4.37065,-3.47186 -6.7945,-4.48892 -2.51354,-1.05489 -5.37131,-1.99204 -8.02058,-1.55945 -0.43974,0.0643 -0.61039,0.90302 -0.11298,1.07368 z"
       fill="url(#paint104_linear_1_1020)"
       id="path4493"
       style="fill:url(#paint104_linear_1_1020);stroke-width:0.264583" />
    <path
       d="m 118.39932,140.24903 c 1.46949,0.26193 2.96492,-0.0987 4.44288,-0.0987 1.62269,0 3.25676,0.22013 4.79557,0.92974 1.52718,0.70591 2.42676,1.93146 3.70232,3.1078 0.38761,0.35666 0.98636,0.64876 1.43192,0.26935 0.40772,-0.34899 0.51197,-1.31287 0.51197,-1.91241 -0.15055,-0.0378 -0.3212,-0.0683 -0.43974,0.0569 -0.30956,0.3302 -0.26617,0.60722 -0.74057,0.45535 -0.29501,-0.0947 -0.51752,-0.32253 -0.7403,-0.5842 -1.00674,-1.19168 -2.18678,-2.04549 -3.46525,-2.62599 -1.37107,-0.6223 -2.83739,-0.88027 -4.2836,-0.94112 -1.68355,-0.0683 -3.60125,-0.0871 -5.21229,0.62997 -0.23416,0.11007 -0.29792,0.6604 -0.003,0.71332 z"
       fill="url(#paint105_linear_1_1020)"
       id="path4495"
       style="fill:url(#paint105_linear_1_1020);stroke-width:0.264583" />
  </g>
</svg>
