<?xml version="1.0" encoding="UTF-8" standalone="no"?>
<svg
   width="699"
   height="660"
   viewBox="0 0 699 660"
   fill="none"
   version="1.1"
   id="svg198"
   sodipodi:docname="settings_window.svg"
   inkscape:version="1.2.1 (9c6d41e410, 2022-07-14)"
   xmlns:inkscape="http://www.inkscape.org/namespaces/inkscape"
   xmlns:sodipodi="http://sodipodi.sourceforge.net/DTD/sodipodi-0.dtd"
   xmlns="http://www.w3.org/2000/svg"
   xmlns:svg="http://www.w3.org/2000/svg">
  <sodipodi:namedview
     id="namedview200"
     pagecolor="#ffffff"
     bordercolor="#000000"
     borderopacity="0.25"
     inkscape:showpageshadow="2"
     inkscape:pageopacity="0.0"
     inkscape:pagecheckerboard="0"
     inkscape:deskcolor="#d1d1d1"
     showgrid="false"
     inkscape:zoom="1.2681818"
     inkscape:cx="350.5018"
     inkscape:cy="331.1828"
     inkscape:window-width="1920"
     inkscape:window-height="1017"
     inkscape:window-x="-8"
     inkscape:window-y="-8"
     inkscape:window-maximized="1"
     inkscape:current-layer="svg198" />
  <rect
     x="10"
     y="10"
     width="679"
     height="640"
     rx="30"
     fill="white"
     stroke="url(#paint0_linear_2_9)"
     stroke-width="20"
     id="rect102" />
  <path
     d="M209.756 80.368V71.024H204.956V94H209.756V86.224L212.092 83.824L219.196 94H225.276L215.356 80.432L224.732 71.024H218.524L209.756 80.368ZM226.354 85.488C226.354 86.8 226.578 88.016 226.962 89.104C227.346 90.224 227.922 91.184 228.69 91.984C229.458 92.752 230.354 93.392 231.442 93.84C232.53 94.288 233.714 94.512 235.058 94.512C236.434 94.512 237.65 94.288 238.738 93.84C239.826 93.392 240.722 92.752 241.458 91.984C242.194 91.184 242.77 90.224 243.186 89.104C243.57 88.016 243.762 86.8 243.762 85.488C243.762 84.176 243.57 82.96 243.186 81.872C242.77 80.752 242.194 79.792 241.458 78.992C240.722 78.192 239.826 77.584 238.738 77.136C237.65 76.688 236.434 76.464 235.058 76.464C233.714 76.464 232.53 76.688 231.442 77.136C230.354 77.584 229.458 78.192 228.69 78.992C227.922 79.792 227.346 80.752 226.962 81.872C226.578 82.96 226.354 84.176 226.354 85.488ZM230.962 85.488C230.962 84.848 231.058 84.208 231.186 83.568C231.314 82.928 231.538 82.384 231.89 81.872C232.21 81.392 232.626 80.976 233.138 80.688C233.65 80.4 234.29 80.24 235.058 80.24C235.858 80.24 236.53 80.368 237.042 80.656C237.554 80.976 237.97 81.36 238.29 81.84C238.61 82.32 238.834 82.896 238.962 83.536C239.09 84.176 239.154 84.816 239.154 85.488C239.154 86.16 239.09 86.8 238.962 87.44C238.834 88.08 238.61 88.624 238.29 89.104C237.97 89.584 237.554 90 237.042 90.288C236.53 90.576 235.858 90.736 235.058 90.736C234.29 90.736 233.65 90.576 233.138 90.288C232.626 90 232.21 89.584 231.89 89.072C231.538 88.592 231.314 88.016 231.186 87.376C231.058 86.768 230.962 86.128 230.962 85.488ZM258.811 80.56V94H263.195V76.976H249.499L249.371 83.408C249.339 84.912 249.275 86.128 249.179 87.088C249.051 88.048 248.923 88.784 248.731 89.328C248.539 89.872 248.315 90.224 248.059 90.416C247.803 90.64 247.515 90.736 247.163 90.736C246.843 90.736 246.587 90.704 246.363 90.672C246.139 90.608 245.947 90.544 245.787 90.48V94.192C246.043 94.288 246.331 94.384 246.715 94.448C247.099 94.48 247.515 94.512 248.027 94.512C249.083 94.512 249.979 94.288 250.651 93.84C251.323 93.36 251.867 92.688 252.283 91.792C252.667 90.896 252.955 89.776 253.147 88.432C253.307 87.088 253.435 85.52 253.499 83.728L253.563 80.56H258.811ZM275.43 87.184V82.96H266.47V87.184H275.43ZM287.431 76.976H278.631V94H288.167C289.063 94 289.863 93.872 290.599 93.616C291.335 93.36 291.943 93.008 292.455 92.528C292.967 92.08 293.351 91.504 293.639 90.864C293.895 90.224 294.023 89.488 294.023 88.688C294.023 87.76 293.799 86.992 293.351 86.32C292.903 85.648 292.263 85.168 291.399 84.88C291.687 84.752 291.911 84.592 292.167 84.4C292.391 84.24 292.615 84.016 292.807 83.728C292.999 83.472 293.159 83.152 293.255 82.768C293.383 82.416 293.415 81.968 293.415 81.456C293.415 80.56 293.255 79.824 292.935 79.248C292.615 78.672 292.167 78.224 291.623 77.872C291.047 77.552 290.407 77.328 289.703 77.168C288.967 77.04 288.231 76.976 287.431 76.976ZM286.439 83.664H283.047V80.112H286.567C287.047 80.112 287.431 80.144 287.751 80.24C288.071 80.336 288.327 80.464 288.487 80.592C288.679 80.752 288.839 80.944 288.903 81.136C288.999 81.36 289.031 81.584 289.031 81.84C289.031 82.128 288.999 82.416 288.903 82.64C288.839 82.864 288.679 83.056 288.487 83.184C288.295 83.344 288.039 83.44 287.719 83.536C287.367 83.6 286.951 83.664 286.439 83.664ZM286.439 90.864H283.047V86.608H286.439C286.983 86.608 287.431 86.64 287.815 86.704C288.199 86.768 288.519 86.864 288.743 87.056C288.999 87.216 289.159 87.44 289.255 87.696C289.383 87.984 289.415 88.336 289.415 88.752C289.415 88.976 289.383 89.2 289.319 89.456C289.255 89.712 289.095 89.936 288.903 90.128C288.679 90.352 288.391 90.512 288.007 90.672C287.623 90.8 287.079 90.864 286.439 90.864ZM296.541 85.488C296.541 86.8 296.765 88.016 297.149 89.104C297.533 90.224 298.109 91.184 298.877 91.984C299.645 92.752 300.541 93.392 301.629 93.84C302.717 94.288 303.901 94.512 305.245 94.512C306.621 94.512 307.837 94.288 308.925 93.84C310.013 93.392 310.909 92.752 311.645 91.984C312.381 91.184 312.957 90.224 313.373 89.104C313.757 88.016 313.949 86.8 313.949 85.488C313.949 84.176 313.757 82.96 313.373 81.872C312.957 80.752 312.381 79.792 311.645 78.992C310.909 78.192 310.013 77.584 308.925 77.136C307.837 76.688 306.621 76.464 305.245 76.464C303.901 76.464 302.717 76.688 301.629 77.136C300.541 77.584 299.645 78.192 298.877 78.992C298.109 79.792 297.533 80.752 297.149 81.872C296.765 82.96 296.541 84.176 296.541 85.488ZM301.149 85.488C301.149 84.848 301.245 84.208 301.373 83.568C301.501 82.928 301.725 82.384 302.077 81.872C302.397 81.392 302.813 80.976 303.325 80.688C303.837 80.4 304.477 80.24 305.245 80.24C306.045 80.24 306.717 80.368 307.229 80.656C307.741 80.976 308.157 81.36 308.477 81.84C308.797 82.32 309.021 82.896 309.149 83.536C309.277 84.176 309.341 84.816 309.341 85.488C309.341 86.16 309.277 86.8 309.149 87.44C309.021 88.08 308.797 88.624 308.477 89.104C308.157 89.584 307.741 90 307.229 90.288C306.717 90.576 306.045 90.736 305.245 90.736C304.477 90.736 303.837 90.576 303.325 90.288C302.813 90 302.397 89.584 302.077 89.072C301.725 88.592 301.501 88.016 301.373 87.376C301.245 86.768 301.149 86.128 301.149 85.488ZM341.393 94V76.976H326.065V94H330.481V80.56H336.977V94H341.393ZM349.724 79.408V76.976H345.5V100.592H349.916V91.888H349.98C350.268 92.4 350.588 92.816 350.972 93.168C351.324 93.488 351.708 93.776 352.156 93.968C352.572 94.16 352.988 94.32 353.436 94.384C353.852 94.48 354.3 94.512 354.716 94.512C355.964 94.512 357.02 94.288 357.948 93.84C358.844 93.36 359.58 92.72 360.188 91.92C360.796 91.088 361.244 90.096 361.532 88.944C361.852 87.824 361.98 86.544 361.98 85.168C361.98 84.048 361.884 83.088 361.66 82.224C361.468 81.36 361.18 80.624 360.828 79.984C360.476 79.344 360.06 78.768 359.58 78.32C359.132 77.904 358.62 77.52 358.108 77.264C357.564 76.976 357.02 76.784 356.476 76.656C355.932 76.528 355.388 76.464 354.876 76.464C354.236 76.464 353.692 76.528 353.212 76.656C352.7 76.752 352.252 76.944 351.836 77.168C351.452 77.392 351.068 77.712 350.748 78.064C350.396 78.448 350.076 78.896 349.788 79.408H349.724ZM353.564 80.432C354.268 80.432 354.844 80.592 355.356 80.88C355.836 81.2 356.22 81.584 356.54 82.064C356.828 82.544 357.02 83.088 357.18 83.696C357.308 84.304 357.372 84.88 357.372 85.488C357.372 85.808 357.372 86.16 357.34 86.544C357.276 86.928 357.212 87.312 357.116 87.696C356.988 88.08 356.86 88.464 356.7 88.816C356.508 89.2 356.252 89.52 355.996 89.808C355.708 90.064 355.356 90.288 354.972 90.48C354.588 90.64 354.108 90.736 353.564 90.736C353.02 90.736 352.54 90.64 352.156 90.48C351.772 90.288 351.42 90.064 351.132 89.808C350.844 89.52 350.62 89.2 350.46 88.816C350.268 88.464 350.14 88.08 350.012 87.696C349.916 87.312 349.852 86.928 349.82 86.544C349.756 86.16 349.756 85.808 349.756 85.488C349.756 84.88 349.82 84.304 349.948 83.696C350.108 83.088 350.3 82.544 350.62 82.064C350.908 81.584 351.292 81.2 351.772 80.88C352.252 80.592 352.86 80.432 353.564 80.432ZM368.358 86.864H380.038C380.038 85.296 379.878 83.888 379.622 82.608C379.366 81.328 378.918 80.208 378.278 79.312C377.638 78.416 376.806 77.712 375.782 77.2C374.758 76.72 373.478 76.464 371.974 76.464C370.534 76.464 369.318 76.688 368.326 77.2C367.302 77.68 366.438 78.32 365.798 79.152C365.158 79.952 364.678 80.88 364.39 81.968C364.07 83.024 363.91 84.144 363.91 85.296C363.91 86.96 364.134 88.368 364.55 89.552C364.966 90.704 365.574 91.664 366.31 92.4C367.046 93.136 367.91 93.68 368.934 94C369.894 94.352 370.982 94.512 372.102 94.512C372.998 94.512 373.798 94.416 374.534 94.224C375.238 94.032 375.878 93.808 376.454 93.488C377.062 93.2 377.542 92.816 377.958 92.432C378.374 92.048 378.726 91.632 379.014 91.216C379.27 90.8 379.462 90.416 379.622 90C379.75 89.616 379.814 89.264 379.814 88.944H375.238C375.142 89.264 375.014 89.52 374.822 89.776C374.63 90 374.406 90.224 374.15 90.384C373.862 90.576 373.606 90.704 373.286 90.768C372.998 90.864 372.678 90.928 372.358 90.928C371.75 90.928 371.238 90.832 370.822 90.672C370.374 90.544 370.022 90.32 369.734 90.064C369.414 89.84 369.158 89.552 368.998 89.232C368.838 88.944 368.678 88.624 368.582 88.336C368.486 88.016 368.422 87.76 368.422 87.472C368.39 87.216 368.358 87.024 368.358 86.864ZM375.43 83.92H368.518C368.518 83.184 368.614 82.544 368.87 82.032C369.062 81.552 369.35 81.136 369.702 80.848C370.022 80.56 370.406 80.336 370.822 80.208C371.206 80.112 371.622 80.048 371.974 80.048C372.358 80.048 372.742 80.112 373.126 80.208C373.542 80.336 373.926 80.56 374.278 80.848C374.598 81.136 374.886 81.552 375.11 82.032C375.334 82.544 375.43 83.184 375.43 83.92ZM383.259 90.416H381.499V98.096H385.659V94H396.827V98.096H400.987V90.416H398.843V76.976H385.531V78.416C385.531 79.024 385.531 79.696 385.499 80.432C385.467 81.168 385.403 81.968 385.339 82.768C385.243 83.632 385.147 84.496 384.955 85.36C384.795 86.224 384.571 87.088 384.315 87.952C384.027 88.816 383.675 89.648 383.259 90.416ZM389.371 80.56H394.427V90.416H387.707C387.963 89.904 388.187 89.328 388.379 88.72C388.571 88.112 388.731 87.504 388.859 86.896C388.987 86.256 389.083 85.648 389.147 85.008C389.211 84.4 389.275 83.792 389.307 83.248C389.339 82.672 389.371 82.16 389.371 81.712V80.56ZM412.945 89.328L410.065 76.976H403.409V94H407.569V80.304H407.633L410.833 94H414.865L418.065 80.304H418.129V94H422.289V76.976H415.825L413.009 89.328H412.945ZM429.671 86.864H441.351C441.351 85.296 441.191 83.888 440.935 82.608C440.679 81.328 440.231 80.208 439.591 79.312C438.951 78.416 438.119 77.712 437.095 77.2C436.071 76.72 434.791 76.464 433.287 76.464C431.847 76.464 430.631 76.688 429.639 77.2C428.615 77.68 427.751 78.32 427.111 79.152C426.471 79.952 425.991 80.88 425.703 81.968C425.383 83.024 425.223 84.144 425.223 85.296C425.223 86.96 425.447 88.368 425.863 89.552C426.279 90.704 426.887 91.664 427.623 92.4C428.359 93.136 429.223 93.68 430.247 94C431.207 94.352 432.295 94.512 433.415 94.512C434.311 94.512 435.111 94.416 435.847 94.224C436.551 94.032 437.191 93.808 437.767 93.488C438.375 93.2 438.855 92.816 439.271 92.432C439.687 92.048 440.039 91.632 440.327 91.216C440.583 90.8 440.775 90.416 440.935 90C441.063 89.616 441.127 89.264 441.127 88.944H436.551C436.455 89.264 436.327 89.52 436.135 89.776C435.943 90 435.719 90.224 435.463 90.384C435.175 90.576 434.919 90.704 434.599 90.768C434.311 90.864 433.991 90.928 433.671 90.928C433.063 90.928 432.551 90.832 432.135 90.672C431.687 90.544 431.335 90.32 431.047 90.064C430.727 89.84 430.471 89.552 430.311 89.232C430.151 88.944 429.991 88.624 429.895 88.336C429.799 88.016 429.735 87.76 429.735 87.472C429.703 87.216 429.671 87.024 429.671 86.864ZM436.743 83.92H429.831C429.831 83.184 429.927 82.544 430.183 82.032C430.375 81.552 430.663 81.136 431.015 80.848C431.335 80.56 431.719 80.336 432.135 80.208C432.519 80.112 432.935 80.048 433.287 80.048C433.671 80.048 434.055 80.112 434.439 80.208C434.855 80.336 435.239 80.56 435.591 80.848C435.911 81.136 436.199 81.552 436.423 82.032C436.647 82.544 436.743 83.184 436.743 83.92ZM442.812 76.976V80.56H447.964V94H452.38V80.56H457.532V76.976H442.812ZM459.26 85.488C459.26 86.8 459.484 88.016 459.868 89.104C460.252 90.224 460.828 91.184 461.596 91.984C462.364 92.752 463.26 93.392 464.348 93.84C465.436 94.288 466.62 94.512 467.964 94.512C469.34 94.512 470.556 94.288 471.644 93.84C472.732 93.392 473.628 92.752 474.364 91.984C475.1 91.184 475.676 90.224 476.092 89.104C476.476 88.016 476.668 86.8 476.668 85.488C476.668 84.176 476.476 82.96 476.092 81.872C475.676 80.752 475.1 79.792 474.364 78.992C473.628 78.192 472.732 77.584 471.644 77.136C470.556 76.688 469.34 76.464 467.964 76.464C466.62 76.464 465.436 76.688 464.348 77.136C463.26 77.584 462.364 78.192 461.596 78.992C460.828 79.792 460.252 80.752 459.868 81.872C459.484 82.96 459.26 84.176 459.26 85.488ZM463.868 85.488C463.868 84.848 463.964 84.208 464.092 83.568C464.22 82.928 464.444 82.384 464.796 81.872C465.116 81.392 465.532 80.976 466.044 80.688C466.556 80.4 467.196 80.24 467.964 80.24C468.764 80.24 469.436 80.368 469.948 80.656C470.46 80.976 470.876 81.36 471.196 81.84C471.516 82.32 471.74 82.896 471.868 83.536C471.996 84.176 472.06 84.816 472.06 85.488C472.06 86.16 471.996 86.8 471.868 87.44C471.74 88.08 471.516 88.624 471.196 89.104C470.876 89.584 470.46 90 469.948 90.288C469.436 90.576 468.764 90.736 467.964 90.736C467.196 90.736 466.556 90.576 466.044 90.288C465.532 90 465.116 89.584 464.796 89.072C464.444 88.592 464.22 88.016 464.092 87.376C463.964 86.768 463.868 86.128 463.868 85.488ZM488.806 76.976H480.006V94H489.542C490.438 94 491.238 93.872 491.974 93.616C492.71 93.36 493.318 93.008 493.83 92.528C494.342 92.08 494.726 91.504 495.014 90.864C495.27 90.224 495.398 89.488 495.398 88.688C495.398 87.76 495.174 86.992 494.726 86.32C494.278 85.648 493.638 85.168 492.774 84.88C493.062 84.752 493.286 84.592 493.542 84.4C493.766 84.24 493.99 84.016 494.182 83.728C494.374 83.472 494.534 83.152 494.63 82.768C494.758 82.416 494.79 81.968 494.79 81.456C494.79 80.56 494.63 79.824 494.31 79.248C493.99 78.672 493.542 78.224 492.998 77.872C492.422 77.552 491.782 77.328 491.078 77.168C490.342 77.04 489.606 76.976 488.806 76.976ZM487.814 83.664H484.422V80.112H487.942C488.422 80.112 488.806 80.144 489.126 80.24C489.446 80.336 489.702 80.464 489.862 80.592C490.054 80.752 490.214 80.944 490.278 81.136C490.374 81.36 490.406 81.584 490.406 81.84C490.406 82.128 490.374 82.416 490.278 82.64C490.214 82.864 490.054 83.056 489.862 83.184C489.67 83.344 489.414 83.44 489.094 83.536C488.742 83.6 488.326 83.664 487.814 83.664ZM487.814 90.864H484.422V86.608H487.814C488.358 86.608 488.806 86.64 489.19 86.704C489.574 86.768 489.894 86.864 490.118 87.056C490.374 87.216 490.534 87.44 490.63 87.696C490.758 87.984 490.79 88.336 490.79 88.752C490.79 88.976 490.758 89.2 490.694 89.456C490.63 89.712 490.47 89.936 490.278 90.128C490.054 90.352 489.766 90.512 489.382 90.672C488.998 90.8 488.454 90.864 487.814 90.864Z"
     fill="#423F45"
     id="path104" />
  <path
     d="M182.016 137.746C182.016 137.973 182.004 138.168 181.98 138.332C181.965 138.488 181.937 138.617 181.898 138.719C181.859 138.82 181.809 138.895 181.746 138.941C181.684 138.98 181.613 139 181.535 139H172.816C172.645 139 172.496 138.984 172.371 138.953C172.246 138.922 172.145 138.863 172.066 138.777C171.988 138.684 171.93 138.551 171.891 138.379C171.859 138.207 171.844 137.984 171.844 137.711C171.844 137.453 171.855 137.234 171.879 137.055C171.902 136.867 171.945 136.703 172.008 136.562C172.07 136.414 172.148 136.273 172.242 136.141C172.344 136 172.473 135.848 172.629 135.684L175.254 132.871C175.777 132.324 176.199 131.828 176.52 131.383C176.84 130.93 177.09 130.52 177.27 130.152C177.449 129.777 177.57 129.434 177.633 129.121C177.703 128.809 177.738 128.512 177.738 128.23C177.738 127.973 177.695 127.73 177.609 127.504C177.531 127.27 177.41 127.066 177.246 126.895C177.09 126.723 176.891 126.59 176.648 126.496C176.406 126.395 176.121 126.344 175.793 126.344C175.332 126.344 174.922 126.402 174.562 126.52C174.211 126.637 173.898 126.77 173.625 126.918C173.359 127.059 173.137 127.191 172.957 127.316C172.777 127.434 172.637 127.492 172.535 127.492C172.465 127.492 172.402 127.469 172.348 127.422C172.301 127.375 172.262 127.297 172.23 127.188C172.199 127.078 172.172 126.934 172.148 126.754C172.133 126.566 172.125 126.34 172.125 126.074C172.125 125.895 172.129 125.746 172.137 125.629C172.152 125.504 172.172 125.398 172.195 125.312C172.219 125.219 172.25 125.141 172.289 125.078C172.328 125.008 172.395 124.926 172.488 124.832C172.59 124.738 172.77 124.621 173.027 124.48C173.293 124.332 173.617 124.191 174 124.059C174.383 123.918 174.805 123.801 175.266 123.707C175.727 123.613 176.207 123.566 176.707 123.566C177.496 123.566 178.184 123.668 178.77 123.871C179.363 124.066 179.855 124.344 180.246 124.703C180.637 125.055 180.926 125.477 181.113 125.969C181.309 126.453 181.406 126.977 181.406 127.539C181.406 128.031 181.359 128.516 181.266 128.992C181.172 129.469 180.977 129.984 180.68 130.539C180.383 131.086 179.965 131.695 179.426 132.367C178.887 133.031 178.172 133.805 177.281 134.688L175.512 136.504H181.488C181.566 136.504 181.637 136.527 181.699 136.574C181.77 136.621 181.828 136.695 181.875 136.797C181.922 136.891 181.957 137.02 181.98 137.184C182.004 137.34 182.016 137.527 182.016 137.746Z"
     fill="#4F4B61"
     id="path106" />
  <path
     d="M298.945 133.559C298.945 134.316 298.801 134.988 298.512 135.574C298.223 136.16 297.82 136.652 297.305 137.051C296.789 137.449 296.172 137.754 295.453 137.965C294.734 138.168 293.949 138.27 293.098 138.27C292.582 138.27 292.098 138.23 291.645 138.152C291.191 138.082 290.789 137.992 290.437 137.883C290.094 137.773 289.809 137.66 289.582 137.543C289.355 137.426 289.207 137.336 289.137 137.273C289.066 137.211 289.012 137.141 288.973 137.062C288.941 136.984 288.91 136.895 288.879 136.793C288.855 136.684 288.836 136.551 288.82 136.395C288.812 136.23 288.809 136.035 288.809 135.809C288.809 135.434 288.84 135.176 288.902 135.035C288.965 134.887 289.059 134.812 289.184 134.812C289.262 134.812 289.395 134.867 289.582 134.977C289.777 135.078 290.023 135.191 290.32 135.316C290.617 135.434 290.965 135.547 291.363 135.656C291.762 135.758 292.215 135.809 292.723 135.809C293.152 135.809 293.531 135.758 293.859 135.656C294.187 135.555 294.465 135.414 294.691 135.234C294.926 135.047 295.098 134.824 295.207 134.566C295.324 134.301 295.383 134.008 295.383 133.688C295.383 133.336 295.312 133.02 295.172 132.738C295.039 132.457 294.836 132.219 294.562 132.023C294.297 131.82 293.957 131.664 293.543 131.555C293.137 131.445 292.656 131.391 292.102 131.391H290.789C290.687 131.391 290.602 131.379 290.531 131.355C290.461 131.324 290.402 131.266 290.355 131.18C290.309 131.094 290.273 130.977 290.25 130.828C290.234 130.672 290.227 130.473 290.227 130.23C290.227 130.004 290.234 129.82 290.25 129.68C290.273 129.531 290.305 129.418 290.344 129.34C290.391 129.262 290.445 129.207 290.508 129.176C290.578 129.145 290.66 129.129 290.754 129.129H292.078C292.531 129.129 292.934 129.078 293.285 128.977C293.637 128.867 293.93 128.715 294.164 128.52C294.406 128.324 294.59 128.09 294.715 127.816C294.84 127.535 294.902 127.227 294.902 126.891C294.902 126.633 294.859 126.391 294.773 126.164C294.687 125.93 294.559 125.73 294.387 125.566C294.223 125.395 294.008 125.262 293.742 125.168C293.477 125.066 293.164 125.016 292.805 125.016C292.398 125.016 292.016 125.078 291.656 125.203C291.297 125.32 290.973 125.453 290.684 125.602C290.402 125.742 290.16 125.875 289.957 126C289.762 126.125 289.617 126.188 289.523 126.188C289.461 126.188 289.406 126.176 289.359 126.152C289.312 126.121 289.273 126.066 289.242 125.988C289.211 125.91 289.187 125.797 289.172 125.648C289.156 125.5 289.148 125.309 289.148 125.074C289.148 124.879 289.152 124.719 289.16 124.594C289.168 124.461 289.184 124.352 289.207 124.266C289.23 124.18 289.258 124.105 289.289 124.043C289.328 123.98 289.387 123.914 289.465 123.844C289.543 123.766 289.703 123.652 289.945 123.504C290.187 123.355 290.492 123.211 290.859 123.07C291.227 122.93 291.648 122.812 292.125 122.719C292.609 122.617 293.133 122.566 293.695 122.566C294.43 122.566 295.078 122.652 295.641 122.824C296.211 122.996 296.687 123.246 297.07 123.574C297.461 123.895 297.754 124.293 297.949 124.77C298.152 125.238 298.254 125.77 298.254 126.363C298.254 126.824 298.195 127.254 298.078 127.652C297.961 128.051 297.789 128.406 297.562 128.719C297.336 129.031 297.051 129.297 296.707 129.516C296.371 129.734 295.98 129.898 295.535 130.008V130.043C296.066 130.105 296.543 130.242 296.965 130.453C297.387 130.656 297.742 130.914 298.031 131.227C298.328 131.539 298.555 131.895 298.711 132.293C298.867 132.684 298.945 133.105 298.945 133.559Z"
     fill="#4F4B61"
     id="path108" />
  <path
     d="M410.484 133.641C410.484 134.039 410.441 134.344 410.355 134.555C410.277 134.758 410.168 134.859 410.027 134.859H408.68V137.602C408.68 137.68 408.656 137.75 408.609 137.812C408.562 137.867 408.48 137.914 408.363 137.953C408.246 137.992 408.094 138.02 407.906 138.035C407.719 138.059 407.477 138.07 407.18 138.07C406.898 138.07 406.66 138.059 406.465 138.035C406.277 138.02 406.125 137.992 406.008 137.953C405.898 137.914 405.82 137.867 405.773 137.812C405.734 137.75 405.715 137.68 405.715 137.602V134.859H399.914C399.805 134.859 399.707 134.848 399.621 134.824C399.535 134.793 399.461 134.73 399.398 134.637C399.344 134.535 399.301 134.395 399.27 134.215C399.246 134.027 399.234 133.781 399.234 133.477C399.234 133.227 399.238 133.012 399.246 132.832C399.262 132.645 399.281 132.477 399.305 132.328C399.336 132.18 399.375 132.039 399.422 131.906C399.477 131.773 399.543 131.633 399.621 131.484L404.332 123.176C404.371 123.105 404.437 123.047 404.531 123C404.625 122.945 404.754 122.902 404.918 122.871C405.09 122.832 405.305 122.805 405.562 122.789C405.82 122.773 406.133 122.766 406.5 122.766C406.898 122.766 407.238 122.777 407.52 122.801C407.801 122.816 408.023 122.848 408.187 122.895C408.359 122.934 408.484 122.984 408.562 123.047C408.641 123.109 408.68 123.184 408.68 123.27V132.398H410.027C410.152 132.398 410.258 132.496 410.344 132.691C410.437 132.879 410.484 133.195 410.484 133.641ZM405.715 125.426H405.691L401.695 132.398H405.715V125.426Z"
     fill="#4F4B61"
     id="path110" />
  <path
     d="M526.875 133.078C526.875 133.898 526.73 134.633 526.441 135.281C526.16 135.922 525.758 136.465 525.234 136.91C524.719 137.348 524.094 137.684 523.359 137.918C522.633 138.152 521.824 138.27 520.934 138.27C520.465 138.27 520.02 138.238 519.598 138.176C519.176 138.121 518.797 138.051 518.461 137.965C518.125 137.871 517.848 137.781 517.629 137.695C517.418 137.602 517.277 137.527 517.207 137.473C517.145 137.41 517.098 137.344 517.066 137.273C517.035 137.203 517.008 137.121 516.984 137.027C516.969 136.926 516.957 136.801 516.949 136.652C516.941 136.504 516.937 136.328 516.937 136.125C516.937 135.906 516.945 135.723 516.961 135.574C516.977 135.418 517 135.293 517.031 135.199C517.07 135.105 517.113 135.039 517.16 135C517.207 134.961 517.262 134.941 517.324 134.941C517.402 134.941 517.52 134.988 517.676 135.082C517.84 135.168 518.051 135.266 518.309 135.375C518.574 135.484 518.895 135.586 519.27 135.68C519.645 135.766 520.094 135.809 520.617 135.809C521.07 135.809 521.48 135.762 521.848 135.668C522.223 135.574 522.539 135.426 522.797 135.223C523.055 135.012 523.254 134.75 523.395 134.438C523.535 134.125 523.605 133.75 523.605 133.312C523.605 132.938 523.547 132.605 523.43 132.316C523.312 132.02 523.129 131.77 522.879 131.566C522.629 131.363 522.305 131.211 521.906 131.109C521.508 131.008 521.023 130.957 520.453 130.957C520 130.957 519.586 130.98 519.211 131.027C518.844 131.074 518.496 131.098 518.168 131.098C517.941 131.098 517.777 131.043 517.676 130.934C517.582 130.816 517.535 130.605 517.535 130.301V123.715C517.535 123.402 517.594 123.18 517.711 123.047C517.836 122.906 518.031 122.836 518.297 122.836H525.48C525.551 122.836 525.617 122.859 525.68 122.906C525.742 122.953 525.793 123.027 525.832 123.129C525.879 123.23 525.91 123.367 525.926 123.539C525.949 123.703 525.961 123.902 525.961 124.137C525.961 124.605 525.918 124.945 525.832 125.156C525.754 125.367 525.637 125.473 525.48 125.473H520.09V128.719C520.363 128.688 520.633 128.668 520.898 128.66C521.172 128.652 521.457 128.648 521.754 128.648C522.574 128.648 523.301 128.746 523.934 128.941C524.574 129.129 525.109 129.41 525.539 129.785C525.977 130.152 526.309 130.613 526.535 131.168C526.762 131.715 526.875 132.352 526.875 133.078Z"
     fill="#4F4B61"
     id="path112" />
  <rect
     x="166"
     y="147"
     width="366"
     height="21"
     rx="10"
     fill="#FFD748"
     id="rect114" />
  <path
     d="M283.91 245.432H279.942V248.92H284.038C284.422 248.92 284.838 248.952 285.254 249.016C285.702 249.08 286.118 249.24 286.47 249.464C286.854 249.688 287.174 250.04 287.43 250.456C287.654 250.904 287.782 251.48 287.782 252.184C287.782 252.632 287.686 253.08 287.526 253.528C287.334 253.944 287.078 254.328 286.662 254.68C286.278 255 285.766 255.288 285.158 255.48C284.55 255.672 283.814 255.8 282.95 255.8C281.99 255.8 281.19 255.672 280.55 255.48C279.878 255.256 279.366 254.968 278.95 254.616C278.534 254.296 278.246 253.912 278.086 253.496C277.894 253.08 277.798 252.696 277.798 252.312H273.382C273.382 253.272 273.51 254.136 273.766 254.872C273.99 255.608 274.342 256.248 274.79 256.76C275.238 257.304 275.75 257.752 276.358 258.104C276.966 258.456 277.638 258.776 278.342 259C279.046 259.192 279.75 259.352 280.55 259.448C281.318 259.544 282.118 259.576 282.918 259.576C284.454 259.576 285.83 259.384 287.046 259C288.262 258.616 289.254 258.104 290.086 257.432C290.886 256.76 291.526 255.992 291.942 255.096C292.358 254.232 292.582 253.272 292.582 252.28C292.582 251.512 292.486 250.872 292.358 250.296C292.198 249.72 292.006 249.24 291.75 248.824C291.526 248.408 291.238 248.088 290.95 247.8C290.63 247.544 290.342 247.32 290.022 247.128C289.702 246.968 289.382 246.84 289.094 246.744L288.294 246.52V246.456C288.998 246.232 289.606 245.912 290.054 245.56C290.502 245.208 290.854 244.792 291.11 244.376C291.398 243.96 291.558 243.512 291.686 243.064C291.75 242.616 291.814 242.2 291.814 241.784C291.814 241.048 291.654 240.344 291.334 239.576C291.014 238.84 290.502 238.136 289.83 237.528C289.158 236.92 288.294 236.408 287.238 236.024C286.182 235.64 284.902 235.448 283.43 235.448C282.054 235.448 280.838 235.576 279.846 235.832C278.822 236.12 277.99 236.472 277.286 236.888C276.582 237.304 276.038 237.784 275.622 238.328C275.174 238.872 274.854 239.384 274.63 239.928C274.406 240.44 274.246 240.952 274.182 241.432C274.086 241.912 274.054 242.328 274.054 242.648H278.47C278.47 242.488 278.502 242.328 278.534 242.104C278.598 241.88 278.694 241.656 278.822 241.368C278.95 241.112 279.11 240.888 279.334 240.6C279.558 240.344 279.846 240.12 280.198 239.928C280.518 239.704 280.934 239.544 281.414 239.416C281.862 239.288 282.406 239.224 283.078 239.224C283.558 239.224 284.038 239.256 284.518 239.352C285.03 239.448 285.478 239.64 285.862 239.864C286.246 240.088 286.566 240.408 286.822 240.856C287.078 241.272 287.206 241.784 287.206 242.424C287.206 242.936 287.11 243.352 286.95 243.736C286.758 244.12 286.534 244.408 286.246 244.664C285.926 244.952 285.574 245.112 285.19 245.24C284.774 245.368 284.358 245.432 283.91 245.432ZM300.512 248.12V241.976H296.096V259H300.512V251.704H307.008V259H311.424V241.976H307.008V248.12H300.512ZM329.419 255.64V246.616C329.419 246.008 329.323 245.4 329.163 244.792C328.971 244.184 328.619 243.64 328.107 243.128C327.563 242.648 326.827 242.232 325.899 241.912C324.939 241.624 323.691 241.464 322.187 241.464C321.099 241.496 320.203 241.624 319.435 241.848C318.667 242.072 317.995 242.392 317.483 242.744C316.907 243.128 316.491 243.544 316.171 243.992C315.851 244.44 315.563 244.888 315.403 245.304C315.211 245.752 315.083 246.168 315.019 246.52C314.955 246.904 314.923 247.192 314.923 247.384H319.339L319.531 246.456C319.627 246.2 319.787 245.944 320.011 245.72C320.203 245.528 320.491 245.336 320.875 245.208C321.227 245.112 321.675 245.048 322.283 245.048C322.795 245.048 323.243 245.08 323.595 245.176C323.947 245.272 324.203 245.4 324.427 245.592C324.619 245.752 324.779 245.944 324.875 246.2C324.939 246.424 325.003 246.68 325.003 246.968C325.003 247.256 324.939 247.48 324.843 247.672C324.747 247.832 324.619 247.96 324.459 248.056C324.299 248.184 324.139 248.248 323.947 248.28C323.755 248.344 323.595 248.344 323.435 248.376L319.115 249.016C318.379 249.112 317.739 249.304 317.163 249.624C316.587 249.912 316.107 250.296 315.691 250.744C315.307 251.192 314.987 251.704 314.763 252.312C314.539 252.92 314.443 253.56 314.443 254.264C314.443 255.128 314.571 255.896 314.827 256.536C315.083 257.208 315.467 257.752 315.915 258.2C316.395 258.616 316.939 258.968 317.579 259.192C318.219 259.416 318.923 259.512 319.691 259.512C320.427 259.512 321.067 259.448 321.611 259.32C322.155 259.192 322.603 259 323.019 258.776C323.435 258.552 323.787 258.296 324.139 258.008L325.131 257.016C325.131 257.496 325.163 257.88 325.291 258.2L325.547 259H330.443V258.296C330.283 258.264 330.187 258.2 330.059 258.104C329.931 258.008 329.835 257.88 329.739 257.656C329.643 257.496 329.547 257.208 329.515 256.888C329.451 256.568 329.419 256.152 329.419 255.64ZM325.003 250.68V252.408C325.003 252.984 324.907 253.464 324.779 253.88C324.651 254.328 324.459 254.68 324.203 254.968C323.979 255.256 323.723 255.512 323.435 255.672C323.147 255.864 322.859 255.992 322.571 256.12C322.251 256.216 321.995 256.28 321.739 256.312C321.483 256.344 321.259 256.376 321.099 256.376C320.779 256.376 320.491 256.344 320.203 256.248C319.947 256.184 319.723 256.024 319.531 255.864C319.307 255.672 319.147 255.48 319.019 255.192C318.923 254.936 318.859 254.616 318.859 254.264C318.859 253.816 318.923 253.464 319.051 253.176C319.179 252.888 319.371 252.632 319.627 252.408C319.883 252.216 320.203 252.056 320.587 251.928C320.971 251.8 321.419 251.704 321.931 251.608L323.115 251.384C323.563 251.32 323.915 251.192 324.203 251.064C324.459 250.968 324.747 250.84 325.003 250.68ZM342.592 252.28V259H347.008V241.976H342.592V249.016C342.336 249.176 341.984 249.336 341.536 249.496C341.088 249.624 340.512 249.688 339.744 249.688C339.232 249.688 338.784 249.656 338.4 249.592C338.016 249.528 337.728 249.4 337.472 249.208C337.216 249.016 337.024 248.76 336.928 248.44C336.8 248.152 336.736 247.736 336.736 247.256V241.976H332.32V248.12C332.32 249.016 332.448 249.784 332.704 250.392C332.96 251.032 333.344 251.544 333.856 251.928C334.368 252.312 335.008 252.568 335.744 252.76C336.512 252.92 337.344 253.016 338.336 253.016C338.72 253.016 339.136 253.016 339.552 252.952C339.968 252.92 340.384 252.856 340.768 252.792C341.152 252.696 341.504 252.632 341.824 252.536C342.144 252.44 342.4 252.344 342.592 252.28ZM354.389 251.864H366.069C366.069 250.296 365.909 248.888 365.653 247.608C365.397 246.328 364.949 245.208 364.309 244.312C363.669 243.416 362.837 242.712 361.813 242.2C360.789 241.72 359.509 241.464 358.005 241.464C356.565 241.464 355.349 241.688 354.357 242.2C353.333 242.68 352.469 243.32 351.829 244.152C351.189 244.952 350.709 245.88 350.421 246.968C350.101 248.024 349.941 249.144 349.941 250.296C349.941 251.96 350.165 253.368 350.581 254.552C350.997 255.704 351.605 256.664 352.341 257.4C353.077 258.136 353.941 258.68 354.965 259C355.925 259.352 357.013 259.512 358.133 259.512C359.029 259.512 359.829 259.416 360.565 259.224C361.269 259.032 361.909 258.808 362.485 258.488C363.093 258.2 363.573 257.816 363.989 257.432C364.405 257.048 364.757 256.632 365.045 256.216C365.301 255.8 365.493 255.416 365.653 255C365.781 254.616 365.845 254.264 365.845 253.944H361.269C361.173 254.264 361.045 254.52 360.853 254.776C360.661 255 360.437 255.224 360.181 255.384C359.893 255.576 359.637 255.704 359.317 255.768C359.029 255.864 358.709 255.928 358.389 255.928C357.781 255.928 357.269 255.832 356.853 255.672C356.405 255.544 356.053 255.32 355.765 255.064C355.445 254.84 355.189 254.552 355.029 254.232C354.869 253.944 354.709 253.624 354.613 253.336C354.517 253.016 354.453 252.76 354.453 252.472C354.421 252.216 354.389 252.024 354.389 251.864ZM361.461 248.92H354.549C354.549 248.184 354.645 247.544 354.901 247.032C355.093 246.552 355.381 246.136 355.733 245.848C356.053 245.56 356.437 245.336 356.853 245.208C357.237 245.112 357.653 245.048 358.005 245.048C358.389 245.048 358.773 245.112 359.157 245.208C359.573 245.336 359.957 245.56 360.309 245.848C360.629 246.136 360.917 246.552 361.141 247.032C361.365 247.544 361.461 248.184 361.461 248.92ZM373.419 248.12V241.976H369.003V259H373.419V251.704H379.915V259H384.331V241.976H379.915V248.12H373.419ZM392.981 252.472V241.976H388.565V259H393.397L399.413 248.728H399.477V259H403.893V241.976H399.253L393.045 252.472H392.981ZM419.04 252.728V259H423.488V241.976H414.336H413.536C413.216 242.008 412.864 242.008 412.48 242.072C412.064 242.104 411.68 242.2 411.296 242.296C410.88 242.392 410.496 242.52 410.176 242.712C409.888 242.872 409.568 243.064 409.28 243.32C408.992 243.576 408.736 243.864 408.512 244.248C408.256 244.6 408.064 245.016 407.936 245.464C407.808 245.944 407.712 246.488 407.712 247.096C407.712 247.224 407.712 247.384 407.744 247.576C407.744 247.768 407.776 247.96 407.808 248.184L408 248.824C408.064 249.048 408.16 249.272 408.32 249.464C408.512 249.752 408.704 250.008 408.928 250.232C409.12 250.424 409.344 250.584 409.568 250.712C409.76 250.872 409.984 250.968 410.176 251.032L410.688 251.224C410.208 251.352 409.824 251.544 409.504 251.704C409.216 251.864 408.992 252.088 408.832 252.344C408.672 252.568 408.544 252.888 408.48 253.208C408.384 253.528 408.32 253.944 408.288 254.392L408.064 256.44C408.032 256.664 408 256.888 408 257.08L407.904 257.688C407.84 257.912 407.776 258.136 407.68 258.328C407.616 258.552 407.488 258.776 407.36 259H412.032C412.192 258.616 412.288 258.232 412.352 257.816L412.416 256.888L412.48 255.256C412.512 254.68 412.608 254.232 412.736 253.88C412.896 253.56 413.12 253.304 413.408 253.112C413.696 252.952 414.08 252.856 414.528 252.792C414.976 252.76 415.52 252.728 416.16 252.728H419.04ZM415.488 245.304H419.04V249.592H415.36C415.008 249.592 414.656 249.592 414.304 249.56C413.952 249.56 413.632 249.464 413.344 249.336C413.056 249.176 412.8 248.984 412.64 248.696C412.448 248.408 412.352 248.024 412.352 247.48C412.352 246.936 412.448 246.52 412.64 246.232C412.8 245.912 413.056 245.688 413.344 245.56C413.664 245.432 413.984 245.336 414.368 245.336C414.72 245.304 415.104 245.304 415.488 245.304Z"
     fill="#423F45"
     id="path118" />
  <path
     d="M102.297 303.852C102.391 304.133 102.449 304.355 102.473 304.52C102.496 304.684 102.465 304.809 102.379 304.895C102.293 304.973 102.141 305.02 101.922 305.035C101.703 305.059 101.402 305.07 101.02 305.07C100.621 305.07 100.309 305.062 100.082 305.047C99.8633 305.039 99.6953 305.02 99.5781 304.988C99.4609 304.949 99.3789 304.898 99.332 304.836C99.2852 304.773 99.2461 304.691 99.2148 304.59L98.1953 301.543H92.5L91.5391 304.508C91.5078 304.617 91.4648 304.711 91.4102 304.789C91.3633 304.859 91.2812 304.918 91.1641 304.965C91.0547 305.004 90.8945 305.031 90.6836 305.047C90.4805 305.062 90.2109 305.07 89.875 305.07C89.5156 305.07 89.2344 305.059 89.0312 305.035C88.8281 305.012 88.6875 304.957 88.6094 304.871C88.5312 304.777 88.5039 304.648 88.5273 304.484C88.5508 304.32 88.6094 304.102 88.7031 303.828L93.3789 290.375C93.4258 290.242 93.4805 290.137 93.543 290.059C93.6055 289.973 93.7031 289.91 93.8359 289.871C93.9766 289.824 94.168 289.797 94.4102 289.789C94.6523 289.773 94.9727 289.766 95.3711 289.766C95.832 289.766 96.1992 289.773 96.4727 289.789C96.7461 289.797 96.957 289.824 97.1055 289.871C97.2617 289.91 97.3711 289.973 97.4336 290.059C97.5039 290.145 97.5625 290.262 97.6094 290.41L102.297 303.852ZM95.3359 292.73H95.3242L93.1797 299.176H97.4805L95.3359 292.73Z"
     fill="#4F4B61"
     id="path120" />
  <path
     d="M191.827 296.727C191.827 297.344 191.796 297.984 191.733 298.648C191.671 299.305 191.55 299.949 191.37 300.582C191.198 301.215 190.956 301.816 190.643 302.387C190.339 302.957 189.94 303.457 189.448 303.887C188.964 304.309 188.37 304.645 187.667 304.895C186.971 305.145 186.147 305.27 185.194 305.27C184.858 305.27 184.522 305.246 184.186 305.199C183.858 305.152 183.557 305.094 183.284 305.023C183.011 304.953 182.776 304.879 182.581 304.801C182.393 304.723 182.257 304.645 182.171 304.566C182.085 304.48 182.022 304.359 181.983 304.203C181.944 304.047 181.925 303.828 181.925 303.547C181.925 303.289 181.929 303.082 181.936 302.926C181.952 302.77 181.975 302.648 182.007 302.562C182.046 302.477 182.089 302.422 182.136 302.398C182.19 302.367 182.253 302.352 182.323 302.352C182.417 302.352 182.55 302.379 182.721 302.434C182.893 302.488 183.1 302.551 183.343 302.621C183.593 302.691 183.874 302.754 184.186 302.809C184.499 302.863 184.846 302.891 185.229 302.891C185.886 302.891 186.44 302.773 186.893 302.539C187.346 302.305 187.714 301.988 187.995 301.59C188.276 301.191 188.483 300.73 188.616 300.207C188.749 299.684 188.823 299.133 188.839 298.555C188.479 298.781 188.046 298.98 187.538 299.152C187.03 299.316 186.448 299.398 185.792 299.398C184.987 299.398 184.304 299.293 183.741 299.082C183.179 298.871 182.721 298.566 182.37 298.168C182.018 297.77 181.761 297.285 181.596 296.715C181.44 296.145 181.362 295.5 181.362 294.781C181.362 294.023 181.475 293.328 181.702 292.695C181.929 292.055 182.264 291.504 182.71 291.043C183.155 290.574 183.71 290.211 184.374 289.953C185.038 289.695 185.807 289.566 186.682 289.566C187.386 289.566 187.999 289.648 188.522 289.812C189.054 289.977 189.507 290.211 189.882 290.516C190.264 290.82 190.581 291.191 190.831 291.629C191.089 292.059 191.288 292.539 191.429 293.07C191.577 293.602 191.679 294.176 191.733 294.793C191.796 295.41 191.827 296.055 191.827 296.727ZM188.768 296.305C188.768 295.469 188.721 294.77 188.628 294.207C188.534 293.645 188.393 293.195 188.206 292.859C188.018 292.523 187.784 292.285 187.503 292.145C187.221 292.004 186.893 291.934 186.518 291.934C186.151 291.934 185.835 292 185.569 292.133C185.304 292.258 185.081 292.438 184.901 292.672C184.729 292.906 184.6 293.184 184.514 293.504C184.429 293.824 184.386 294.176 184.386 294.559C184.386 294.973 184.421 295.34 184.491 295.66C184.569 295.973 184.686 296.234 184.843 296.445C185.007 296.648 185.218 296.801 185.475 296.902C185.733 297.004 186.046 297.055 186.413 297.055C186.866 297.055 187.292 296.988 187.69 296.855C188.096 296.715 188.456 296.531 188.768 296.305Z"
     fill="#4F4B61"
     id="path122" />
  <path
     d="M282.437 303.828C282.437 304.047 282.425 304.234 282.401 304.391C282.378 304.539 282.343 304.66 282.296 304.754C282.257 304.84 282.21 304.902 282.155 304.941C282.101 304.98 282.038 305 281.968 305H273.601C273.538 305 273.48 304.98 273.425 304.941C273.37 304.902 273.319 304.84 273.273 304.754C273.233 304.66 273.202 304.539 273.179 304.391C273.155 304.234 273.144 304.047 273.144 303.828C273.144 303.602 273.151 303.414 273.167 303.266C273.191 303.109 273.222 302.984 273.261 302.891C273.308 302.797 273.358 302.73 273.413 302.691C273.468 302.645 273.53 302.621 273.601 302.621H276.425V292.754L273.987 294.102C273.808 294.188 273.659 294.242 273.542 294.266C273.433 294.281 273.343 294.258 273.273 294.195C273.21 294.125 273.167 294.008 273.144 293.844C273.12 293.68 273.108 293.449 273.108 293.152C273.108 292.965 273.112 292.812 273.12 292.695C273.128 292.57 273.148 292.465 273.179 292.379C273.21 292.293 273.253 292.223 273.308 292.168C273.362 292.113 273.437 292.055 273.53 291.992L276.788 289.883C276.827 289.852 276.874 289.828 276.929 289.812C276.991 289.789 277.069 289.773 277.163 289.766C277.257 289.75 277.378 289.742 277.526 289.742C277.683 289.734 277.882 289.73 278.124 289.73C278.421 289.73 278.659 289.738 278.839 289.754C279.026 289.762 279.167 289.781 279.261 289.812C279.355 289.836 279.417 289.871 279.448 289.918C279.48 289.965 279.495 290.023 279.495 290.094V302.621H281.968C282.038 302.621 282.101 302.645 282.155 302.691C282.218 302.73 282.269 302.797 282.308 302.891C282.355 302.984 282.386 303.109 282.401 303.266C282.425 303.414 282.437 303.602 282.437 303.828ZM294.776 296.727C294.776 297.344 294.745 297.984 294.683 298.648C294.62 299.305 294.499 299.949 294.319 300.582C294.148 301.215 293.905 301.816 293.593 302.387C293.288 302.957 292.89 303.457 292.398 303.887C291.913 304.309 291.319 304.645 290.616 304.895C289.921 305.145 289.097 305.27 288.144 305.27C287.808 305.27 287.472 305.246 287.136 305.199C286.808 305.152 286.507 305.094 286.233 305.023C285.96 304.953 285.726 304.879 285.53 304.801C285.343 304.723 285.206 304.645 285.12 304.566C285.034 304.48 284.972 304.359 284.933 304.203C284.894 304.047 284.874 303.828 284.874 303.547C284.874 303.289 284.878 303.082 284.886 302.926C284.901 302.77 284.925 302.648 284.956 302.562C284.995 302.477 285.038 302.422 285.085 302.398C285.14 302.367 285.202 302.352 285.273 302.352C285.366 302.352 285.499 302.379 285.671 302.434C285.843 302.488 286.05 302.551 286.292 302.621C286.542 302.691 286.823 302.754 287.136 302.809C287.448 302.863 287.796 302.891 288.179 302.891C288.835 302.891 289.39 302.773 289.843 302.539C290.296 302.305 290.663 301.988 290.944 301.59C291.226 301.191 291.433 300.73 291.566 300.207C291.698 299.684 291.773 299.133 291.788 298.555C291.429 298.781 290.995 298.98 290.487 299.152C289.98 299.316 289.398 299.398 288.741 299.398C287.937 299.398 287.253 299.293 286.691 299.082C286.128 298.871 285.671 298.566 285.319 298.168C284.968 297.77 284.71 297.285 284.546 296.715C284.39 296.145 284.312 295.5 284.312 294.781C284.312 294.023 284.425 293.328 284.651 292.695C284.878 292.055 285.214 291.504 285.659 291.043C286.105 290.574 286.659 290.211 287.323 289.953C287.987 289.695 288.757 289.566 289.632 289.566C290.335 289.566 290.948 289.648 291.472 289.812C292.003 289.977 292.456 290.211 292.831 290.516C293.214 290.82 293.53 291.191 293.78 291.629C294.038 292.059 294.237 292.539 294.378 293.07C294.526 293.602 294.628 294.176 294.683 294.793C294.745 295.41 294.776 296.055 294.776 296.727ZM291.718 296.305C291.718 295.469 291.671 294.77 291.577 294.207C291.483 293.645 291.343 293.195 291.155 292.859C290.968 292.523 290.733 292.285 290.452 292.145C290.171 292.004 289.843 291.934 289.468 291.934C289.101 291.934 288.784 292 288.519 292.133C288.253 292.258 288.03 292.438 287.851 292.672C287.679 292.906 287.55 293.184 287.464 293.504C287.378 293.824 287.335 294.176 287.335 294.559C287.335 294.973 287.37 295.34 287.441 295.66C287.519 295.973 287.636 296.234 287.792 296.445C287.956 296.648 288.167 296.801 288.425 296.902C288.683 297.004 288.995 297.055 289.362 297.055C289.816 297.055 290.241 296.988 290.64 296.855C291.046 296.715 291.405 296.531 291.718 296.305Z"
     fill="#4F4B61"
     id="path124" />
  <path
     d="M382.19 300.078C382.19 300.898 382.046 301.633 381.757 302.281C381.475 302.922 381.073 303.465 380.55 303.91C380.034 304.348 379.409 304.684 378.675 304.918C377.948 305.152 377.139 305.27 376.249 305.27C375.78 305.27 375.335 305.238 374.913 305.176C374.491 305.121 374.112 305.051 373.776 304.965C373.44 304.871 373.163 304.781 372.944 304.695C372.733 304.602 372.593 304.527 372.522 304.473C372.46 304.41 372.413 304.344 372.382 304.273C372.35 304.203 372.323 304.121 372.3 304.027C372.284 303.926 372.272 303.801 372.264 303.652C372.257 303.504 372.253 303.328 372.253 303.125C372.253 302.906 372.261 302.723 372.276 302.574C372.292 302.418 372.315 302.293 372.346 302.199C372.386 302.105 372.428 302.039 372.475 302C372.522 301.961 372.577 301.941 372.639 301.941C372.718 301.941 372.835 301.988 372.991 302.082C373.155 302.168 373.366 302.266 373.624 302.375C373.889 302.484 374.21 302.586 374.585 302.68C374.96 302.766 375.409 302.809 375.932 302.809C376.386 302.809 376.796 302.762 377.163 302.668C377.538 302.574 377.854 302.426 378.112 302.223C378.37 302.012 378.569 301.75 378.71 301.438C378.85 301.125 378.921 300.75 378.921 300.312C378.921 299.938 378.862 299.605 378.745 299.316C378.628 299.02 378.444 298.77 378.194 298.566C377.944 298.363 377.62 298.211 377.221 298.109C376.823 298.008 376.339 297.957 375.768 297.957C375.315 297.957 374.901 297.98 374.526 298.027C374.159 298.074 373.811 298.098 373.483 298.098C373.257 298.098 373.093 298.043 372.991 297.934C372.897 297.816 372.85 297.605 372.85 297.301V290.715C372.85 290.402 372.909 290.18 373.026 290.047C373.151 289.906 373.346 289.836 373.612 289.836H380.796C380.866 289.836 380.932 289.859 380.995 289.906C381.057 289.953 381.108 290.027 381.147 290.129C381.194 290.23 381.225 290.367 381.241 290.539C381.264 290.703 381.276 290.902 381.276 291.137C381.276 291.605 381.233 291.945 381.147 292.156C381.069 292.367 380.952 292.473 380.796 292.473H375.405V295.719C375.678 295.688 375.948 295.668 376.214 295.66C376.487 295.652 376.772 295.648 377.069 295.648C377.889 295.648 378.616 295.746 379.249 295.941C379.889 296.129 380.425 296.41 380.854 296.785C381.292 297.152 381.624 297.613 381.85 298.168C382.077 298.715 382.19 299.352 382.19 300.078ZM394.8 297.359C394.8 298.57 394.702 299.664 394.507 300.641C394.311 301.617 393.991 302.449 393.546 303.137C393.108 303.824 392.534 304.352 391.823 304.719C391.12 305.086 390.257 305.27 389.233 305.27C388.194 305.27 387.335 305.094 386.655 304.742C385.975 304.383 385.436 303.871 385.038 303.207C384.639 302.535 384.358 301.719 384.194 300.758C384.038 299.789 383.96 298.695 383.96 297.477C383.96 296.273 384.057 295.184 384.253 294.207C384.456 293.223 384.776 292.387 385.214 291.699C385.659 291.012 386.233 290.484 386.936 290.117C387.647 289.75 388.511 289.566 389.526 289.566C390.565 289.566 391.425 289.746 392.104 290.105C392.792 290.457 393.335 290.969 393.733 291.641C394.132 292.305 394.409 293.121 394.565 294.09C394.721 295.051 394.8 296.141 394.8 297.359ZM391.694 297.512C391.694 296.793 391.675 296.16 391.636 295.613C391.596 295.059 391.534 294.578 391.448 294.172C391.37 293.766 391.268 293.422 391.143 293.141C391.026 292.859 390.882 292.637 390.71 292.473C390.538 292.301 390.343 292.18 390.124 292.109C389.905 292.039 389.663 292.004 389.397 292.004C388.936 292.004 388.553 292.117 388.249 292.344C387.952 292.562 387.714 292.895 387.534 293.34C387.362 293.785 387.241 294.34 387.171 295.004C387.1 295.668 387.065 296.441 387.065 297.324C387.065 298.402 387.108 299.297 387.194 300.008C387.28 300.711 387.413 301.273 387.593 301.695C387.78 302.109 388.018 302.402 388.307 302.574C388.596 302.738 388.944 302.82 389.35 302.82C389.655 302.82 389.925 302.773 390.159 302.68C390.393 302.578 390.596 302.43 390.768 302.234C390.948 302.039 391.096 301.793 391.214 301.496C391.331 301.199 391.425 300.855 391.495 300.465C391.573 300.074 391.624 299.633 391.647 299.141C391.678 298.648 391.694 298.105 391.694 297.512Z"
     fill="#4F4B61"
     id="path126" />
  <path
     d="M487.424 294.727C487.424 295.344 487.393 295.984 487.33 296.648C487.268 297.305 487.146 297.949 486.967 298.582C486.795 299.215 486.553 299.816 486.24 300.387C485.936 300.957 485.537 301.457 485.045 301.887C484.561 302.309 483.967 302.645 483.264 302.895C482.568 303.145 481.744 303.27 480.791 303.27C480.455 303.27 480.119 303.246 479.783 303.199C479.455 303.152 479.154 303.094 478.881 303.023C478.607 302.953 478.373 302.879 478.178 302.801C477.99 302.723 477.854 302.645 477.768 302.566C477.682 302.48 477.619 302.359 477.58 302.203C477.541 302.047 477.521 301.828 477.521 301.547C477.521 301.289 477.525 301.082 477.533 300.926C477.549 300.77 477.572 300.648 477.604 300.562C477.643 300.477 477.686 300.422 477.732 300.398C477.787 300.367 477.85 300.352 477.92 300.352C478.014 300.352 478.146 300.379 478.318 300.434C478.49 300.488 478.697 300.551 478.939 300.621C479.189 300.691 479.471 300.754 479.783 300.809C480.096 300.863 480.443 300.891 480.826 300.891C481.482 300.891 482.037 300.773 482.49 300.539C482.943 300.305 483.311 299.988 483.592 299.59C483.873 299.191 484.08 298.73 484.213 298.207C484.346 297.684 484.42 297.133 484.436 296.555C484.076 296.781 483.643 296.98 483.135 297.152C482.627 297.316 482.045 297.398 481.389 297.398C480.584 297.398 479.9 297.293 479.338 297.082C478.775 296.871 478.318 296.566 477.967 296.168C477.615 295.77 477.357 295.285 477.193 294.715C477.037 294.145 476.959 293.5 476.959 292.781C476.959 292.023 477.072 291.328 477.299 290.695C477.525 290.055 477.861 289.504 478.307 289.043C478.752 288.574 479.307 288.211 479.971 287.953C480.635 287.695 481.404 287.566 482.279 287.566C482.982 287.566 483.596 287.648 484.119 287.812C484.65 287.977 485.104 288.211 485.479 288.516C485.861 288.82 486.178 289.191 486.428 289.629C486.686 290.059 486.885 290.539 487.025 291.07C487.174 291.602 487.275 292.176 487.33 292.793C487.393 293.41 487.424 294.055 487.424 294.727ZM484.365 294.305C484.365 293.469 484.318 292.77 484.225 292.207C484.131 291.645 483.99 291.195 483.803 290.859C483.615 290.523 483.381 290.285 483.1 290.145C482.818 290.004 482.49 289.934 482.115 289.934C481.748 289.934 481.432 290 481.166 290.133C480.9 290.258 480.678 290.438 480.498 290.672C480.326 290.906 480.197 291.184 480.111 291.504C480.025 291.824 479.982 292.176 479.982 292.559C479.982 292.973 480.018 293.34 480.088 293.66C480.166 293.973 480.283 294.234 480.439 294.445C480.604 294.648 480.814 294.801 481.072 294.902C481.33 295.004 481.643 295.055 482.01 295.055C482.463 295.055 482.889 294.988 483.287 294.855C483.693 294.715 484.053 294.531 484.365 294.305ZM499.588 294.727C499.588 295.344 499.557 295.984 499.494 296.648C499.432 297.305 499.311 297.949 499.131 298.582C498.959 299.215 498.717 299.816 498.404 300.387C498.1 300.957 497.701 301.457 497.209 301.887C496.725 302.309 496.131 302.645 495.428 302.895C494.732 303.145 493.908 303.27 492.955 303.27C492.619 303.27 492.283 303.246 491.947 303.199C491.619 303.152 491.318 303.094 491.045 303.023C490.771 302.953 490.537 302.879 490.342 302.801C490.154 302.723 490.018 302.645 489.932 302.566C489.846 302.48 489.783 302.359 489.744 302.203C489.705 302.047 489.686 301.828 489.686 301.547C489.686 301.289 489.689 301.082 489.697 300.926C489.713 300.77 489.736 300.648 489.768 300.562C489.807 300.477 489.85 300.422 489.896 300.398C489.951 300.367 490.014 300.352 490.084 300.352C490.178 300.352 490.311 300.379 490.482 300.434C490.654 300.488 490.861 300.551 491.104 300.621C491.354 300.691 491.635 300.754 491.947 300.809C492.26 300.863 492.607 300.891 492.99 300.891C493.646 300.891 494.201 300.773 494.654 300.539C495.107 300.305 495.475 299.988 495.756 299.59C496.037 299.191 496.244 298.73 496.377 298.207C496.51 297.684 496.584 297.133 496.6 296.555C496.24 296.781 495.807 296.98 495.299 297.152C494.791 297.316 494.209 297.398 493.553 297.398C492.748 297.398 492.064 297.293 491.502 297.082C490.939 296.871 490.482 296.566 490.131 296.168C489.779 295.77 489.521 295.285 489.357 294.715C489.201 294.145 489.123 293.5 489.123 292.781C489.123 292.023 489.236 291.328 489.463 290.695C489.689 290.055 490.025 289.504 490.471 289.043C490.916 288.574 491.471 288.211 492.135 287.953C492.799 287.695 493.568 287.566 494.443 287.566C495.146 287.566 495.76 287.648 496.283 287.812C496.814 287.977 497.268 288.211 497.643 288.516C498.025 288.82 498.342 289.191 498.592 289.629C498.85 290.059 499.049 290.539 499.189 291.07C499.338 291.602 499.439 292.176 499.494 292.793C499.557 293.41 499.588 294.055 499.588 294.727ZM496.529 294.305C496.529 293.469 496.482 292.77 496.389 292.207C496.295 291.645 496.154 291.195 495.967 290.859C495.779 290.523 495.545 290.285 495.264 290.145C494.982 290.004 494.654 289.934 494.279 289.934C493.912 289.934 493.596 290 493.33 290.133C493.064 290.258 492.842 290.438 492.662 290.672C492.49 290.906 492.361 291.184 492.275 291.504C492.189 291.824 492.146 292.176 492.146 292.559C492.146 292.973 492.182 293.34 492.252 293.66C492.33 293.973 492.447 294.234 492.604 294.445C492.768 294.648 492.979 294.801 493.236 294.902C493.494 295.004 493.807 295.055 494.174 295.055C494.627 295.055 495.053 294.988 495.451 294.855C495.857 294.715 496.217 294.531 496.529 294.305Z"
     fill="#4F4B61"
     id="path128" />
  <path
     d="M586.457 294.727C586.457 295.344 586.426 295.984 586.363 296.648C586.301 297.305 586.18 297.949 586 298.582C585.828 299.215 585.586 299.816 585.273 300.387C584.969 300.957 584.57 301.457 584.078 301.887C583.594 302.309 583 302.645 582.297 302.895C581.602 303.145 580.777 303.27 579.824 303.27C579.488 303.27 579.152 303.246 578.816 303.199C578.488 303.152 578.188 303.094 577.914 303.023C577.641 302.953 577.406 302.879 577.211 302.801C577.023 302.723 576.887 302.645 576.801 302.566C576.715 302.48 576.652 302.359 576.613 302.203C576.574 302.047 576.555 301.828 576.555 301.547C576.555 301.289 576.559 301.082 576.566 300.926C576.582 300.77 576.605 300.648 576.637 300.562C576.676 300.477 576.719 300.422 576.766 300.398C576.82 300.367 576.883 300.352 576.953 300.352C577.047 300.352 577.18 300.379 577.352 300.434C577.523 300.488 577.73 300.551 577.973 300.621C578.223 300.691 578.504 300.754 578.816 300.809C579.129 300.863 579.477 300.891 579.859 300.891C580.516 300.891 581.07 300.773 581.523 300.539C581.977 300.305 582.344 299.988 582.625 299.59C582.906 299.191 583.113 298.73 583.246 298.207C583.379 297.684 583.453 297.133 583.469 296.555C583.109 296.781 582.676 296.98 582.168 297.152C581.66 297.316 581.078 297.398 580.422 297.398C579.617 297.398 578.934 297.293 578.371 297.082C577.809 296.871 577.352 296.566 577 296.168C576.648 295.77 576.391 295.285 576.227 294.715C576.07 294.145 575.992 293.5 575.992 292.781C575.992 292.023 576.105 291.328 576.332 290.695C576.559 290.055 576.895 289.504 577.34 289.043C577.785 288.574 578.34 288.211 579.004 287.953C579.668 287.695 580.438 287.566 581.312 287.566C582.016 287.566 582.629 287.648 583.152 287.812C583.684 287.977 584.137 288.211 584.512 288.516C584.895 288.82 585.211 289.191 585.461 289.629C585.719 290.059 585.918 290.539 586.059 291.07C586.207 291.602 586.309 292.176 586.363 292.793C586.426 293.41 586.457 294.055 586.457 294.727ZM583.398 294.305C583.398 293.469 583.352 292.77 583.258 292.207C583.164 291.645 583.023 291.195 582.836 290.859C582.648 290.523 582.414 290.285 582.133 290.145C581.852 290.004 581.523 289.934 581.148 289.934C580.781 289.934 580.465 290 580.199 290.133C579.934 290.258 579.711 290.438 579.531 290.672C579.359 290.906 579.23 291.184 579.145 291.504C579.059 291.824 579.016 292.176 579.016 292.559C579.016 292.973 579.051 293.34 579.121 293.66C579.199 293.973 579.316 294.234 579.473 294.445C579.637 294.648 579.848 294.801 580.105 294.902C580.363 295.004 580.676 295.055 581.043 295.055C581.496 295.055 581.922 294.988 582.32 294.855C582.727 294.715 583.086 294.531 583.398 294.305ZM598.621 294.727C598.621 295.344 598.59 295.984 598.527 296.648C598.465 297.305 598.344 297.949 598.164 298.582C597.992 299.215 597.75 299.816 597.438 300.387C597.133 300.957 596.734 301.457 596.242 301.887C595.758 302.309 595.164 302.645 594.461 302.895C593.766 303.145 592.941 303.27 591.988 303.27C591.652 303.27 591.316 303.246 590.98 303.199C590.652 303.152 590.352 303.094 590.078 303.023C589.805 302.953 589.57 302.879 589.375 302.801C589.188 302.723 589.051 302.645 588.965 302.566C588.879 302.48 588.816 302.359 588.777 302.203C588.738 302.047 588.719 301.828 588.719 301.547C588.719 301.289 588.723 301.082 588.73 300.926C588.746 300.77 588.77 300.648 588.801 300.562C588.84 300.477 588.883 300.422 588.93 300.398C588.984 300.367 589.047 300.352 589.117 300.352C589.211 300.352 589.344 300.379 589.516 300.434C589.688 300.488 589.895 300.551 590.137 300.621C590.387 300.691 590.668 300.754 590.98 300.809C591.293 300.863 591.641 300.891 592.023 300.891C592.68 300.891 593.234 300.773 593.688 300.539C594.141 300.305 594.508 299.988 594.789 299.59C595.07 299.191 595.277 298.73 595.41 298.207C595.543 297.684 595.617 297.133 595.633 296.555C595.273 296.781 594.84 296.98 594.332 297.152C593.824 297.316 593.242 297.398 592.586 297.398C591.781 297.398 591.098 297.293 590.535 297.082C589.973 296.871 589.516 296.566 589.164 296.168C588.812 295.77 588.555 295.285 588.391 294.715C588.234 294.145 588.156 293.5 588.156 292.781C588.156 292.023 588.27 291.328 588.496 290.695C588.723 290.055 589.059 289.504 589.504 289.043C589.949 288.574 590.504 288.211 591.168 287.953C591.832 287.695 592.602 287.566 593.477 287.566C594.18 287.566 594.793 287.648 595.316 287.812C595.848 287.977 596.301 288.211 596.676 288.516C597.059 288.82 597.375 289.191 597.625 289.629C597.883 290.059 598.082 290.539 598.223 291.07C598.371 291.602 598.473 292.176 598.527 292.793C598.59 293.41 598.621 294.055 598.621 294.727ZM595.562 294.305C595.562 293.469 595.516 292.77 595.422 292.207C595.328 291.645 595.188 291.195 595 290.859C594.812 290.523 594.578 290.285 594.297 290.145C594.016 290.004 593.688 289.934 593.312 289.934C592.945 289.934 592.629 290 592.363 290.133C592.098 290.258 591.875 290.438 591.695 290.672C591.523 290.906 591.395 291.184 591.309 291.504C591.223 291.824 591.18 292.176 591.18 292.559C591.18 292.973 591.215 293.34 591.285 293.66C591.363 293.973 591.48 294.234 591.637 294.445C591.801 294.648 592.012 294.801 592.27 294.902C592.527 295.004 592.84 295.055 593.207 295.055C593.66 295.055 594.086 294.988 594.484 294.855C594.891 294.715 595.25 294.531 595.562 294.305ZM610.785 294.727C610.785 295.344 610.754 295.984 610.691 296.648C610.629 297.305 610.508 297.949 610.328 298.582C610.156 299.215 609.914 299.816 609.602 300.387C609.297 300.957 608.898 301.457 608.406 301.887C607.922 302.309 607.328 302.645 606.625 302.895C605.93 303.145 605.105 303.27 604.152 303.27C603.816 303.27 603.48 303.246 603.145 303.199C602.816 303.152 602.516 303.094 602.242 303.023C601.969 302.953 601.734 302.879 601.539 302.801C601.352 302.723 601.215 302.645 601.129 302.566C601.043 302.48 600.98 302.359 600.941 302.203C600.902 302.047 600.883 301.828 600.883 301.547C600.883 301.289 600.887 301.082 600.895 300.926C600.91 300.77 600.934 300.648 600.965 300.562C601.004 300.477 601.047 300.422 601.094 300.398C601.148 300.367 601.211 300.352 601.281 300.352C601.375 300.352 601.508 300.379 601.68 300.434C601.852 300.488 602.059 300.551 602.301 300.621C602.551 300.691 602.832 300.754 603.145 300.809C603.457 300.863 603.805 300.891 604.188 300.891C604.844 300.891 605.398 300.773 605.852 300.539C606.305 300.305 606.672 299.988 606.953 299.59C607.234 299.191 607.441 298.73 607.574 298.207C607.707 297.684 607.781 297.133 607.797 296.555C607.438 296.781 607.004 296.98 606.496 297.152C605.988 297.316 605.406 297.398 604.75 297.398C603.945 297.398 603.262 297.293 602.699 297.082C602.137 296.871 601.68 296.566 601.328 296.168C600.977 295.77 600.719 295.285 600.555 294.715C600.398 294.145 600.32 293.5 600.32 292.781C600.32 292.023 600.434 291.328 600.66 290.695C600.887 290.055 601.223 289.504 601.668 289.043C602.113 288.574 602.668 288.211 603.332 287.953C603.996 287.695 604.766 287.566 605.641 287.566C606.344 287.566 606.957 287.648 607.48 287.812C608.012 287.977 608.465 288.211 608.84 288.516C609.223 288.82 609.539 289.191 609.789 289.629C610.047 290.059 610.246 290.539 610.387 291.07C610.535 291.602 610.637 292.176 610.691 292.793C610.754 293.41 610.785 294.055 610.785 294.727ZM607.727 294.305C607.727 293.469 607.68 292.77 607.586 292.207C607.492 291.645 607.352 291.195 607.164 290.859C606.977 290.523 606.742 290.285 606.461 290.145C606.18 290.004 605.852 289.934 605.477 289.934C605.109 289.934 604.793 290 604.527 290.133C604.262 290.258 604.039 290.438 603.859 290.672C603.688 290.906 603.559 291.184 603.473 291.504C603.387 291.824 603.344 292.176 603.344 292.559C603.344 292.973 603.379 293.34 603.449 293.66C603.527 293.973 603.645 294.234 603.801 294.445C603.965 294.648 604.176 294.801 604.434 294.902C604.691 295.004 605.004 295.055 605.371 295.055C605.824 295.055 606.25 294.988 606.648 294.855C607.055 294.715 607.414 294.531 607.727 294.305Z"
     fill="#4F4B61"
     id="path130" />
  <rect
     x="84"
     y="314"
     width="531"
     height="21"
     rx="10"
     fill="#FFD748"
     id="rect132" />
  <g
     clip-path="url(#clip0_2_9)"
     id="g152">
    <g
       filter="url(#filter0_d_2_9)"
       id="g150">
      <g
         filter="url(#filter1_d_2_9)"
         id="g146">
        <rect
           x="220"
           y="548"
           width="260"
           height="60"
           rx="20"
           fill="#38DF7A"
           id="rect144" />
      </g>
      <path
         d="M299.848 581.672V566.024H295.24V589H300.104L309.192 573.448H309.256V589H313.864V566.024H309L299.912 581.672H299.848ZM329.662 575.56V571.976H318.206V589H322.622V575.56H329.662ZM336.521 574.408V571.976H332.297V595.592H336.713V586.888H336.777C337.065 587.4 337.385 587.816 337.769 588.168C338.121 588.488 338.505 588.776 338.953 588.968C339.369 589.16 339.785 589.32 340.233 589.384C340.649 589.48 341.097 589.512 341.513 589.512C342.761 589.512 343.817 589.288 344.745 588.84C345.641 588.36 346.377 587.72 346.985 586.92C347.593 586.088 348.041 585.096 348.329 583.944C348.649 582.824 348.777 581.544 348.777 580.168C348.777 579.048 348.681 578.088 348.457 577.224C348.265 576.36 347.977 575.624 347.625 574.984C347.273 574.344 346.857 573.768 346.377 573.32C345.929 572.904 345.417 572.52 344.905 572.264C344.361 571.976 343.817 571.784 343.273 571.656C342.729 571.528 342.185 571.464 341.673 571.464C341.033 571.464 340.489 571.528 340.009 571.656C339.497 571.752 339.049 571.944 338.633 572.168C338.249 572.392 337.865 572.712 337.545 573.064C337.193 573.448 336.873 573.896 336.585 574.408H336.521ZM340.361 575.432C341.065 575.432 341.641 575.592 342.153 575.88C342.633 576.2 343.017 576.584 343.337 577.064C343.625 577.544 343.817 578.088 343.977 578.696C344.105 579.304 344.169 579.88 344.169 580.488C344.169 580.808 344.169 581.16 344.137 581.544C344.073 581.928 344.009 582.312 343.913 582.696C343.785 583.08 343.657 583.464 343.497 583.816C343.305 584.2 343.049 584.52 342.793 584.808C342.505 585.064 342.153 585.288 341.769 585.48C341.385 585.64 340.905 585.736 340.361 585.736C339.817 585.736 339.337 585.64 338.953 585.48C338.569 585.288 338.217 585.064 337.929 584.808C337.641 584.52 337.417 584.2 337.257 583.816C337.065 583.464 336.937 583.08 336.809 582.696C336.713 582.312 336.649 581.928 336.617 581.544C336.553 581.16 336.553 580.808 336.553 580.488C336.553 579.88 336.617 579.304 336.745 578.696C336.905 578.088 337.097 577.544 337.417 577.064C337.705 576.584 338.089 576.2 338.569 575.88C339.049 575.592 339.657 575.432 340.361 575.432ZM365.747 585.64V576.616C365.747 576.008 365.651 575.4 365.491 574.792C365.299 574.184 364.947 573.64 364.435 573.128C363.891 572.648 363.155 572.232 362.227 571.912C361.267 571.624 360.019 571.464 358.515 571.464C357.427 571.496 356.531 571.624 355.763 571.848C354.995 572.072 354.323 572.392 353.811 572.744C353.235 573.128 352.819 573.544 352.499 573.992C352.179 574.44 351.891 574.888 351.731 575.304C351.539 575.752 351.411 576.168 351.347 576.52C351.283 576.904 351.251 577.192 351.251 577.384H355.667L355.859 576.456C355.955 576.2 356.115 575.944 356.339 575.72C356.531 575.528 356.819 575.336 357.203 575.208C357.555 575.112 358.003 575.048 358.611 575.048C359.123 575.048 359.571 575.08 359.923 575.176C360.275 575.272 360.531 575.4 360.755 575.592C360.947 575.752 361.107 575.944 361.203 576.2C361.267 576.424 361.331 576.68 361.331 576.968C361.331 577.256 361.267 577.48 361.171 577.672C361.075 577.832 360.947 577.96 360.787 578.056C360.627 578.184 360.467 578.248 360.275 578.28C360.083 578.344 359.923 578.344 359.763 578.376L355.443 579.016C354.707 579.112 354.067 579.304 353.491 579.624C352.915 579.912 352.435 580.296 352.019 580.744C351.635 581.192 351.315 581.704 351.091 582.312C350.867 582.92 350.771 583.56 350.771 584.264C350.771 585.128 350.899 585.896 351.155 586.536C351.411 587.208 351.795 587.752 352.243 588.2C352.723 588.616 353.267 588.968 353.907 589.192C354.547 589.416 355.251 589.512 356.019 589.512C356.755 589.512 357.395 589.448 357.939 589.32C358.483 589.192 358.931 589 359.347 588.776C359.763 588.552 360.115 588.296 360.467 588.008L361.459 587.016C361.459 587.496 361.491 587.88 361.619 588.2L361.875 589H366.771V588.296C366.611 588.264 366.515 588.2 366.387 588.104C366.259 588.008 366.163 587.88 366.067 587.656C365.971 587.496 365.875 587.208 365.843 586.888C365.779 586.568 365.747 586.152 365.747 585.64ZM361.331 580.68V582.408C361.331 582.984 361.235 583.464 361.107 583.88C360.979 584.328 360.787 584.68 360.531 584.968C360.307 585.256 360.051 585.512 359.763 585.672C359.475 585.864 359.187 585.992 358.899 586.12C358.579 586.216 358.323 586.28 358.067 586.312C357.811 586.344 357.587 586.376 357.427 586.376C357.107 586.376 356.819 586.344 356.531 586.248C356.275 586.184 356.051 586.024 355.859 585.864C355.635 585.672 355.475 585.48 355.347 585.192C355.251 584.936 355.187 584.616 355.187 584.264C355.187 583.816 355.251 583.464 355.379 583.176C355.507 582.888 355.699 582.632 355.955 582.408C356.211 582.216 356.531 582.056 356.915 581.928C357.299 581.8 357.747 581.704 358.259 581.608L359.443 581.384C359.891 581.32 360.243 581.192 360.531 581.064C360.787 580.968 361.075 580.84 361.331 580.68ZM368.296 571.976V575.56H373.448V589H377.864V575.56H383.016V571.976H368.296ZM390.152 577.896V571.976H385.736V589H395.144C395.336 589 395.656 589 396.04 588.968C396.424 588.936 396.872 588.84 397.32 588.712C397.768 588.616 398.248 588.424 398.728 588.2C399.208 587.944 399.656 587.656 400.04 587.208C400.424 586.824 400.744 586.312 401 585.672C401.224 585.064 401.352 584.328 401.352 583.464C401.352 582.504 401.192 581.672 400.904 580.968C400.616 580.264 400.168 579.688 399.592 579.24C399.016 578.792 398.312 578.44 397.512 578.216C396.68 577.992 395.72 577.896 394.664 577.896H390.152ZM393.896 585.672H390.152V581.224H393.512C393.96 581.224 394.376 581.256 394.76 581.32C395.144 581.384 395.496 581.512 395.784 581.672C396.104 581.832 396.328 582.056 396.488 582.344C396.68 582.664 396.744 583.016 396.744 583.464C396.744 583.912 396.68 584.296 396.488 584.584C396.328 584.872 396.104 585.096 395.848 585.256C395.56 585.416 395.24 585.544 394.92 585.576C394.568 585.64 394.248 585.672 393.896 585.672Z"
         fill="white"
         id="path148" />
    </g>
  </g>
  <defs
     id="defs196">
    <filter
       id="filter0_d_2_9"
       x="210"
       y="542"
       width="280"
       height="80"
       filterUnits="userSpaceOnUse"
       color-interpolation-filters="sRGB">
      <feFlood
         flood-opacity="0"
         result="BackgroundImageFix"
         id="feFlood154" />
      <feColorMatrix
         in="SourceAlpha"
         type="matrix"
         values="0 0 0 0 0 0 0 0 0 0 0 0 0 0 0 0 0 0 127 0"
         result="hardAlpha"
         id="feColorMatrix156" />
      <feOffset
         dy="4"
         id="feOffset158" />
      <feGaussianBlur
         stdDeviation="5"
         id="feGaussianBlur160" />
      <feComposite
         in2="hardAlpha"
         operator="out"
         id="feComposite162" />
      <feColorMatrix
         type="matrix"
         values="0 0 0 0 0 0 0 0 0 0 0 0 0 0 0 0 0 0 0.1 0"
         id="feColorMatrix164" />
      <feBlend
         mode="normal"
         in2="BackgroundImageFix"
         result="effect1_dropShadow_2_9"
         id="feBlend166" />
      <feBlend
         mode="normal"
         in="SourceGraphic"
         in2="effect1_dropShadow_2_9"
         result="shape"
         id="feBlend168" />
    </filter>
    <filter
       id="filter1_d_2_9"
       x="215"
       y="547"
       width="270"
       height="70"
       filterUnits="userSpaceOnUse"
       color-interpolation-filters="sRGB">
      <feFlood
         flood-opacity="0"
         result="BackgroundImageFix"
         id="feFlood171" />
      <feColorMatrix
         in="SourceAlpha"
         type="matrix"
         values="0 0 0 0 0 0 0 0 0 0 0 0 0 0 0 0 0 0 127 0"
         result="hardAlpha"
         id="feColorMatrix173" />
      <feOffset
         dy="4"
         id="feOffset175" />
      <feGaussianBlur
         stdDeviation="2.5"
         id="feGaussianBlur177" />
      <feComposite
         in2="hardAlpha"
         operator="out"
         id="feComposite179" />
      <feColorMatrix
         type="matrix"
         values="0 0 0 0 0 0 0 0 0 0 0 0 0 0 0 0 0 0 0.1 0"
         id="feColorMatrix181" />
      <feBlend
         mode="normal"
         in2="BackgroundImageFix"
         result="effect1_dropShadow_2_9"
         id="feBlend183" />
      <feBlend
         mode="normal"
         in="SourceGraphic"
         in2="effect1_dropShadow_2_9"
         result="shape"
         id="feBlend185" />
    </filter>
    <linearGradient
       id="paint0_linear_2_9"
       x1="699"
       y1="-353.5"
       x2="350"
       y2="738.5"
       gradientUnits="userSpaceOnUse">
      <stop
         stop-color="#7F75F0"
         id="stop188" />
      <stop
         offset="1"
         stop-color="#101F32"
         id="stop190" />
    </linearGradient>
    <clipPath
       id="clip0_2_9">
      <rect
         width="291"
         height="67"
         fill="white"
         transform="translate(204 544)"
         id="rect193" />
    </clipPath>
  </defs>
</svg>
