<svg width="886" height="222" viewBox="0 0 886 222" fill="none" xmlns="http://www.w3.org/2000/svg">
<path d="M4.81825e-10 50C4.81825e-10 22.3858 22.3858 0 50 0H836C863.614 0 886 22.3858 886 50V71.6672C886 83.8062 880.406 97.8847 868.592 95.0961C867.912 94.9357 867.215 94.7383 866.5 94.5C865.153 94.0511 864.059 93.7091 863.191 93.4622C844.541 88.1561 886 118.883 886 138.273V172C886 199.614 863.614 222 836 222H33.3051C14.9112 222 4.81825e-10 207.089 4.81825e-10 188.695V188.695C4.81825e-10 176.283 7.29331 165.439 17.3172 158.12C23.5764 153.55 25.7354 149.854 10 153C0.02551 154.994 6.45534e-05 140.083 1.62248e-07 140C-1.81781e-06 139.998 4.81825e-10 139.999 4.81825e-10 139.996V50Z" fill="url(#paint0_radial_1_2)"/>
<path d="M21.998 152.5L700.998 157.601L7.49805 167L20.998 155L21.998 152.5Z" fill="url(#paint1_linear_1_2)" fill-opacity="0.1"/>
<path d="M857.998 93L175.998 98.6008L865.998 105L860.498 98.5L857.998 93Z" fill="url(#paint2_linear_1_2)" fill-opacity="0.1"/>
<g filter="url(#filter0_i_1_2)">
<circle cx="445.53" cy="110.5" r="65.5" fill="black" fill-opacity="0.06"/>
</g>
<g filter="url(#filter1_i_1_2)">
<circle cx="581.54" cy="110.5" r="65.5" fill="black" fill-opacity="0.06"/>
</g>
<g filter="url(#filter2_i_1_2)">
<circle cx="716.54" cy="110.5" r="65.5" fill="black" fill-opacity="0.06"/>
</g>
<g filter="url(#filter3_i_1_2)">
<circle cx="175.541" cy="110.5" r="65.5" fill="black" fill-opacity="0.06"/>
</g>
<g filter="url(#filter4_i_1_2)">
<circle cx="310.541" cy="110.5" r="65.5" fill="black" fill-opacity="0.06"/>
</g>
<defs>
<filter id="filter0_i_1_2" x="380.03" y="45" width="131" height="135" filterUnits="userSpaceOnUse" color-interpolation-filters="sRGB">
<feFlood flood-opacity="0" result="BackgroundImageFix"/>
<feBlend mode="normal" in="SourceGraphic" in2="BackgroundImageFix" result="shape"/>
<feColorMatrix in="SourceAlpha" type="matrix" values="0 0 0 0 0 0 0 0 0 0 0 0 0 0 0 0 0 0 127 0" result="hardAlpha"/>
<feOffset dy="4"/>
<feGaussianBlur stdDeviation="12.5"/>
<feComposite in2="hardAlpha" operator="arithmetic" k2="-1" k3="1"/>
<feColorMatrix type="matrix" values="0 0 0 0 0 0 0 0 0 0 0 0 0 0 0 0 0 0 0.25 0"/>
<feBlend mode="normal" in2="shape" result="effect1_innerShadow_1_2"/>
</filter>
<filter id="filter1_i_1_2" x="516.04" y="45" width="131" height="135" filterUnits="userSpaceOnUse" color-interpolation-filters="sRGB">
<feFlood flood-opacity="0" result="BackgroundImageFix"/>
<feBlend mode="normal" in="SourceGraphic" in2="BackgroundImageFix" result="shape"/>
<feColorMatrix in="SourceAlpha" type="matrix" values="0 0 0 0 0 0 0 0 0 0 0 0 0 0 0 0 0 0 127 0" result="hardAlpha"/>
<feOffset dy="4"/>
<feGaussianBlur stdDeviation="12.5"/>
<feComposite in2="hardAlpha" operator="arithmetic" k2="-1" k3="1"/>
<feColorMatrix type="matrix" values="0 0 0 0 0 0 0 0 0 0 0 0 0 0 0 0 0 0 0.25 0"/>
<feBlend mode="normal" in2="shape" result="effect1_innerShadow_1_2"/>
</filter>
<filter id="filter2_i_1_2" x="651.04" y="45" width="131" height="135" filterUnits="userSpaceOnUse" color-interpolation-filters="sRGB">
<feFlood flood-opacity="0" result="BackgroundImageFix"/>
<feBlend mode="normal" in="SourceGraphic" in2="BackgroundImageFix" result="shape"/>
<feColorMatrix in="SourceAlpha" type="matrix" values="0 0 0 0 0 0 0 0 0 0 0 0 0 0 0 0 0 0 127 0" result="hardAlpha"/>
<feOffset dy="4"/>
<feGaussianBlur stdDeviation="12.5"/>
<feComposite in2="hardAlpha" operator="arithmetic" k2="-1" k3="1"/>
<feColorMatrix type="matrix" values="0 0 0 0 0 0 0 0 0 0 0 0 0 0 0 0 0 0 0.25 0"/>
<feBlend mode="normal" in2="shape" result="effect1_innerShadow_1_2"/>
</filter>
<filter id="filter3_i_1_2" x="110.041" y="45" width="131" height="135" filterUnits="userSpaceOnUse" color-interpolation-filters="sRGB">
<feFlood flood-opacity="0" result="BackgroundImageFix"/>
<feBlend mode="normal" in="SourceGraphic" in2="BackgroundImageFix" result="shape"/>
<feColorMatrix in="SourceAlpha" type="matrix" values="0 0 0 0 0 0 0 0 0 0 0 0 0 0 0 0 0 0 127 0" result="hardAlpha"/>
<feOffset dy="4"/>
<feGaussianBlur stdDeviation="12.5"/>
<feComposite in2="hardAlpha" operator="arithmetic" k2="-1" k3="1"/>
<feColorMatrix type="matrix" values="0 0 0 0 0 0 0 0 0 0 0 0 0 0 0 0 0 0 0.25 0"/>
<feBlend mode="normal" in2="shape" result="effect1_innerShadow_1_2"/>
</filter>
<filter id="filter4_i_1_2" x="245.041" y="45" width="131" height="135" filterUnits="userSpaceOnUse" color-interpolation-filters="sRGB">
<feFlood flood-opacity="0" result="BackgroundImageFix"/>
<feBlend mode="normal" in="SourceGraphic" in2="BackgroundImageFix" result="shape"/>
<feColorMatrix in="SourceAlpha" type="matrix" values="0 0 0 0 0 0 0 0 0 0 0 0 0 0 0 0 0 0 127 0" result="hardAlpha"/>
<feOffset dy="4"/>
<feGaussianBlur stdDeviation="12.5"/>
<feComposite in2="hardAlpha" operator="arithmetic" k2="-1" k3="1"/>
<feColorMatrix type="matrix" values="0 0 0 0 0 0 0 0 0 0 0 0 0 0 0 0 0 0 0.25 0"/>
<feBlend mode="normal" in2="shape" result="effect1_innerShadow_1_2"/>
</filter>
<radialGradient id="paint0_radial_1_2" cx="0" cy="0" r="1" gradientUnits="userSpaceOnUse" gradientTransform="translate(428.5 111) rotate(88.3422) scale(501.21 2000.32)">
<stop stop-color="#EDCE61"/>
<stop offset="0.855111" stop-color="#362673"/>
</radialGradient>
<linearGradient id="paint1_linear_1_2" x1="359.996" y1="164.997" x2="359.996" y2="151.986" gradientUnits="userSpaceOnUse">
<stop stop-color="#9F2F3F"/>
<stop offset="1" stop-color="#E05A2C"/>
</linearGradient>
<linearGradient id="paint2_linear_1_2" x1="517" y1="105.997" x2="517" y2="92.9861" gradientUnits="userSpaceOnUse">
<stop stop-color="#9F2F3F"/>
<stop offset="1" stop-color="#E05A2C"/>
</linearGradient>
</defs>
</svg>
