<?xml version="1.0" encoding="UTF-8" standalone="no"?>
<!-- Created with Inkscape (http://www.inkscape.org/) -->

<svg
   width="153.59431"
   height="31.015295"
   viewBox="0 0 160.43299 33.554912"
   version="1.1"
   id="svg1881"
   sodipodi:docname="shelf.svg"
   inkscape:version="1.2.1 (9c6d41e410, 2022-07-14)"
   xmlns:inkscape="http://www.inkscape.org/namespaces/inkscape"
   xmlns:sodipodi="http://sodipodi.sourceforge.net/DTD/sodipodi-0.dtd"
   xmlns="http://www.w3.org/2000/svg"
   xmlns:svg="http://www.w3.org/2000/svg">
  <sodipodi:namedview
     id="namedview122"
     pagecolor="#ffffff"
     bordercolor="#000000"
     borderopacity="0.25"
     inkscape:showpageshadow="2"
     inkscape:pageopacity="0.0"
     inkscape:pagecheckerboard="0"
     inkscape:deskcolor="#d1d1d1"
     inkscape:document-units="mm"
     showgrid="false"
     inkscape:zoom="7.1143519"
     inkscape:cx="75.410946"
     inkscape:cy="18.835166"
     inkscape:window-width="1920"
     inkscape:window-height="1017"
     inkscape:window-x="-8"
     inkscape:window-y="-8"
     inkscape:window-maximized="1"
     inkscape:current-layer="layer1" />
  <defs
     id="defs1878" />
  <g
     id="layer1"
     transform="translate(-22.222688,-95.63665)">
    <path
       d="m 43.335207,126.59647 c -0.03598,-0.19403 -0.04621,-0.39864 -0.0568,-0.59972 0.01058,0.20108 0.02081,0.40569 0.0568,0.59972"
       style="fill:#472820;fill-opacity:1;fill-rule:nonzero;stroke:none;stroke-width:0.0352778"
       id="path740" />
    <path
       d="M 44.455982,111.96325 H 41.72654 l 0.814917,7.33778 0.7112,6.4135 0.0053,0.0705 0.07585,0.17286 c 1.068917,2.13078 4.205817,2.13078 5.274734,0 l 0.09595,-0.22578 0.0018,-0.0176 0.711906,-6.4135 0.814564,-7.33778 h -5.776737"
       style="fill:#472820;fill-opacity:1;fill-rule:nonzero;stroke:none;stroke-width:0.0352778"
       id="path742" />
    <path
       d="m 43.333796,125.95794 -0.07585,-0.17286 -0.0018,-0.007 0.02222,0.21872 c 0.01058,0.20108 0.02081,0.40569 0.0568,0.59972 0.04974,0.26458 0.118533,0.52211 0.206375,0.76553 l 0.183797,0.42686 0.01729,0.0423 c 0.113242,0.22578 0.254353,0.42334 0.415925,0.59267 l 0.255764,0.23283 0.381706,0.23989 c 0.766586,0.39511 1.715206,0.38453 2.466269,-0.0494 l 0.28187,-0.1905 c 0.268464,-0.21166 0.500239,-0.48683 0.670631,-0.8255 0.07726,-0.15522 0.14605,-0.31397 0.206375,-0.47978 0.178505,-0.49388 0.281516,-1.04069 0.28328,-1.61572 v -0.004 l -0.09595,0.22578 c -1.068917,2.13078 -4.205817,2.13078 -5.274734,0"
       style="fill:#2e1613;fill-opacity:1;fill-rule:nonzero;stroke:none;stroke-width:0.0352778"
       id="path744" />
    <path
       d="m 152.2356,111.96325 0.81491,7.33778 0.71262,6.4135 0.004,0.0741 0.0741,0.17639 c 1.06891,2.13078 4.20864,2.13078 5.27755,0 l 0.0952,-0.22225 v -0.0282 l 0.71614,-6.4135 0.81139,-7.33778 h -8.50547"
       style="fill:#472820;fill-opacity:1;fill-rule:nonzero;stroke:none;stroke-width:0.0352778"
       id="path746" />
    <path
       d="m 83.260482,97.929746 c -1.351139,0.0635 -2.706864,-0.22225 -3.89502,-0.881944 -0.718256,-0.402167 -1.350786,-0.92075 -2.003778,-1.411112 h -5.046133 -1.414992 c -0.407106,1.301751 -0.504825,2.681112 -0.489303,4.088695 0.02011,1.802695 0.479425,4.109865 -0.856192,5.559775 -0.288925,0.3175 -0.63253,0.56798 -1.003653,0.76906 1.419225,-0.0247 2.823987,-0.0635 4.211109,-0.11289 l 0.03034,-0.0494 c 0.713669,-1.36172 0.663575,-3.12561 1.830917,-4.23333 0.840316,-0.80081 2.050344,-1.06892 3.18135,-1.10067 1.306336,-0.0318 2.585156,0.23636 3.880908,0.36336 1.698273,0.17286 3.451578,-0.0741 4.998156,-0.81139 0.814917,-0.39158 1.558925,-0.934858 2.165703,-1.605136 0.597959,-0.673806 1.041753,-1.467556 1.637948,-2.134306 0.244475,-0.275166 0.512586,-0.518583 0.805391,-0.733778 H 90.91576 88.779338 c -1.47955,1.400528 -3.473451,2.208389 -5.518856,2.293056"
       style="fill:#9a5435;fill-opacity:1;fill-rule:nonzero;stroke:none;stroke-width:0.0352778"
       id="path748" />
    <path
       d="m 28.321689,98.261357 c -1.677458,0.656167 -3.499203,0.53975 -5.247217,0.296334 -1.127477,-0.162278 -2.239786,-0.41275 -3.370791,-0.515056 -0.188737,-0.01411 -0.412398,-0.03881 -0.657931,-0.04939 v 1.037167 c 1.538111,0.966611 3.659011,1.862668 6.271331,2.670528 1.628069,-0.0106 3.2639,-0.40569 4.677128,-1.22061 0.779992,-0.44803 1.488369,-1.03364 2.050345,-1.749779 0.545041,-0.6985 0.911225,-1.516945 1.421341,-2.240139 0.214842,-0.313973 0.459317,-0.599723 0.7239,-0.853723 H 31.74187 c -0.957086,1.097139 -2.058811,2.095501 -3.420181,2.624667"
       style="fill:#9a5435;fill-opacity:1;fill-rule:nonzero;stroke:none;stroke-width:0.0352778"
       id="path750" />
    <path
       d="m 99.477677,96.804385 c -0.522111,0.546806 -1.157111,0.927806 -1.788583,1.326445 -0.85725,0.53975 -1.732139,1.058333 -2.628195,1.534583 -1.651,0.881947 -3.637139,1.446387 -5.011561,2.762247 -0.685448,0.65617 -0.99307,1.45345 -1.151114,2.30011 2.193925,-0.25752 4.303536,-0.5468 6.317897,-0.86783 0.3175,-1.08303 0.818445,-2.06022 1.587501,-2.921 0.867833,-0.952499 1.929694,-1.686277 2.9845,-2.423583 1.181808,-0.818444 2.264838,-1.792111 3.203218,-2.878667 h -0.46566 -2.34597 c -0.11642,0.409223 -0.377477,0.814917 -0.702033,1.167695"
       style="fill:#9a5435;fill-opacity:1;fill-rule:nonzero;stroke:none;stroke-width:0.0352778"
       id="path752" />
    <path
       d="m 99.520011,99.160941 c -1.210028,0.864309 -2.388306,1.866199 -3.06564,3.220859 -0.22225,0.43745 -0.381,0.89606 -0.511527,1.36172 3.100917,-0.508 5.954886,-1.09008 8.523116,-1.72861 0.75494,-1.35819 1.03011,-3.012719 1.34055,-4.512025 0.13053,-0.627944 0.26458,-1.248833 0.42686,-1.866195 h -2.56822 c -0.254,0.289278 -0.51506,0.5715 -0.78669,0.843139 -1.02306,1.023056 -2.18723,1.834445 -3.358449,2.681112"
       style="fill:#9a5435;fill-opacity:1;fill-rule:nonzero;stroke:none;stroke-width:0.0352778"
       id="path754" />
    <path
       d="m 89.881063,98.021468 c -0.46355,0.610306 -1.020939,1.132417 -1.65347,1.566334 -1.234017,0.846668 -2.691342,1.351138 -4.15925,1.576918 -1.373364,0.21519 -2.698397,0.10936 -4.065059,-0.0706 -1.285875,-0.17286 -2.86138,-0.48683 -4.085519,0.10231 -1.605139,0.762 -1.579387,2.74814 -2.201334,4.17336 -0.0829,0.1905 -0.177094,0.37042 -0.27693,0.54328 5.188655,-0.20461 10.139186,-0.58209 14.731295,-1.10067 0.202847,-0.93133 0.589844,-1.79917 1.352903,-2.48003 1.286228,-1.143 2.961922,-1.70391 4.478867,-2.465914 0.963083,-0.479778 1.894417,-1.023055 2.811639,-1.594555 0.716139,-0.440973 1.471083,-0.860778 2.046111,-1.488723 0.282222,-0.303389 0.582083,-0.719666 0.673806,-1.146528 h -7.60589 l -0.395111,0.321028 c -0.652639,0.60325 -1.122539,1.361723 -1.652058,2.06375"
       style="fill:#9a5435;fill-opacity:1;fill-rule:nonzero;stroke:none;stroke-width:0.0352778"
       id="path756" />
    <path
       d="m 105.29851,101.79972 c 1.13947,-0.29633 2.21897,-0.60325 3.22792,-0.92075 -0.66322,-1.770946 -0.18697,-3.668891 0.8008,-5.24228 h -2.36714 c -0.22225,0.892528 -0.40922,1.795639 -0.58913,2.691695 -0.23989,1.17475 -0.5327,2.391835 -1.07245,3.471335"
       style="fill:#9a5435;fill-opacity:1;fill-rule:nonzero;stroke:none;stroke-width:0.0352778"
       id="path758" />
    <path
       d="m 26.602956,98.268413 c 1.835856,-0.211667 3.232856,-1.315861 4.420659,-2.631723 H 19.04575 v 1.890889 c 1.044928,0.01058 2.115608,0.208139 2.727325,0.3175 1.586795,0.275167 3.214159,0.603251 4.829881,0.423334"
       style="fill:#9a5435;fill-opacity:1;fill-rule:nonzero;stroke:none;stroke-width:0.0352778"
       id="path760" />
    <path
       d="m 109.24609,100.64261 c 3.76062,-1.252364 6.51934,-2.656419 8.00453,-4.152197 0.0494,-0.282223 0.0953,-0.567973 0.127,-0.853723 h -7.39422 c -0.33161,0.53975 -0.59619,1.121834 -0.77258,1.770945 -0.27164,1.016 -0.33514,2.211917 0.0353,3.234975"
       style="fill:#9a5435;fill-opacity:1;fill-rule:nonzero;stroke:none;stroke-width:0.0352778"
       id="path762" />
    <path
       d="m 33.151217,98.109663 c -0.403577,0.652639 -0.909108,1.227667 -1.500363,1.718028 -1.166637,0.973669 -2.616201,1.615719 -4.088695,1.957919 -0.426156,0.0988 -0.8509,0.15875 -1.275645,0.20461 1.849614,0.53269 3.925712,1.02305 6.187723,1.46755 0.204611,-0.46213 0.481542,-0.89605 0.874889,-1.28763 1.244247,-1.23825 2.901244,-1.96145 4.365625,-2.89631 0.907697,-0.582084 1.779059,-1.217084 2.631722,-1.873251 0.615245,-0.472722 1.237545,-0.931333 1.691217,-1.569861 l 0.128764,-0.194028 h -7.302853 l -0.147814,0.141112 c -0.653344,0.680861 -1.071033,1.534583 -1.56457,2.331861"
       style="fill:#9a5435;fill-opacity:1;fill-rule:nonzero;stroke:none;stroke-width:0.0352778"
       id="path764" />
    <path
       d="m 47.525502,100.82252 c -0.738717,0.32456 -1.509184,0.5715 -2.260248,0.86784 -0.523875,0.20108 -1.304572,0.44803 -1.584678,0.98778 -0.336902,0.64911 0.244123,1.40405 0.653345,1.86266 0.20955,0.23636 0.436386,0.46214 0.66675,0.68086 2.093736,0.19756 4.26085,0.37042 6.500284,0.50095 0.2921,-0.87489 0.916516,-1.65806 1.699683,-2.20839 1.452739,-1.01247 3.233209,-1.41111 4.941712,-1.76036 2.341033,-0.4692 5.022497,-0.99836 6.256514,-3.291419 0.469194,-0.874889 0.689328,-1.845028 0.724958,-2.825751 h -0.518583 -3.912306 c -0.50165,1.862667 -1.515886,3.619501 -3.183114,4.62845 -1.830211,1.10772 -4.420659,1.09713 -5.491339,-1.016005 -0.585964,-1.164167 -0.663575,-2.416528 -0.404284,-3.612445 h -1.962502 c 0.04127,0.913695 0.5207,1.742723 0.505177,2.656417 -0.02046,1.277056 -1.643239,2.091973 -2.631369,2.529413"
       style="fill:#9a5435;fill-opacity:1;fill-rule:nonzero;stroke:none;stroke-width:0.0352778"
       id="path766" />
    <path
       d="m 82.598671,97.615774 c 2.091972,0.239889 4.125383,-0.53975 5.594703,-1.979084 h -4.989689 -4.817534 c 0.316089,0.243417 0.627239,0.483306 0.959203,0.716139 0.974019,0.677334 2.069394,1.125362 3.253317,1.262945"
       style="fill:#9a5435;fill-opacity:1;fill-rule:nonzero;stroke:none;stroke-width:0.0352778"
       id="path768" />
    <path
       d="m 66.203675,105.95897 c 0.953911,0.0353 1.842206,-0.0882 2.576336,-0.762 0.806098,-0.73731 0.907345,-1.7145 0.917575,-2.74814 0.02928,-2.16253 -0.23883,-4.363862 0.331612,-6.484056 l 0.1016,-0.328084 h -4.272845 c -0.0568,0.938389 -0.276578,1.869723 -0.73025,2.698751 -1.141236,2.106079 -3.518606,2.924529 -5.720292,3.414889 -1.907823,0.42686 -3.994503,0.63853 -5.640917,1.79564 -0.763059,0.54328 -1.368425,1.28764 -1.595261,2.21544 3.578578,0.20109 7.321903,0.3175 11.189406,0.33514 0.983192,-0.14111 1.973086,-0.16933 2.843036,-0.13758"
       style="fill:#9a5435;fill-opacity:1;fill-rule:nonzero;stroke:none;stroke-width:0.0352778"
       id="path770" />
    <path
       d="m 53.159716,99.640718 c 1.897592,2.190752 4.860573,-0.0071 5.936545,-1.87325 0.396875,-0.687916 0.677333,-1.404055 0.866069,-2.130778 h -2.098322 -5.510389 l -0.02399,0.141112 c -0.204611,1.298222 -0.06209,2.832805 0.830086,3.862916"
       style="fill:#9a5435;fill-opacity:1;fill-rule:nonzero;stroke:none;stroke-width:0.0352778"
       id="path772" />
    <path
       d="m 42.936568,98.310746 c -1.081264,0.938389 -2.131483,1.975554 -2.734381,3.305524 -0.423333,0.93839 -0.564091,1.96145 -0.650169,2.9845 1.402644,0.18698 2.853267,0.35631 4.346928,0.51153 l -0.24377,-0.25753 c -0.861483,-0.97013 -1.182863,-2.14488 0.03069,-2.95275 1.263297,-0.83961 2.851503,-1.07597 4.176889,-1.79916 0.539398,-0.28928 1.298928,-0.758475 1.4986,-1.382892 0.127,-0.391583 -0.01552,-0.818444 -0.122061,-1.195916 -0.18415,-0.642056 -0.32138,-1.266473 -0.32138,-1.887362 h -3.238148 c -0.837141,0.948973 -1.755069,1.820334 -2.7432,2.674056"
       style="fill:#9a5435;fill-opacity:1;fill-rule:nonzero;stroke:none;stroke-width:0.0352778"
       id="path774" />
    <path
       d="m 41.492649,97.054857 c -0.836789,0.659695 -1.692981,1.298223 -2.569281,1.901473 -1.519767,1.033639 -3.290006,1.78506 -4.666898,3.00919 -0.551391,0.49037 -0.903816,1.03364 -1.129241,1.61573 1.789289,0.33866 3.693936,0.64558 5.699478,0.92427 l 0.03986,-0.39863 c 0.162983,-1.37584 0.551391,-2.64584 1.371247,-3.77473 0.741186,-1.019525 1.688042,-1.845025 2.641953,-2.656414 0.744361,-0.620889 1.438628,-1.305278 2.065867,-2.039056 h -2.096559 l -0.04163,0.06703 c -0.350661,0.532695 -0.814564,0.956028 -1.314802,1.351139"
       style="fill:#9a5435;fill-opacity:1;fill-rule:nonzero;stroke:none;stroke-width:0.0352778"
       id="path776" />
    <path
       d="m 109.64473,101.4293 c 0.66323,0.94897 1.80623,1.30175 2.91748,1.08656 1.27,-0.24695 2.3248,-1.13595 3.07975,-2.14842 0.88547,-1.185333 1.36525,-2.501194 1.60866,-3.877027 -1.48519,1.495778 -4.24391,2.899833 -8.00453,4.152197 0.10231,0.27516 0.22931,0.54328 0.39864,0.78669"
       style="fill:#94442d;fill-opacity:1;fill-rule:nonzero;stroke:none;stroke-width:0.0352778"
       id="path778" />
    <path
       d="m 29.330634,109.75133 c 0.673453,-0.0882 1.503892,-0.0459 2.095147,-0.42333 0.873125,-0.55034 0.629356,-1.82034 0.592667,-2.6917 -0.04939,-1.12536 0.02611,-2.21191 0.455789,-3.17853 -2.262011,-0.4445 -4.338109,-0.93486 -6.187723,-1.46755 -0.871008,0.0917 -1.742722,0.0953 -2.631369,0.06 -1.249539,-0.0494 -2.682875,-0.17286 -3.844926,0.37747 -0.310797,0.14817 -0.560211,0.33867 -0.764469,0.55034 v 8.98525 h 2.600325 c 0.341842,-0.25048 0.718256,-0.4692 1.117247,-0.65617 2.035176,-0.95603 4.355395,-1.28411 6.567312,-1.55575"
       style="fill:#94442d;fill-opacity:1;fill-rule:nonzero;stroke:none;stroke-width:0.0352778"
       id="path780" />
    <path
       d="m 113.86748,102.45589 c -1.8415,0.87136 -4.34975,0.7373 -5.25639,-1.3582 l -0.0847,-0.21872 c -1.00895,0.3175 -2.08845,0.62442 -3.22792,0.92075 -0.28575,0.57855 -0.64205,1.12183 -1.10419,1.59808 -0.56092,0.57503 -1.24531,1.03364 -2.01436,1.2947 -0.75848,0.25752 -1.62278,0.28575 -2.328338,0.67733 -0.903111,0.49742 -1.291167,1.65453 -1.143,2.63878 0.141111,0.96308 0.860777,1.69686 1.626308,2.23661 0.77258,0.5468 1.64041,0.97367 2.49766,1.37583 0.2152,0.10231 0.43392,0.22225 0.65617,0.3422 h 3.64067 l -0.0106,-0.0988 c -0.15522,-1.11478 -0.97719,-1.99672 -1.08302,-3.1115 -0.0917,-1.00542 0.37747,-2.02142 1.08302,-2.71639 3.51014,-3.45369 8.63953,0.30339 12.62945,-1.4605 3.62656,-1.60161 4.49792,-5.298723 4.56847,-8.93939 h -6.18066 c -0.0247,0.254 -0.067,0.504473 -0.11642,0.758473 -0.49036,2.44475 -1.81681,4.945947 -4.1522,6.060727"
       style="fill:#94442d;fill-opacity:1;fill-rule:nonzero;stroke:none;stroke-width:0.0352778"
       id="path782" />
    <path
       d="m 25.195373,101.70447 0.121708,-0.004 c -2.61232,-0.80786 -4.73322,-1.703916 -6.271331,-2.670527 v 3.386667 c 0.702733,-0.43744 1.555044,-0.64206 2.369961,-0.72672 1.261534,-0.127 2.519539,0.0106 3.779662,0.0141"
       style="fill:#94442d;fill-opacity:1;fill-rule:nonzero;stroke:none;stroke-width:0.0352778"
       id="path784" />
    <path
       d="m 128.98754,104.57608 c 0.10583,1.35467 -0.24342,2.73756 -1.23825,3.70769 -1.13947,1.11125 -2.74108,1.40759 -4.27567,1.40053 -2.0955,-0.0106 -4.25802,-0.57503 -6.31825,0.0212 -1.28764,0.37042 -2.16958,1.17122 -2.6035,2.25778 h 21.3607 v -8.99231 -7.33425 h -6.30414 c -0.35631,0.437445 -0.64558,0.959556 -0.8502,1.566334 -0.81491,2.430639 0.0318,4.921246 0.22931,7.373056"
       style="fill:#94442d;fill-opacity:1;fill-rule:nonzero;stroke:none;stroke-width:0.0352778"
       id="path786" />
    <path
       d="m 101.95418,111.88916 c -0.94897,-0.46214 -1.92617,-0.9525 -2.726975,-1.64747 -1.347611,-1.16769 -1.770945,-3.05505 -0.617361,-4.52967 1.114778,-1.41463 3.178526,-1.04422 4.529666,-2.10608 0.56445,-0.44803 0.99131,-0.9913 1.32645,-1.59103 -2.56823,0.63853 -5.422199,1.22061 -8.523116,1.72861 -0.261056,0.93487 -0.388056,1.91206 -0.564445,2.86103 -0.254,1.38289 -0.617361,2.86456 -1.643944,3.89467 -0.744362,0.75142 -1.742723,1.16064 -2.755195,1.39347 l -0.324556,0.0706 h 11.465276 l -0.1658,-0.0741"
       style="fill:#94442d;fill-opacity:1;fill-rule:nonzero;stroke:none;stroke-width:0.0352778"
       id="path788" />
    <path
       d="m 58.176922,109.95947 c 0.484364,-2.52236 2.810228,-3.52778 5.183717,-3.86292 -3.867503,-0.0176 -7.610828,-0.13405 -11.189406,-0.33514 l -0.01023,0.0388 c -0.305858,1.28058 0.192617,2.31422 1.008945,3.27378 0.744361,0.8643 1.581502,1.82033 1.933927,2.88925 h 3.093509 c -0.127353,-0.65617 -0.147814,-1.32998 -0.02046,-2.00378"
       style="fill:#94442d;fill-opacity:1;fill-rule:nonzero;stroke:none;stroke-width:0.0352778"
       id="path790" />
    <path
       d="m 35.949451,111.22594 c 2.708981,-1.17828 2.633486,-4.18394 2.877256,-6.72042 -2.005542,-0.27869 -3.910189,-0.58561 -5.699478,-0.92427 -0.429684,1.11477 -0.388409,2.37066 -0.333023,3.66889 0.03104,0.72319 -0.01058,1.50283 -0.581377,2.02141 -0.429684,0.39159 -1.015648,0.5715 -1.57092,0.67381 -2.366433,0.4445 -4.767792,0.47978 -7.043209,1.38641 -0.428272,0.17287 -0.856191,0.37748 -1.25483,0.63148 h 8.18127 3.028597 c 0.821619,-0.19403 1.636183,-0.4057 2.395714,-0.73731"
       style="fill:#94442d;fill-opacity:1;fill-rule:nonzero;stroke:none;stroke-width:0.0352778"
       id="path792" />
    <path
       d="m 120.00935,105.08761 c -1.96145,0.83961 -3.95464,0.56444 -5.9937,0.26811 -2.21897,-0.32103 -5.21053,-0.6985 -6.70278,1.43228 -0.38453,0.55739 -0.62089,1.28058 -0.51153,1.95791 0.0847,0.57856 0.381,1.09361 0.62442,1.6122 0.24695,0.52564 0.4057,1.0548 0.45508,1.60514 h 5.89845 c 0.0776,-0.21167 0.16933,-0.41981 0.28222,-0.62442 0.83256,-1.50636 2.51531,-2.19428 4.1522,-2.39183 2.11666,-0.25753 4.22275,0.33866 6.33589,0.14111 1.651,-0.1517 3.09738,-1.02659 3.54894,-2.68111 0.24342,-0.86784 0.15522,-1.74625 0.0282,-2.61761 -0.15875,-1.09714 -0.36336,-2.19075 -0.44097,-3.29848 -0.11642,-1.689803 0.13053,-3.446636 1.09714,-4.85422 h -3.67595 c -0.0106,1.647473 -0.20461,3.28789 -0.80433,4.82953 -0.78317,2.00025 -2.30011,3.75708 -4.2933,4.62139"
       style="fill:#94442d;fill-opacity:1;fill-rule:nonzero;stroke:none;stroke-width:0.0352778"
       id="path794" />
    <path
       d="m 78.310304,110.28755 c 2.111022,-0.76905 4.420658,-0.88547 6.644922,-0.96308 0.661811,-0.0282 1.467909,0.0952 2.084917,-0.16581 0.969081,-0.40569 0.878064,-1.67569 0.917928,-2.54705 0.02928,-0.60678 0.08572,-1.21709 0.212725,-1.79917 -4.592109,0.51858 -9.54264,0.89606 -14.731295,1.10067 -0.581025,1.016 -1.443567,1.82033 -2.432051,2.46239 -1.361016,0.88194 -2.947811,1.46402 -4.1402,2.59291 -0.321733,0.31045 -0.555625,0.64559 -0.765175,0.99484 h 9.667876 c 0.627591,-0.74789 1.526469,-1.30881 2.540353,-1.6757"
       style="fill:#94442d;fill-opacity:1;fill-rule:nonzero;stroke:none;stroke-width:0.0352778"
       id="path796" />
    <path
       d="m 54.318238,111.96325 c -0.183797,-0.47273 -0.454025,-0.91723 -0.754591,-1.32645 -0.6223,-0.83961 -1.519414,-1.5628 -1.952273,-2.52589 -0.364772,-0.80786 -0.361244,-1.63336 -0.110419,-2.3883 -2.239434,-0.13053 -4.406548,-0.30339 -6.500284,-0.50095 0.518936,0.48684 1.06927,0.94545 1.57092,1.4605 0.536222,0.54681 1.178983,1.25942 1.151466,2.08139 -0.0187,0.64911 -0.487891,1.18181 -0.947208,1.59809 -0.693914,0.62794 -1.489781,1.143 -2.319867,1.60161 h 5.776737 4.085519"
       style="fill:#94442d;fill-opacity:1;fill-rule:nonzero;stroke:none;stroke-width:0.0352778"
       id="path798" />
    <path
       d="m 86.034726,109.61727 c -2.365022,0.16934 -4.750505,0.0282 -7.05732,0.73025 -0.988483,0.30692 -1.976614,0.79728 -2.629605,1.61573 h 12.747626 c 0.856191,-0.11995 1.7145,-0.25753 2.50825,-0.53975 2.917472,-1.01953 2.88925,-4.49792 3.467806,-7.02028 0.04233,-0.18345 0.08819,-0.36336 0.144638,-0.54328 -2.014361,0.32103 -4.123972,0.61031 -6.317897,0.86783 -0.161572,0.88195 -0.163336,1.82034 -0.250825,2.71639 -0.148167,1.51695 -1.210381,2.07434 -2.612673,2.17311"
       style="fill:#94442d;fill-opacity:1;fill-rule:nonzero;stroke:none;stroke-width:0.0352778"
       id="path800" />
    <path
       d="m 72.76252,105.94133 c -1.387122,0.0494 -2.791884,0.0882 -4.211109,0.11289 -0.245886,0.13405 -0.502002,0.24694 -0.771877,0.32455 -0.799042,0.23637 -1.610431,0.13406 -2.432051,0.13406 -1.81998,0.004 -4.059767,0.21872 -5.441597,1.54869 -1.055159,1.02306 -1.213556,2.53295 -0.931334,3.90173 h 6.434668 l 0.07585,-0.127 c 1.835855,-2.67759 5.689247,-2.9457 7.277453,-5.89492"
       style="fill:#94442d;fill-opacity:1;fill-rule:nonzero;stroke:none;stroke-width:0.0352778"
       id="path802" />
    <path
       d="m 43.359196,111.96325 c 0.728839,-0.38806 1.452386,-0.79375 2.131131,-1.27 0.541514,-0.381 1.249891,-0.87489 1.438627,-1.5487 0.249414,-0.87841 -0.591255,-1.70744 -1.147938,-2.26483 -0.613834,-0.60325 -1.285523,-1.14653 -1.88207,-1.76742 -1.493661,-0.15522 -2.944284,-0.32455 -4.346928,-0.51153 -0.04798,0.55739 -0.07902,1.11478 -0.130528,1.66159 -0.120297,1.34055 -0.3556,2.76578 -1.198033,3.86291 -0.672042,0.87137 -1.651353,1.38642 -2.681112,1.73214 l -0.341841,0.10584 h 6.526036 1.632656"
       style="fill:#94442d;fill-opacity:1;fill-rule:nonzero;stroke:none;stroke-width:0.0352778"
       id="path804" />
    <path
       d="m 181.10693,108.40725 4.10986,-12.77056 H 135.9161 v 16.32656 l 45.19083,-3.556"
       style="fill:#79301c;fill-opacity:1;fill-rule:nonzero;stroke:none;stroke-width:0.0352778"
       id="path806" />
    <path
       d="m 181.10693,108.40725 -45.19083,3.556 h 49.30069 V 95.63669 l -4.10986,12.77056"
       style="fill:#6a2416;fill-opacity:1;fill-rule:nonzero;stroke:none;stroke-width:0.0352778"
       id="path808" />
    <path
       d="m 49.361357,98.719968 c -0.199672,0.624417 -0.959202,1.093612 -1.4986,1.382892 -1.325386,0.72319 -2.913592,0.95955 -4.176889,1.79916 -1.213555,0.80787 -0.892175,1.98262 -0.03069,2.95275 l 0.24377,0.25753 c 0.596547,0.62089 1.268236,1.16417 1.88207,1.76742 0.556683,0.55739 1.397352,1.38642 1.147938,2.26483 -0.188736,0.67381 -0.897113,1.1677 -1.438627,1.5487 -0.678745,0.47625 -1.402292,0.88194 -2.131131,1.27 h 1.096786 c 0.830086,-0.45861 1.625953,-0.97367 2.319867,-1.60161 0.459317,-0.41628 0.928511,-0.94898 0.947208,-1.59809 0.02752,-0.82197 -0.615244,-1.53458 -1.151466,-2.08139 -0.50165,-0.51505 -1.051984,-0.97366 -1.57092,-1.4605 -0.230364,-0.21872 -0.4572,-0.4445 -0.66675,-0.68086 -0.409222,-0.45861 -0.990247,-1.21355 -0.653345,-1.86266 0.280106,-0.53975 1.060803,-0.7867 1.584678,-0.98778 0.751064,-0.29634 1.521531,-0.54328 2.260248,-0.86784 0.98813,-0.43744 2.610908,-1.252357 2.631369,-2.529413 0.01552,-0.913694 -0.463902,-1.742722 -0.505177,-2.656417 h -0.733778 c 0,0.620889 0.13723,1.245306 0.32138,1.887362 0.106539,0.377472 0.249061,0.804333 0.122061,1.195916"
       style="fill:#863b29;fill-opacity:1;fill-rule:nonzero;stroke:none;stroke-width:0.0352778"
       id="path810" />
    <path
       d="m 52.01848,99.249135 c 1.07068,2.113135 3.661128,2.123725 5.491339,1.016005 1.667228,-1.008949 2.681464,-2.765783 3.183114,-4.62845 H 59.96233 c -0.188736,0.726723 -0.469194,1.442862 -0.866069,2.130778 -1.075972,1.866195 -4.038953,4.064002 -5.936545,1.87325 -0.892175,-1.030111 -1.034697,-2.564694 -0.830086,-3.862916 l 0.02399,-0.141112 h -0.739423 c -0.259291,1.195917 -0.18168,2.448278 0.404284,3.612445"
       style="fill:#863b29;fill-opacity:1;fill-rule:nonzero;stroke:none;stroke-width:0.0352778"
       id="path812" />
    <path
       d="m 51.611374,108.11091 c 0.432859,0.96309 1.329973,1.68628 1.952273,2.52589 0.300566,0.40922 0.570794,0.85372 0.754591,1.32645 h 0.785636 c -0.352425,-1.06892 -1.189566,-2.02495 -1.933927,-2.88925 -0.816328,-0.95956 -1.314803,-1.9932 -1.008945,-3.27378 l 0.01023,-0.0388 c 0.226836,-0.9278 0.832202,-1.67216 1.595261,-2.21544 1.646414,-1.15711 3.733094,-1.36878 5.640917,-1.79564 2.201686,-0.49036 4.579056,-1.30881 5.720292,-3.414889 0.453672,-0.829028 0.673453,-1.760362 0.73025,-2.698751 h -0.734131 c -0.03563,0.980723 -0.255764,1.950862 -0.724958,2.825751 -1.234017,2.293059 -3.915481,2.822219 -6.256514,3.291419 -1.708503,0.34925 -3.488973,0.74789 -4.941712,1.76036 -0.783167,0.55033 -1.407583,1.3335 -1.699683,2.20839 -0.250825,0.75494 -0.254353,1.58044 0.110419,2.3883"
       style="fill:#863b29;fill-opacity:1;fill-rule:nonzero;stroke:none;stroke-width:0.0352778"
       id="path814" />
    <path
       d="m 59.905886,108.06152 c 1.38183,-1.32997 3.621617,-1.54516 5.441597,-1.54869 0.82162,0 1.633009,0.10231 2.432051,-0.13406 0.269875,-0.0776 0.525991,-0.1905 0.771877,-0.32455 0.371123,-0.20108 0.714728,-0.45156 1.003653,-0.76906 1.335617,-1.44991 0.8763,-3.75708 0.856192,-5.559775 -0.01552,-1.407583 0.0822,-2.786944 0.489303,-4.088695 h -0.769761 l -0.1016,0.328084 c -0.570442,2.120194 -0.302331,4.321526 -0.331612,6.484056 -0.01023,1.03364 -0.111477,2.01083 -0.917575,2.74814 -0.73413,0.6738 -1.622425,0.79728 -2.576336,0.762 -0.86995,-0.0317 -1.859844,-0.004 -2.843036,0.13758 -2.373489,0.33514 -4.699353,1.34056 -5.183717,3.86292 -0.127353,0.6738 -0.106892,1.34761 0.02046,2.00378 h 0.777169 c -0.282222,-1.36878 -0.123825,-2.87867 0.931334,-3.90173"
       style="fill:#863b29;fill-opacity:1;fill-rule:nonzero;stroke:none;stroke-width:0.0352778"
       id="path816" />
    <path
       d="m 40.237818,100.33216 c -0.819856,1.12889 -1.208264,2.39889 -1.371247,3.77473 l -0.03986,0.39863 c -0.24377,2.53648 -0.168275,5.54214 -2.877256,6.72042 -0.759531,0.33161 -1.574095,0.54328 -2.395714,0.73731 h 1.646767 l 0.341841,-0.10584 c 1.029759,-0.34572 2.00907,-0.86077 2.681112,-1.73214 0.842433,-1.09713 1.077736,-2.52236 1.198033,-3.86291 0.05151,-0.54681 0.08255,-1.1042 0.130528,-1.66159 0.08608,-1.02305 0.226836,-2.04611 0.650169,-2.9845 0.602898,-1.32997 1.653117,-2.367135 2.734381,-3.305524 0.988131,-0.853722 1.906059,-1.725083 2.7432,-2.674056 h -0.73413 c -0.627239,0.733778 -1.321506,1.418167 -2.065867,2.039056 -0.953911,0.811389 -1.900767,1.636889 -2.641953,2.656414"
       style="fill:#863b29;fill-opacity:1;fill-rule:nonzero;stroke:none;stroke-width:0.0352778"
       id="path818" />
    <path
       d="m 32.044554,98.730552 c -0.561976,0.716139 -1.270353,1.301748 -2.050345,1.749778 -1.413228,0.81492 -3.049059,1.21003 -4.677128,1.22061 l -0.121708,0.004 c -1.260123,-0.004 -2.518128,-0.14111 -3.779662,-0.0141 -0.814917,0.0847 -1.667228,0.28928 -2.369961,0.72672 v 0.56092 c 0.204258,-0.21167 0.453672,-0.40217 0.764469,-0.55034 1.162051,-0.55033 2.595387,-0.42686 3.844926,-0.37747 0.888647,0.0353 1.760361,0.0318 2.631369,-0.06 0.424745,-0.0459 0.849489,-0.10583 1.275645,-0.20461 1.472494,-0.3422 2.922058,-0.98425 4.088695,-1.957919 0.591255,-0.490361 1.096786,-1.065389 1.500363,-1.718028 0.493537,-0.797278 0.911226,-1.651 1.56457,-2.331861 l 0.147814,-0.141112 h -0.673806 c -0.264583,0.254 -0.509058,0.53975 -0.7239,0.853723 -0.510116,0.723194 -0.8763,1.541639 -1.421341,2.240139"
       style="fill:#863b29;fill-opacity:1;fill-rule:nonzero;stroke:none;stroke-width:0.0352778"
       id="path820" />
    <path
       d="m 40.346473,97.400579 c -0.852663,0.656167 -1.724025,1.291167 -2.631722,1.873251 -1.464381,0.93486 -3.121378,1.65806 -4.365625,2.89631 -0.393347,0.39158 -0.670278,0.8255 -0.874889,1.28763 -0.429683,0.96662 -0.505178,2.05317 -0.455789,3.17853 0.03669,0.87136 0.280458,2.14136 -0.592667,2.6917 -0.591255,0.37747 -1.421694,0.33514 -2.095147,0.42333 -2.211917,0.27164 -4.532136,0.59972 -6.567312,1.55575 -0.398991,0.18697 -0.775405,0.40569 -1.117247,0.65617 h 0.697795 c 0.398639,-0.254 0.826558,-0.45861 1.25483,-0.63148 2.275417,-0.90663 4.676776,-0.94191 7.043209,-1.38641 0.555272,-0.10231 1.141236,-0.28222 1.57092,-0.67381 0.570794,-0.51858 0.612422,-1.29822 0.581377,-2.02141 -0.05539,-1.29823 -0.09666,-2.55412 0.333023,-3.66889 0.225425,-0.58209 0.57785,-1.12536 1.129241,-1.61573 1.376892,-1.22413 3.147131,-1.975551 4.666898,-3.00919 0.8763,-0.60325 1.732492,-1.241778 2.569281,-1.901473 0.500238,-0.395111 0.964141,-0.818444 1.314802,-1.351139 l 0.04163,-0.06703 h -0.682625 l -0.128764,0.194028 c -0.453672,0.638528 -1.075972,1.097139 -1.691217,1.569861"
       style="fill:#863b29;fill-opacity:1;fill-rule:nonzero;stroke:none;stroke-width:0.0352778"
       id="path822" />
    <path
       d="m 108.52643,100.87897 0.0847,0.21872 c 0.90664,2.0955 3.41489,2.22956 5.25639,1.3582 2.33539,-1.11478 3.66184,-3.615977 4.1522,-6.060727 0.0494,-0.254 0.0917,-0.504473 0.11642,-0.758473 h -0.17287 -0.58561 c -0.0317,0.28575 -0.0776,0.5715 -0.127,0.853723 -0.24341,1.375833 -0.72319,2.691694 -1.60866,3.877027 -0.75495,1.01247 -1.80975,1.90147 -3.07975,2.14842 -1.11125,0.21519 -2.25425,-0.13759 -2.91748,-1.08656 -0.16933,-0.24341 -0.29633,-0.51153 -0.39864,-0.78669 -0.37041,-1.023058 -0.30691,-2.218975 -0.0353,-3.234975 0.17639,-0.649111 0.44097,-1.231195 0.77258,-1.770945 h -0.65617 c -0.98777,1.573389 -1.46402,3.471334 -0.8008,5.24228"
       style="fill:#863b29;fill-opacity:1;fill-rule:nonzero;stroke:none;stroke-width:0.0352778"
       id="path824" />
    <path
       d="m 119.74829,104.57608 c -3.98992,1.76389 -9.11931,-1.99319 -12.62945,1.4605 -0.70555,0.69497 -1.17475,1.71097 -1.08302,2.71639 0.10583,1.11478 0.9278,1.99672 1.08302,3.1115 l 0.0106,0.0988 h 0.75141 c -0.0494,-0.55034 -0.20813,-1.0795 -0.45508,-1.60514 -0.24342,-0.51859 -0.53975,-1.03364 -0.62442,-1.6122 -0.10936,-0.67733 0.127,-1.40052 0.51153,-1.95791 1.49225,-2.13078 4.48381,-1.75331 6.70278,-1.43228 2.03906,0.29633 4.03225,0.5715 5.9937,-0.26811 1.99319,-0.86431 3.51013,-2.62114 4.2933,-4.62139 0.59972,-1.54164 0.79375,-3.182057 0.80433,-4.82953 h -0.79022 c -0.0705,3.640667 -0.94191,7.33778 -4.56847,8.93939"
       style="fill:#863b29;fill-opacity:1;fill-rule:nonzero;stroke:none;stroke-width:0.0352778"
       id="path826" />
    <path
       d="m 127.68579,100.49091 c 0.0776,1.10773 0.28222,2.20134 0.44097,3.29848 0.127,0.87136 0.2152,1.74977 -0.0282,2.61761 -0.45156,1.65452 -1.89794,2.52941 -3.54894,2.68111 -2.11314,0.19755 -4.21923,-0.39864 -6.33589,-0.14111 -1.63689,0.19755 -3.31964,0.88547 -4.1522,2.39183 -0.11289,0.20461 -0.20461,0.41275 -0.28222,0.62442 h 0.77258 c 0.43392,-1.08656 1.31586,-1.88736 2.6035,-2.25778 2.06023,-0.5962 4.22275,-0.0318 6.31825,-0.0212 1.53459,0.007 3.1362,-0.28928 4.27567,-1.40053 0.99483,-0.97013 1.34408,-2.35302 1.23825,-3.70769 -0.19756,-2.45181 -1.04422,-4.942417 -0.22931,-7.373056 0.20462,-0.606778 0.49389,-1.128889 0.8502,-1.566334 h -0.8255 c -0.96661,1.407584 -1.21356,3.164417 -1.09714,4.85422"
       style="fill:#863b29;fill-opacity:1;fill-rule:nonzero;stroke:none;stroke-width:0.0352778"
       id="path828" />
    <path
       d="m 99.788122,98.515357 c -1.054806,0.737306 -2.116667,1.471084 -2.9845,2.423583 -0.769056,0.86078 -1.270001,1.83797 -1.587501,2.921 -0.05644,0.17992 -0.102305,0.35983 -0.144638,0.54328 -0.578556,2.52236 -0.550334,6.00075 -3.467806,7.02028 -0.79375,0.28222 -1.652059,0.4198 -2.50825,0.53975 h 1.559277 l 0.324556,-0.0706 c 1.012472,-0.23283 2.010833,-0.64205 2.755195,-1.39347 1.026583,-1.03011 1.389944,-2.51178 1.643944,-3.89467 0.176389,-0.94897 0.303389,-1.92616 0.564445,-2.86103 0.130527,-0.46566 0.289277,-0.92427 0.511527,-1.36172 0.677334,-1.35466 1.855612,-2.35655 3.06564,-3.220859 1.171219,-0.846667 2.335389,-1.658056 3.358449,-2.681112 0.27163,-0.271639 0.53269,-0.553861 0.78669,-0.843139 h -0.67381 c -0.93838,1.086556 -2.02141,2.060223 -3.203218,2.878667"
       style="fill:#863b29;fill-opacity:1;fill-rule:nonzero;stroke:none;stroke-width:0.0352778"
       id="path830" />
    <path
       d="m 88.849893,98.504774 c -0.606778,0.670278 -1.350786,1.213556 -2.165703,1.605136 -1.546578,0.73731 -3.299883,0.98425 -4.998156,0.81139 -1.295752,-0.127 -2.574572,-0.39511 -3.880908,-0.36336 -1.131006,0.0318 -2.341034,0.29986 -3.18135,1.10067 -1.167342,1.10772 -1.117248,2.87161 -1.830917,4.23333 l -0.03034,0.0494 c -1.588206,2.94922 -5.441598,3.21733 -7.277453,5.89492 l -0.07585,0.127 h 0.692855 c 0.20955,-0.34925 0.443442,-0.68439 0.765175,-0.99484 1.192389,-1.12889 2.779184,-1.71097 4.1402,-2.59291 0.988484,-0.64206 1.851026,-1.44639 2.432051,-2.46239 0.09984,-0.17286 0.194027,-0.35278 0.27693,-0.54328 0.621947,-1.42522 0.596195,-3.41136 2.201334,-4.17336 1.224139,-0.58914 2.799644,-0.27517 4.085519,-0.10231 1.366662,0.17992 2.691695,0.28575 4.065059,0.0706 1.467908,-0.22578 2.925233,-0.73025 4.15925,-1.576918 0.632531,-0.433917 1.18992,-0.956028 1.65347,-1.566334 0.529519,-0.702027 0.999419,-1.4605 1.652058,-2.06375 l 0.395111,-0.321028 h -0.635 c -0.292805,0.215195 -0.560916,0.458612 -0.805391,0.733778 -0.596195,0.66675 -1.039989,1.4605 -1.637948,2.134306"
       style="fill:#863b29;fill-opacity:1;fill-rule:nonzero;stroke:none;stroke-width:0.0352778"
       id="path832" />
    <path
       d="m 96.814205,98.271941 c -0.917222,0.5715 -1.848556,1.114777 -2.811639,1.594555 -1.516945,0.762004 -3.192639,1.322914 -4.478867,2.465914 -0.763059,0.68086 -1.150056,1.5487 -1.352903,2.48003 -0.127,0.58208 -0.183444,1.19239 -0.212725,1.79917 -0.03986,0.87136 0.05115,2.14136 -0.917928,2.54705 -0.617008,0.26106 -1.423106,0.13759 -2.084917,0.16581 -2.224264,0.0776 -4.5339,0.19403 -6.644922,0.96308 -1.013884,0.36689 -1.912762,0.92781 -2.540353,1.6757 h 0.57785 c 0.652991,-0.81845 1.641122,-1.30881 2.629605,-1.61573 2.306815,-0.70202 4.692298,-0.56091 7.05732,-0.73025 1.402292,-0.0988 2.464506,-0.65616 2.612673,-2.17311 0.08749,-0.89605 0.08925,-1.83444 0.250825,-2.71639 0.158044,-0.84666 0.465666,-1.64394 1.151114,-2.30011 1.374422,-1.31586 3.360561,-1.8803 5.011561,-2.762247 0.896056,-0.47625 1.770945,-0.994833 2.628195,-1.534583 0.631472,-0.398639 1.266472,-0.779639 1.788583,-1.326445 0.324556,-0.352778 0.585613,-0.758472 0.702033,-1.167695 h -0.645588 c -0.09172,0.426862 -0.391584,0.843139 -0.673806,1.146528 -0.575028,0.627945 -1.329972,1.04775 -2.046111,1.488723"
       style="fill:#863b29;fill-opacity:1;fill-rule:nonzero;stroke:none;stroke-width:0.0352778"
       id="path834" />
    <path
       d="m 19.703681,98.042635 c 1.131005,0.102306 2.243314,0.352778 3.370791,0.515056 1.748014,0.243416 3.569759,0.359833 5.247217,-0.296334 1.36137,-0.529166 2.463095,-1.527528 3.420181,-2.624667 h -0.718255 c -1.187803,1.315862 -2.584803,2.420056 -4.420659,2.631723 -1.615722,0.179917 -3.243086,-0.148167 -4.829881,-0.423334 -0.611717,-0.109361 -1.682397,-0.306916 -2.727325,-0.3175 v 0.465667 c 0.245533,0.01058 0.469194,0.03528 0.657931,0.04939"
       style="fill:#863b29;fill-opacity:1;fill-rule:nonzero;stroke:none;stroke-width:0.0352778"
       id="path836" />
    <path
       d="m 104.46596,102.01491 c -0.33514,0.59973 -0.762,1.143 -1.32645,1.59103 -1.35114,1.06186 -3.414888,0.69145 -4.529666,2.10608 -1.153584,1.47462 -0.73025,3.36198 0.617361,4.52967 0.800805,0.69497 1.778005,1.18533 2.726975,1.64747 l 0.1658,0.0741 h 1.36878 c -0.22225,-0.11995 -0.44097,-0.23989 -0.65617,-0.3422 -0.85725,-0.40216 -1.72508,-0.82903 -2.49766,-1.37583 -0.765531,-0.53975 -1.485197,-1.27353 -1.626308,-2.23661 -0.148167,-0.98425 0.239889,-2.14136 1.143,-2.63878 0.705558,-0.39158 1.569858,-0.41981 2.328338,-0.67733 0.76905,-0.26106 1.45344,-0.71967 2.01436,-1.2947 0.46214,-0.47625 0.81844,-1.01953 1.10419,-1.59808 0.53975,-1.0795 0.83256,-2.296585 1.07245,-3.471335 0.17991,-0.896056 0.36688,-1.799167 0.58913,-2.691695 h -0.72672 c -0.16228,0.617362 -0.29633,1.238251 -0.42686,1.866195 -0.31044,1.499306 -0.58561,3.153835 -1.34055,4.512025"
       style="fill:#863b29;fill-opacity:1;fill-rule:nonzero;stroke:none;stroke-width:0.0352778"
       id="path838" />
    <path
       d="m 83.260482,97.929746 c 2.045405,-0.08467 4.039306,-0.892528 5.518856,-2.293056 h -0.585964 c -1.46932,1.439334 -3.502731,2.218973 -5.594703,1.979084 C 81.414748,97.478191 80.319373,97.030163 79.345354,96.352829 79.01339,96.119996 78.70224,95.880107 78.386151,95.63669 h -1.024467 c 0.652992,0.490362 1.285522,1.008945 2.003778,1.411112 1.188156,0.659694 2.543881,0.945444 3.89502,0.881944"
       style="fill:#863b29;fill-opacity:1;fill-rule:nonzero;stroke:none;stroke-width:0.0352778"
       id="path840" />
    <path
       d="m 153.84074,125.965 -0.0741,-0.17639 -0.004,-0.004 0.0106,0.16228 0.0282,0.37394 0.0635,0.34925 0.0282,0.17286 c 0.0847,0.35278 0.20461,0.68792 0.35984,0.99131 0.90311,1.80975 3.56305,1.80975 4.46969,0 0.1517,-0.30339 0.27517,-0.63853 0.35983,-0.99131 0.0811,-0.34925 0.127,-0.71966 0.13053,-1.10419 v 0.004 l -0.0952,0.22225 c -1.06891,2.13078 -4.20864,2.13078 -5.27755,0"
       style="fill:#2e1613;fill-opacity:1;fill-rule:nonzero;stroke:none;stroke-width:0.0352778"
       id="path842" />
  </g>
</svg>
